<svg xmlns="http://www.w3.org/2000/svg" width="1387" height="756" viewBox="0 0 1387 756">
<g>
<path d="M 1113.99 474.51 C1110.59,476.26 1109.05,476.28 1102.93,474.63 C1096.09,472.79 1090.19,468.92 1083.38,461.82 C1076.44,454.59 1072.81,449.16 1064.52,433.63 L 1058.72 422.77 L 1054.19 423.39 C1051.70,423.73 1049.44,424.22 1049.18,424.48 C1048.92,424.74 1049.23,431.45 1049.86,439.38 C1051.46,459.56 1051.41,460.36 1048.44,463.89 C1043.75,469.46 1034.55,468.82 1030.50,462.64 C1026.84,457.05 1025.87,362.04 1029.39,353.61 C1032.94,345.12 1042.50,341.56 1060.03,342.18 C1070.77,342.57 1072.29,342.87 1078.29,345.82 C1086.60,349.91 1094.04,357.83 1097.02,365.75 C1098.83,370.55 1099.13,373.09 1098.82,381.08 C1098.32,393.72 1094.87,401.20 1085.57,409.71 L 1079.22 415.53 L 1081.95 421.52 C1086.06,430.52 1095.13,443.97 1100.28,448.70 C1103.33,451.50 1106.70,453.44 1110.40,454.51 C1117.02,456.44 1120.00,459.67 1120.00,464.91 C1120.00,469.22 1117.98,472.44 1113.99,474.51 ZM 901.21 460.00 C897.56,461.38 893.54,461.99 888.21,461.98 C870.75,461.92 857.20,451.20 850.25,431.94 C847.81,425.18 847.56,423.18 847.53,410.00 C847.50,397.28 847.79,394.64 849.89,388.50 C853.47,378.00 856.68,372.22 862.09,366.50 C874.12,353.78 890.78,350.97 906.02,359.09 C913.74,363.20 919.32,369.33 923.53,378.31 C938.11,409.43 926.95,450.28 901.21,460.00 ZM 993.31 458.64 C985.84,462.29 973.17,463.00 965.33,460.21 C952.24,455.54 943.98,443.29 940.52,423.43 C937.77,407.69 939.11,369.61 942.66,362.71 C945.84,356.52 955.51,355.42 960.74,360.65 C963.12,363.03 963.22,363.57 962.63,370.83 C958.87,416.94 962.87,438.20 975.74,440.61 C983.76,442.12 989.74,435.46 992.63,421.81 C993.86,415.97 994.06,410.38 993.60,394.00 C993.28,382.73 992.74,370.07 992.41,365.88 C991.82,358.52 991.89,358.15 994.65,355.07 C1000.44,348.58 1010.76,350.64 1012.91,358.70 C1016.89,373.66 1017.59,409.29 1014.21,425.30 C1010.53,442.71 1003.75,453.53 993.31,458.64 ZM 827.74 470.43 C822.09,474.14 814.42,472.66 811.67,467.33 C809.32,462.78 807.99,451.01 807.11,426.99 C806.37,406.53 807.32,356.40 808.51,353.16 C808.91,352.09 806.44,351.86 795.75,352.01 L 794.77 352.03 C780.17,352.23 777.00,352.27 774.85,350.82 C774.21,350.38 773.66,349.82 772.92,349.08 C767.73,343.88 769.57,335.64 776.50,333.00 C777.77,332.52 787.06,331.63 797.15,331.02 C807.24,330.42 824.05,329.27 834.50,328.47 C861.15,326.43 864.31,326.50 867.51,329.25 C871.10,332.35 871.82,338.37 869.10,342.70 C866.58,346.72 863.67,347.49 845.50,349.00 C837.80,349.64 831.13,350.51 830.68,350.95 C829.48,352.10 828.40,397.76 829.11,417.50 C829.44,426.85 830.31,441.11 831.04,449.19 C832.49,465.17 832.11,467.57 827.74,470.43 ZM 882.00 439.74 C898.57,448.58 912.44,423.63 906.51,395.64 C903.77,382.70 897.80,376.01 889.00,376.01 C883.72,376.01 879.34,378.38 875.64,383.23 C871.62,388.50 869.88,394.60 869.29,405.50 C868.37,422.49 872.99,434.94 882.00,439.74 ZM 1049.00 403.27 L 1053.53 402.65 C1064.12,401.20 1073.33,394.58 1075.99,386.52 C1077.66,381.46 1076.82,372.59 1074.35,369.21 C1071.50,365.31 1065.80,362.83 1058.26,362.23 L 1057.96 362.20 C1054.75,361.95 1052.69,361.78 1051.37,362.69 C1049.00,364.32 1049.00,369.39 1049.00,383.58 L 1049.00 403.27 ZM 802.68 553.06 C797.89,555.23 787.09,555.69 785.20,553.80 C784.39,552.99 784.00,548.45 784.00,539.92 C784.00,524.63 784.07,524.52 793.77,525.22 C805.54,526.06 810.00,530.12 810.00,540.00 C810.00,546.84 807.82,550.72 802.68,553.06 ZM 1005.70 553.04 C993.45,560.51 979.15,546.16 985.75,533.02 C989.45,525.65 998.86,522.79 1005.70,526.96 C1010.69,530.00 1012.49,533.53 1012.40,540.12 C1012.31,546.67 1010.53,550.09 1005.70,553.04 ZM 1111.70 553.04 C1109.93,554.12 1106.70,554.99 1104.50,554.99 C1096.12,554.99 1090.53,548.99 1090.53,540.00 C1090.53,531.01 1096.12,525.01 1104.50,525.01 C1112.88,525.01 1118.47,531.01 1118.47,540.00 C1118.47,546.46 1116.60,550.05 1111.70,553.04 ZM 836.53 552.98 C829.88,557.09 819.94,554.66 816.55,548.09 C814.31,543.77 814.55,535.24 817.03,531.19 C822.24,522.64 836.50,523.18 841.05,532.10 C844.72,539.30 842.57,549.25 836.53,552.98 ZM 601.60 550.73 C598.77,553.83 597.60,554.36 592.91,554.71 C583.41,555.41 578.00,550.00 578.00,539.80 C578.01,529.93 583.90,524.35 593.35,525.26 C597.51,525.66 598.93,526.35 601.63,529.29 C607.35,535.53 607.34,544.48 601.60,550.73 ZM 1034.06 554.00 C1028.79,555.46 1019.04,555.28 1018.44,553.70 C1018.16,552.98 1018.07,546.35 1018.22,538.95 L 1018.50 525.50 L 1026.59 525.53 C1035.67,525.57 1038.70,526.89 1042.10,532.30 C1045.16,537.17 1044.36,545.97 1040.49,550.01 C1038.91,551.66 1036.01,553.46 1034.06,554.00 ZM 646.80 548.75 C646.54,553.73 646.22,554.54 644.38,554.80 C643.13,554.98 642.00,554.44 641.63,553.47 C640.44,550.39 640.93,527.47 642.20,526.20 C643.62,524.78 654.78,524.59 658.28,525.92 C662.31,527.45 664.00,529.87 664.00,534.12 C664.00,536.99 663.33,538.76 661.56,540.53 C660.23,541.87 659.56,543.23 660.08,543.55 C661.76,544.58 665.16,552.15 664.60,553.60 C663.48,556.53 660.09,555.09 657.90,550.75 C654.88,544.73 653.09,543.00 649.89,543.00 C647.19,543.00 647.09,543.19 646.80,548.75 ZM 915.57 552.59 C914.99,554.88 912.21,555.87 910.67,554.33 C910.30,553.97 910.00,547.72 910.00,540.46 C910.00,529.98 910.31,526.99 911.49,526.01 C913.99,523.93 915.52,525.47 920.46,535.03 L 925.22 544.24 L 930.44 534.93 C933.31,529.81 936.20,525.43 936.86,525.21 C937.52,524.99 938.73,525.36 939.53,526.03 C940.68,526.98 941.00,529.96 941.00,539.54 C941.00,553.19 940.64,555.00 937.91,555.00 C935.67,555.00 935.10,552.94 934.75,543.66 L 934.50 536.82 L 930.68 543.91 C928.58,547.81 926.25,551.00 925.50,551.00 C924.75,551.00 922.28,547.62 920.00,543.50 C917.72,539.38 915.78,536.00 915.68,536.00 C915.58,536.00 915.65,539.19 915.84,543.09 C916.02,546.99 915.90,551.27 915.57,552.59 ZM 756.93 551.25 C755.49,554.52 752.73,555.98 751.55,554.09 C750.80,552.88 761.66,527.53 763.62,525.90 C764.37,525.28 765.67,525.04 766.53,525.37 C768.28,526.05 780.00,550.17 780.00,553.11 C780.00,556.51 776.19,555.39 774.56,551.50 L 773.10 548.00 L 765.73 548.00 C758.38,548.00 758.36,548.01 756.93,551.25 ZM 1083.78 553.44 C1080.81,555.52 1071.47,555.43 1067.12,553.29 C1057.88,548.74 1057.86,531.66 1067.09,526.96 C1071.70,524.60 1078.00,524.43 1082.11,526.56 C1085.52,528.32 1085.78,531.75 1082.46,531.14 C1070.10,528.90 1066.96,530.47 1066.23,539.26 C1065.81,544.29 1066.03,545.12 1068.39,547.48 C1070.61,549.70 1071.75,550.06 1075.76,549.80 C1080.28,549.51 1080.51,549.35 1080.81,546.32 C1081.09,543.37 1080.87,543.11 1077.81,542.82 C1075.68,542.61 1074.50,541.97 1074.50,541.00 C1074.50,539.90 1075.87,539.42 1079.62,539.20 C1085.40,538.87 1085.96,539.61 1085.99,547.69 C1086.00,550.90 1085.48,552.25 1083.78,553.44 ZM 703.48 554.01 C696.02,556.84 686.18,554.26 682.39,548.47 C679.89,544.65 680.04,534.78 682.65,531.21 C686.69,525.71 696.11,523.31 702.00,526.29 C705.09,527.86 705.48,531.67 702.50,531.14 C693.78,529.60 691.52,529.82 689.00,532.50 C687.02,534.61 686.50,536.20 686.50,540.17 C686.50,546.73 689.84,550.00 696.56,550.00 C700.95,550.00 701.00,549.96 701.00,546.57 C701.00,543.57 700.65,543.09 698.26,542.82 C696.57,542.62 695.39,541.81 695.17,540.69 C694.87,539.11 695.48,538.93 700.17,539.19 L 705.50 539.50 L 705.80 546.26 C706.08,552.74 705.99,553.06 703.48,554.01 ZM 732.23 552.08 C729.57,554.47 728.10,554.99 724.23,554.94 C713.57,554.79 711.50,551.80 711.50,536.55 L 711.50 525.50 L 714.00 525.50 C716.49,525.50 716.50,525.55 716.79,535.96 C717.11,547.84 718.16,550.00 723.58,550.00 C729.08,550.00 730.00,548.14 730.00,537.05 C730.00,526.78 731.07,524.05 734.57,525.39 C735.94,525.91 736.12,527.69 735.84,537.59 L 735.50 549.17 ZM 877.03 553.31 C874.40,555.11 866.12,555.53 862.47,554.05 C856.85,551.77 857.40,546.90 863.04,548.86 C870.16,551.35 876.93,549.60 875.42,545.66 C874.77,543.96 873.63,543.48 867.74,542.44 C861.93,541.41 859.00,538.59 859.00,534.02 C859.00,528.67 863.33,525.00 869.63,525.00 C874.61,525.00 880.00,527.31 880.00,529.44 C880.00,531.29 877.93,531.95 875.71,530.81 C874.73,530.30 872.07,530.03 869.81,530.19 C861.18,530.84 862.94,536.93 872.18,538.41 C877.63,539.28 881.00,542.36 880.98,546.42 C880.97,550.00 880.39,551.01 877.03,553.31 ZM 630.02 553.49 C626.38,555.37 619.34,555.38 615.89,553.50 C611.88,551.32 610.89,547.62 611.21,535.95 C611.48,526.26 611.65,525.50 613.50,525.50 C615.34,525.50 615.54,526.33 616.00,536.10 C616.58,548.33 617.43,550.00 623.07,550.00 C628.86,550.00 630.00,547.66 630.00,535.75 C630.00,527.91 630.30,525.82 631.51,525.36 C632.34,525.04 633.75,525.38 634.64,526.12 C636.01,527.25 636.18,529.05 635.75,537.58 C635.17,548.83 634.29,551.28 630.02,553.49 ZM 905.50 552.50 C905.50,554.34 904.74,554.52 896.23,554.79 C889.21,555.01 886.84,554.75 886.45,553.74 C886.17,553.00 886.07,546.35 886.22,538.95 L 886.50 525.50 L 894.85 525.21 C903.74,524.90 907.05,526.03 904.89,528.63 C904.15,529.53 901.55,530.00 897.38,530.00 L 891.00 530.00 L 891.00 538.00 L 897.50 538.00 C903.33,538.00 904.00,538.21 904.00,540.00 C904.00,541.79 903.33,542.00 897.50,542.00 L 891.00 542.00 L 891.00 549.91 L 898.25 550.21 C904.74,550.47 905.50,550.71 905.50,552.50 ZM 978.00 553.71 C974.72,555.36 968.31,555.27 964.27,553.52 C954.31,549.19 954.46,530.63 964.49,526.44 C971.25,523.62 980.50,525.40 980.50,529.53 C980.50,530.95 979.94,531.40 978.50,531.15 C969.80,529.64 968.12,529.79 965.55,532.36 C961.89,536.02 961.89,543.98 965.55,547.65 C968.19,550.28 970.49,550.42 978.34,548.45 C980.90,547.80 981.14,547.96 980.84,550.09 C980.65,551.39 979.38,553.02 978.00,553.71 ZM 994.23 549.33 C997.26,550.55 1002.10,549.90 1003.97,548.03 C1007.82,544.18 1007.80,535.80 1003.94,531.94 C1002.02,530.02 997.69,529.41 994.54,530.62 C992.32,531.48 990.00,536.26 990.00,540.00 C990.00,543.48 992.30,548.55 994.23,549.33 ZM 1099.06 548.06 C1100.98,549.98 1105.31,550.59 1108.46,549.38 C1112.51,547.82 1114.23,539.28 1111.54,534.07 C1109.45,530.03 1104.35,528.67 1100.01,530.99 C1095.66,533.32 1095.05,544.05 1099.06,548.06 ZM 586.83 548.96 C588.74,550.08 593.08,550.29 595.46,549.38 C597.88,548.45 600.00,543.62 600.00,539.00 C600.00,527.82 585.61,526.70 583.41,537.71 C582.66,541.47 584.52,547.62 586.83,548.96 ZM 1023.00 529.75 L 1023.00 550.00 L 1027.05 550.00 C1031.62,550.00 1036.45,547.88 1037.38,545.46 C1037.72,544.56 1038.00,541.90 1038.00,539.53 C1038.00,533.14 1035.65,530.80 1028.67,530.22 ZM 823.07 547.37 C825.86,550.90 831.10,550.99 834.55,547.55 C836.49,545.61 837.00,544.06 837.00,540.18 C837.00,533.45 834.29,530.00 829.00,530.00 C823.77,530.00 821.00,533.46 821.00,540.00 C821.00,543.27 821.64,545.54 823.07,547.37 ZM 790.00 530.00 L 790.00 550.00 L 794.44 550.00 C801.23,550.00 804.50,546.74 804.50,540.00 C804.50,533.26 801.23,530.00 794.44,530.00 ZM 566.78 542.30 C566.52,553.71 566.37,554.52 564.46,554.79 C563.34,554.95 562.10,554.77 561.71,554.38 C561.32,553.99 561.00,548.37 561.00,541.89 L 561.00 530.11 L 556.25 529.80 C552.27,529.55 551.50,529.18 551.50,527.50 C551.50,525.61 552.17,525.50 564.00,525.50 C575.83,525.50 576.50,525.61 576.50,527.50 C576.50,529.17 575.73,529.55 571.78,529.80 L 567.06 530.11 ZM 1054.79 542.00 C1054.51,554.11 1054.43,554.51 1052.25,554.82 C1051.01,555.00 1049.75,554.52 1049.47,553.77 C1049.18,553.02 1049.07,546.35 1049.22,538.95 C1049.49,525.93 1049.57,525.49 1051.71,525.19 C1054.74,524.75 1055.14,526.92 1054.79,542.00 ZM 746.50 539.99 C746.50,553.00 746.32,554.51 744.75,554.81 C742.16,555.31 741.91,553.73 742.22,538.95 C742.48,526.26 742.61,525.50 744.50,525.50 C746.41,525.50 746.50,526.17 746.50,539.99 ZM 647.00 530.00 L 647.00 539.00 L 651.43 539.00 C656.12,539.00 659.00,537.15 659.00,534.13 C659.00,531.24 656.84,530.00 651.80,530.00 ZM 763.75 543.21 C767.99,543.74 770.02,543.58 770.12,542.71 C770.17,542.27 769.19,539.57 767.95,536.71 L 765.68 531.50 L 763.40 536.50 L 763.31 536.70 C761.60,540.44 760.94,541.89 761.41,542.54 C761.71,542.97 762.48,543.05 763.75,543.21 ZM 1002.42 520.08 C999.80,522.82 997.00,523.94 997.00,522.25 C997.01,520.46 1001.10,515.00 1002.43,515.00 C1005.21,515.00 1005.20,517.18 1002.42,520.08 Z" fill="rgb(23,73,117)"/>
<path d="M 398.39 421.68 C396.70,424.45 394.91,424.33 389.78,421.08 C384.62,417.80 379.73,411.73 377.97,406.42 C376.87,403.06 376.74,403.00 371.17,402.99 C368.05,402.98 360.12,401.88 353.53,400.54 C346.95,399.20 341.37,398.30 341.13,398.54 C340.02,399.64 344.91,407.79 349.23,412.04 C354.29,417.02 355.08,419.30 352.28,420.86 C347.43,423.58 336.13,409.94 334.43,399.32 C333.82,395.46 333.79,395.44 324.66,392.22 C319.62,390.44 315.21,388.99 314.86,388.99 C313.99,389.00 315.37,394.94 316.96,398.02 C317.66,399.39 320.02,402.36 322.21,404.64 C326.71,409.31 326.97,412.33 322.90,412.80 C317.64,413.42 309.78,401.66 308.26,390.88 L 307.50 385.50 L 300.50 382.00 C265.34,364.41 248.65,334.30 255.50,300.82 C258.72,285.05 270.48,268.07 284.59,258.79 C288.12,256.47 291.00,254.29 291.00,253.95 C291.00,253.61 289.15,250.74 286.88,247.57 C282.42,241.34 273.08,233.84 267.49,232.00 C264.19,230.91 263.86,231.02 261.41,233.92 C254.74,241.86 242.02,233.61 246.02,223.94 C247.70,219.90 250.65,218.00 255.27,218.00 C257.99,218.00 259.80,218.70 261.55,220.45 C262.90,221.80 264.00,223.32 264.00,223.82 C264.00,224.32 266.72,225.72 270.05,226.94 C277.80,229.76 285.11,235.72 291.80,244.64 L 297.11 251.71 L 303.52 249.38 C307.05,248.10 314.00,246.53 318.97,245.90 C324.97,245.13 328.00,244.31 328.00,243.47 C328.00,237.86 318.88,218.90 315.04,216.52 C314.40,216.13 312.58,216.34 311.00,217.00 C307.39,218.50 301.72,216.87 299.50,213.70 C297.07,210.23 297.59,204.68 300.64,201.64 C306.31,195.97 317.00,199.50 317.00,207.05 C317.00,209.32 318.15,211.49 321.13,214.85 C326.24,220.59 331.26,230.78 332.98,238.89 C334.27,244.99 334.28,245.00 337.89,245.05 C339.87,245.08 345.25,245.67 349.83,246.36 L 358.16 247.62 L 357.56 245.06 C353.55,227.92 353.10,216.85 355.94,205.72 C358.35,196.32 360.03,193.02 365.33,187.23 C379.23,172.10 402.89,175.94 411.18,194.67 C412.22,197.02 413.59,202.66 414.22,207.22 C414.85,211.77 415.49,215.67 415.64,215.87 C415.79,216.07 417.78,214.63 420.08,212.66 C425.66,207.89 438.06,201.54 445.64,199.59 C469.10,193.53 487.65,206.17 487.35,228.00 C487.05,250.32 468.33,270.39 438.77,280.07 L 432.04 282.27 L 439.77 290.49 C453.40,304.98 458.96,317.24 459.78,334.66 L 460.25 344.82 L 472.13 355.03 C478.66,360.64 484.00,365.58 484.00,366.00 C484.00,366.42 478.26,367.05 471.25,367.42 C452.39,368.39 451.40,368.61 449.01,372.48 C443.15,381.96 426.16,394.00 412.27,398.52 C407.69,400.01 407.17,400.44 408.04,402.07 C409.36,404.54 414.34,408.19 420.80,411.43 C426.76,414.42 428.04,416.39 425.60,418.82 C424.05,420.38 423.45,420.24 416.52,416.67 C409.81,413.22 404.23,408.35 401.48,403.56 C400.57,401.98 399.51,401.86 391.76,402.51 L 383.07 403.23 L 384.47 405.94 C385.76,408.43 389.62,412.13 396.71,417.68 C399.02,419.49 399.31,420.18 398.39,421.68 ZM 296.00 373.07 C303.21,377.42 305.17,377.66 315.50,375.50 C335.65,371.28 354.68,355.74 363.96,335.89 C371.14,320.56 373.48,299.70 369.67,285.00 C367.18,275.37 360.81,263.16 355.28,257.38 C350.18,252.07 347.42,251.03 338.25,251.01 L 334.00 251.00 L 334.00 255.57 C334.00,261.08 332.61,264.00 329.96,264.00 C328.21,264.00 328.00,263.29 328.00,257.36 L 328.00 250.71 L 321.04 251.36 C304.89,252.86 290.11,259.94 277.92,272.02 C269.78,280.09 264.29,289.43 261.49,300.00 C259.75,306.51 259.55,321.74 261.10,329.20 C264.42,345.27 277.83,362.11 296.00,373.07 ZM 391.04 281.40 C390.98,282.78 408.58,281.33 419.88,279.02 C441.08,274.70 455.80,267.93 467.07,257.30 C482.40,242.83 486.27,223.68 476.23,211.95 C471.30,206.20 466.20,204.05 457.41,204.02 C443.75,203.98 430.65,210.36 417.43,223.49 C407.57,233.28 402.15,240.90 395.80,253.88 C391.93,261.80 386.78,276.09 387.52,276.85 C387.71,277.04 392.10,273.94 397.27,269.97 L 406.68 262.73 L 408.47 253.12 C410.46,242.40 411.39,240.00 413.54,240.00 C415.39,240.00 415.39,243.59 413.54,251.33 L 413.51 251.43 C412.83,254.30 412.42,255.99 412.96,256.38 C413.74,256.95 416.45,254.85 423.06,249.76 L 423.21 249.64 L 431.65 243.12 L 433.96 231.81 C436.52,219.28 437.38,217.00 439.54,217.00 C441.45,217.00 441.38,218.84 439.10,229.30 C438.05,234.09 437.42,238.00 437.69,238.00 C437.96,238.00 444.27,233.27 451.71,227.50 C464.58,217.51 469.00,215.20 469.00,218.46 C469.00,219.26 462.46,225.00 454.48,231.21 C442.87,240.24 440.41,242.56 442.23,242.78 C443.48,242.94 448.77,243.39 454.00,243.78 C461.46,244.35 463.50,244.82 463.50,246.00 C463.50,247.27 461.16,247.50 448.47,247.50 L 433.43 247.50 L 415.50 261.50 L 421.00 261.74 C433.75,262.29 437.00,263.00 437.00,265.22 C437.00,267.25 436.72,267.28 423.50,266.59 L 410.00 265.89 L 400.54 273.20 C395.34,277.21 391.06,280.91 391.04,281.40 ZM 353.50 394.92 C367.27,397.88 369.46,397.68 377.01,392.82 C391.71,383.37 405.75,366.10 412.67,348.95 C419.26,332.65 421.35,309.48 417.66,293.69 L 415.84 285.88 L 410.17 286.47 C407.05,286.80 402.59,287.31 400.25,287.60 L 396.00 288.12 L 396.75 292.31 C397.16,294.62 397.45,301.45 397.39,307.50 C397.04,342.21 378.12,372.85 348.10,387.34 C347.71,387.53 347.34,387.71 346.98,387.88 C343.32,389.64 341.31,390.60 341.38,391.39 C341.47,392.42 345.18,393.13 353.50,394.92 ZM 384.62 256.29 C385.65,256.55 386.76,256.82 387.08,256.88 C387.40,256.95 388.75,254.64 390.08,251.76 C392.91,245.63 404.90,227.12 407.33,225.13 C408.63,224.06 409.00,222.03 409.00,215.93 C409.00,205.43 407.47,198.92 403.66,193.26 C399.30,186.75 394.17,184.04 386.21,184.02 C369.99,183.97 360.00,198.09 360.00,221.02 C360.00,229.59 363.30,246.60 365.36,248.63 C366.72,249.99 376.93,253.40 377.60,252.73 C377.86,252.48 378.69,246.92 379.46,240.38 L 380.84 228.50 L 374.28 218.19 C369.59,210.83 368.02,207.58 368.79,206.81 C370.63,204.97 372.52,206.57 376.58,213.39 C378.74,217.01 380.76,219.97 381.07,219.98 C381.39,219.99 382.24,214.34 382.97,207.41 C383.92,198.38 384.69,194.67 385.71,194.28 C388.79,193.10 389.00,195.68 387.13,211.56 C386.09,220.33 385.40,227.67 385.58,227.88 C385.77,228.08 388.23,225.72 391.06,222.63 C396.33,216.86 398.60,215.79 399.67,218.59 C400.09,219.68 397.76,222.72 392.20,228.34 L 384.12 236.50 L 383.43 246.15 C382.79,255.08 382.88,255.84 384.62,256.29 ZM 414.00 390.42 C414.00,393.15 428.71,384.91 436.36,377.90 C455.87,360.03 459.86,335.69 447.30,311.09 C442.76,302.19 440.09,299.39 440.83,304.29 C441.02,305.51 441.23,312.58 441.32,320.00 C441.59,344.36 434.59,364.83 419.90,382.67 C416.66,386.61 414.00,390.10 414.00,390.42 ZM 309.45 332.89 C304.39,334.30 302.41,334.23 297.50,332.50 C292.62,330.77 287.00,324.93 287.00,321.57 C287.00,317.39 289.08,317.47 292.67,321.79 C298.59,328.91 306.82,329.73 313.52,323.84 C317.10,320.71 320.00,320.59 320.00,323.57 C320.00,326.18 313.76,331.70 309.45,332.89 ZM 336.55 309.55 C335.00,311.09 332.95,312.00 331.00,312.00 C325.23,312.00 321.35,305.45 323.62,299.54 C324.38,297.58 329.12,295.00 332.00,295.00 C335.39,295.00 339.00,299.38 339.00,303.50 C339.00,305.98 338.24,307.85 336.55,309.55 ZM 289.55 304.55 C286.10,307.99 280.86,307.90 278.07,304.37 C271.73,296.30 282.32,286.22 289.55,293.45 C291.09,295.00 292.00,297.05 292.00,299.00 C292.00,300.95 291.09,303.00 289.55,304.55 Z" fill="rgb(49,48,43)"/>
<path d="M 296.00 373.07 C277.83,362.11 264.42,345.27 261.10,329.20 C259.55,321.74 259.75,306.51 261.49,300.00 C264.29,289.43 269.78,280.09 277.92,272.02 C290.11,259.94 304.89,252.86 321.04,251.36 L 328.00 250.71 L 328.00 257.36 C328.00,263.29 328.21,264.00 329.96,264.00 C332.61,264.00 334.00,261.08 334.00,255.57 L 334.00 251.00 L 338.25 251.01 C347.42,251.03 350.18,252.07 355.28,257.38 C360.81,263.16 367.18,275.37 369.67,285.00 C373.48,299.70 371.14,320.56 363.96,335.89 C354.68,355.74 335.65,371.28 315.50,375.50 C305.17,377.66 303.21,377.42 296.00,373.07 ZM 587.79 493.47 C567.80,497.44 540.42,493.26 532.55,485.05 C530.04,482.43 529.79,481.58 530.26,477.34 C530.63,474.07 531.50,472.02 533.03,470.78 C537.07,467.51 539.76,467.55 549.88,471.03 C558.26,473.91 560.85,474.34 570.00,474.41 C579.11,474.48 581.50,474.13 588.00,471.74 C603.62,465.99 612.02,455.63 611.98,442.16 C611.94,431.16 606.48,422.84 597.12,419.54 C592.69,417.98 579.47,417.61 573.50,418.87 C570.72,419.46 570.48,419.87 570.19,424.39 C570.02,427.07 570.39,433.14 571.01,437.88 C573.26,455.19 573.37,458.78 571.71,461.32 C568.02,466.95 559.07,467.25 554.56,461.89 C551.91,458.73 551.80,458.43 549.91,448.50 C547.12,433.81 547.84,384.84 551.03,372.93 C552.94,365.77 560.53,362.15 566.82,365.40 C571.85,368.01 572.27,369.74 571.48,384.61 C571.44,385.33 571.40,386.02 571.36,386.67 C570.97,393.74 570.80,396.83 572.10,397.67 C573.11,398.33 575.01,397.61 578.40,396.33 C578.80,396.18 579.22,396.02 579.66,395.85 C590.23,391.90 599.97,379.98 599.99,370.96 C600.01,365.22 596.18,358.94 590.58,355.51 C585.92,352.66 585.09,352.50 575.03,352.50 C564.76,352.50 564.13,352.63 556.84,356.24 C550.58,359.33 548.34,361.15 543.86,366.74 C538.66,373.23 538.25,373.51 533.63,373.81 C525.18,374.35 520.55,368.77 522.91,360.89 C524.81,354.57 536.42,343.02 545.28,338.65 C574.21,324.36 608.15,331.59 618.62,354.27 C621.12,359.67 621.50,361.69 621.50,369.50 C621.50,380.53 619.53,386.42 612.91,395.22 L 608.21 401.47 L 613.35 404.28 C623.54,409.84 630.41,418.82 633.47,430.53 C640.78,458.61 620.13,487.06 587.79,493.47 ZM 759.26 464.06 C748.23,466.88 737.94,466.65 731.00,463.42 C727.98,462.01 724.67,460.11 723.65,459.18 C720.08,455.96 717.13,448.40 715.92,439.39 C714.40,428.01 715.30,394.93 717.47,382.05 C719.65,369.19 721.93,365.28 729.50,361.50 C735.12,358.69 736.20,358.50 746.50,358.57 C752.55,358.61 760.87,359.23 764.98,359.95 C771.17,361.03 773.02,361.82 775.73,364.53 C779.56,368.36 779.94,371.94 777.03,376.72 C774.43,380.98 771.47,381.58 760.01,380.16 C747.80,378.65 742.51,378.68 741.18,380.28 C739.95,381.76 738.02,392.72 738.01,398.25 C738.01,398.47 738.01,398.67 738.00,398.86 C737.99,400.05 737.98,400.83 738.36,401.29 C739.09,402.17 741.22,401.90 747.44,401.09 C747.97,401.03 748.53,400.95 749.12,400.88 C759.11,399.60 762.17,400.08 765.59,403.50 C768.48,406.39 768.85,412.34 766.37,415.88 C764.34,418.78 759.19,421.00 754.47,421.00 C752.50,421.00 747.71,421.52 743.83,422.17 L 736.77 423.33 L 737.47 431.29 C738.60,444.36 739.86,445.61 751.03,444.80 C755.37,444.49 758.89,443.38 764.04,440.69 C771.87,436.60 773.75,436.30 778.02,438.51 C781.63,440.38 783.00,442.82 783.00,447.40 C783.00,454.57 775.35,459.95 759.26,464.06 ZM 684.03 464.58 C663.93,468.84 650.55,463.68 644.89,449.50 C642.57,443.67 642.50,442.74 642.56,416.00 C642.62,387.11 643.70,377.34 647.72,369.15 C651.99,360.47 663.49,357.05 682.01,358.95 C700.36,360.84 705.00,363.27 705.00,371.02 C705.00,376.18 703.74,378.57 700.00,380.50 C697.38,381.86 696.07,381.86 687.78,380.51 C676.92,378.75 668.39,378.56 667.46,380.06 C666.51,381.61 664.50,400.83 665.22,401.55 C665.55,401.89 670.10,401.60 675.32,400.92 C686.00,399.52 689.51,400.29 693.03,404.77 C698.64,411.89 692.15,421.00 681.47,421.00 C679.50,421.00 674.70,421.53 670.81,422.17 L 663.74 423.34 L 664.27 431.07 C664.56,435.32 665.42,440.09 666.17,441.65 C667.51,444.43 667.73,444.50 675.59,444.50 C682.95,444.50 684.25,444.18 690.79,440.75 C698.70,436.60 700.72,436.29 705.02,438.51 C708.70,440.41 710.00,442.83 710.00,447.74 C710.00,450.80 709.31,452.27 706.72,454.78 C702.92,458.47 693.34,462.61 684.03,464.58 ZM 353.50 394.92 C345.18,393.13 341.47,392.42 341.38,391.39 C341.31,390.60 343.32,389.64 346.98,387.88 C347.34,387.71 347.71,387.53 348.10,387.34 C378.12,372.85 397.04,342.21 397.39,307.50 C397.45,301.45 397.16,294.62 396.75,292.31 L 396.00 288.12 L 400.25 287.60 C402.59,287.31 407.05,286.80 410.17,286.47 L 415.84 285.88 L 417.66 293.69 C421.35,309.48 419.26,332.65 412.67,348.95 C405.75,366.10 391.71,383.37 377.01,392.82 C369.46,397.68 367.27,397.88 353.50,394.92 ZM 1139.79 450.49 C1136.88,454.33 1133.77,457.62 1132.87,457.79 C1129.40,458.45 1115.36,437.46 1112.34,427.08 C1109.38,416.93 1113.77,406.71 1123.12,401.94 C1130.71,398.07 1142.06,400.02 1147.63,406.15 C1156.84,416.29 1154.15,431.51 1139.79,450.49 ZM 670.00 335.69 C651.47,343.95 650.00,344.51 650.00,343.40 C650.00,343.08 653.48,334.46 657.74,324.27 C662.95,311.80 666.23,305.24 667.74,304.25 C672.17,301.35 704.51,287.02 704.78,287.84 C704.93,288.30 701.33,297.40 696.78,308.06 L 688.50 327.44 ZM 414.00 390.42 C414.00,390.10 416.66,386.61 419.90,382.67 C434.59,364.83 441.59,344.36 441.32,320.00 C441.23,312.58 441.02,305.51 440.83,304.29 C440.09,299.39 442.76,302.19 447.30,311.09 C459.86,335.69 455.87,360.03 436.36,377.90 C428.71,384.91 414.00,393.15 414.00,390.42 ZM 1127.78 428.44 C1131.24,430.32 1133.41,430.36 1136.85,428.57 C1142.30,425.76 1143.50,418.94 1139.41,414.08 C1137.26,411.51 1136.10,411.00 1132.50,411.00 C1128.90,411.00 1127.74,411.51 1125.59,414.08 C1121.38,419.08 1122.35,425.50 1127.78,428.44 ZM 309.45 332.89 C313.76,331.70 320.00,326.18 320.00,323.57 C320.00,320.59 317.10,320.71 313.52,323.84 C306.82,329.73 298.59,328.91 292.67,321.79 C289.08,317.47 287.00,317.39 287.00,321.57 C287.00,324.93 292.62,330.77 297.50,332.50 C302.41,334.23 304.39,334.30 309.45,332.89 ZM 336.55 309.55 C338.24,307.85 339.00,305.98 339.00,303.50 C339.00,299.38 335.39,295.00 332.00,295.00 C329.12,295.00 324.38,297.58 323.62,299.54 C321.35,305.45 325.23,312.00 331.00,312.00 C332.95,312.00 335.00,311.09 336.55,309.55 ZM 289.55 304.55 C291.09,303.00 292.00,300.95 292.00,299.00 C292.00,297.05 291.09,295.00 289.55,293.45 C282.32,286.22 271.73,296.30 278.07,304.37 C280.86,307.90 286.10,307.99 289.55,304.55 ZM 504.01 481.75 C500.15,488.08 495.06,484.77 498.58,478.22 C500.42,474.80 500.43,474.67 498.62,473.60 C494.24,471.00 492.68,469.27 493.30,467.66 C494.15,465.44 497.23,465.57 502.04,468.02 C505.71,469.89 506.00,470.35 506.00,474.27 C505.99,476.72 505.16,479.87 504.01,481.75 ZM 673.65 320.17 C677.27,324.16 683.00,321.37 683.00,315.63 C683.00,311.58 681.46,310.00 677.50,310.00 C675.79,310.00 673.86,310.54 673.20,311.20 C671.47,312.93 671.73,318.04 673.65,320.17 ZM 881.90 502.42 C876.95,504.40 874.10,504.43 873.36,502.50 C872.32,499.78 873.79,498.23 879.09,496.47 C884.06,494.82 884.39,494.82 885.60,496.46 C887.42,498.96 886.39,500.63 881.90,502.42 ZM 523.02 480.48 C521.45,482.37 519.49,482.35 515.03,480.42 C510.35,478.39 509.26,476.71 510.92,474.09 C511.67,472.91 512.54,472.89 516.36,473.96 C522.05,475.55 524.84,478.29 523.02,480.48 ZM 1125.39 483.95 C1121.66,488.38 1119.49,489.35 1117.57,487.43 C1115.67,485.52 1116.43,483.85 1121.38,479.09 C1124.36,476.23 1125.16,475.89 1126.46,476.97 C1128.63,478.77 1128.39,480.39 1125.39,483.95 ZM 1024.00 482.69 C1024.00,483.84 1023.35,485.03 1022.57,485.34 C1021.10,485.90 1014.17,481.01 1012.67,478.36 C1011.66,476.57 1013.57,474.00 1015.93,474.00 C1018.28,474.00 1024.00,480.16 1024.00,482.69 ZM 449.90 531.42 C444.95,533.40 442.10,533.43 441.36,531.50 C440.33,528.82 441.67,527.49 447.11,525.75 C451.51,524.34 452.70,524.27 453.77,525.34 C455.76,527.33 454.27,529.67 449.90,531.42 ZM 1076.31 501.89 C1074.74,504.40 1066.22,504.18 1064.06,501.57 C1061.67,498.70 1063.93,497.00 1070.14,497.00 C1076.45,497.00 1078.40,498.54 1076.31,501.89 ZM 410.10 461.45 C409.73,461.64 409.38,461.81 409.06,461.98 C405.96,463.55 405.02,464.03 404.35,463.78 C403.98,463.65 403.70,463.30 403.20,462.80 C401.15,460.75 401.85,459.13 405.92,456.43 C410.55,453.37 414.36,453.48 414.81,456.70 C415.06,458.47 414.13,459.41 410.10,461.45 ZM 396.45 472.48 C393.29,476.61 391.51,477.36 389.53,475.39 C387.39,473.25 387.53,472.79 391.75,468.05 C394.48,465.00 395.98,464.04 397.25,464.53 C399.73,465.50 399.42,468.58 396.45,472.48 ZM 1094.98 500.40 C1092.86,502.46 1084.83,503.47 1083.25,501.87 C1080.19,498.76 1082.78,496.41 1089.88,495.84 C1093.18,495.58 1094.51,495.92 1095.35,497.23 C1096.21,498.56 1096.12,499.30 1094.98,500.40 ZM 588.39 292.77 C587.80,293.72 585.52,295.50 583.33,296.73 C579.80,298.71 579.11,298.80 577.42,297.54 C574.86,295.64 576.30,293.27 581.93,290.13 C585.87,287.92 586.30,287.87 587.82,289.39 C589.08,290.65 589.21,291.45 588.39,292.77 ZM 930.85 471.99 C926.20,475.36 923.52,475.80 922.58,473.34 C921.30,470.01 930.02,463.32 933.28,465.14 C936.04,466.68 935.30,468.77 930.85,471.99 ZM 416.50 531.01 C416.50,533.99 414.16,534.49 409.07,532.63 C405.07,531.16 403.40,529.00 404.36,526.51 C404.88,525.15 405.73,524.90 408.12,525.37 C413.76,526.50 416.50,528.34 416.50,531.01 ZM 1108.87 496.57 C1105.92,498.09 1102.76,498.43 1101.67,497.33 C1099.89,495.56 1101.28,492.90 1104.96,491.02 C1109.75,488.58 1112.57,488.45 1113.41,490.63 C1114.16,492.59 1112.60,494.64 1108.87,496.57 ZM 451.81 452.31 C451.54,454.23 450.79,454.54 445.81,454.80 C440.88,455.06 439.97,454.82 438.99,452.98 C438.14,451.40 438.16,450.52 439.05,449.44 C440.47,447.73 443.12,447.63 448.31,449.07 C451.41,449.93 452.06,450.53 451.81,452.31 ZM 829.85 509.57 C829.32,512.35 820.13,512.90 817.77,510.29 C815.14,507.39 817.22,505.00 822.36,505.00 C827.35,505.00 830.37,506.84 829.85,509.57 ZM 389.35 509.53 C388.65,511.34 385.62,511.45 384.17,509.71 C383.59,509.00 382.68,506.51 382.15,504.18 C381.11,499.56 382.66,496.55 385.52,497.65 C387.24,498.31 390.17,507.40 389.35,509.53 ZM 810.89 507.63 C809.54,509.26 807.87,509.26 802.50,507.64 C799.24,506.66 798.50,505.98 798.50,503.97 C798.50,501.79 798.91,501.51 802.08,501.60 C809.84,501.81 813.59,504.38 810.89,507.63 ZM 605.19 287.90 C604.12,288.47 601.40,289.23 599.14,289.59 C594.83,290.28 593.09,288.82 594.34,285.55 C594.95,283.98 602.12,281.69 604.83,282.20 C607.27,282.67 607.52,286.65 605.19,287.90 ZM 644.82 290.23 C644.14,295.05 632.50,292.01 632.50,287.00 C632.50,283.70 634.82,283.38 640.53,285.91 C644.31,287.58 645.09,288.36 644.82,290.23 ZM 864.75 507.83 C858.48,509.72 856.96,509.82 855.52,508.38 C853.32,506.18 854.77,504.13 859.35,502.96 C861.63,502.38 864.01,501.73 864.63,501.53 C866.15,501.03 868.00,503.00 868.00,505.12 C868.00,506.20 866.78,507.21 864.75,507.83 ZM 898.78 493.99 C894.83,496.40 891.43,496.58 890.60,494.41 C889.77,492.23 890.30,491.60 895.61,488.49 C899.74,486.07 900.37,485.95 901.75,487.32 C903.77,489.34 902.79,491.55 898.78,493.99 ZM 466.50 523.17 C464.30,524.69 462.27,525.91 462.00,525.89 C460.11,525.71 459.00,524.53 459.00,522.67 C459.00,520.08 467.17,514.47 469.59,515.39 C472.25,516.42 470.73,520.26 466.50,523.17 ZM 1039.81 492.30 C1039.39,495.24 1035.39,495.63 1031.58,493.08 C1027.53,490.38 1026.65,488.49 1028.55,486.59 C1029.97,485.17 1030.58,485.26 1035.12,487.56 C1039.13,489.59 1040.06,490.54 1039.81,492.30 ZM 847.96 510.55 C846.29,512.56 837.65,512.49 835.96,510.45 C833.83,507.88 836.90,505.82 843.11,505.65 C847.50,505.53 848.50,505.81 848.80,507.30 C849.00,508.29 848.62,509.75 847.96,510.55 ZM 570.44 307.93 C566.91,311.84 565.09,312.76 563.67,311.33 C560.85,308.52 568.37,298.48 571.72,300.60 C574.51,302.35 574.27,303.69 570.44,307.93 ZM 625.81 284.78 C625.54,287.12 625.01,287.52 622.00,287.67 C616.26,287.96 613.50,286.75 613.50,283.95 C613.50,281.82 614.01,281.46 617.40,281.18 C623.88,280.65 626.18,281.63 625.81,284.78 ZM 1057.50 498.03 C1057.50,500.14 1056.98,500.54 1054.00,500.76 C1049.52,501.09 1045.59,499.07 1045.18,496.22 C1044.74,493.17 1046.92,492.58 1052.68,494.20 C1056.77,495.36 1057.50,495.94 1057.50,498.03 ZM 399.83 522.64 C399.26,525.66 395.63,525.39 392.08,522.08 C388.42,518.65 388.13,514.70 391.52,514.21 C394.13,513.84 400.32,520.11 399.83,522.64 ZM 469.50 457.03 C469.50,459.98 467.15,460.49 462.07,458.63 C457.55,456.97 456.00,454.57 458.10,452.47 C459.52,451.06 460.12,451.08 464.58,452.74 C468.65,454.25 469.50,454.99 469.50,457.03 ZM 945.72 461.42 L 945.28 461.68 C942.30,463.43 941.35,463.98 940.54,463.83 C940.13,463.76 939.75,463.49 939.15,463.11 C937.00,461.75 938.23,458.76 941.97,456.24 C946.10,453.46 949.38,453.64 949.81,456.67 C950.05,458.33 949.08,459.45 945.72,461.42 ZM 1010.80 468.88 C1010.41,472.26 1007.96,472.66 1005.33,469.78 C1000.77,464.78 1000.13,460.00 1004.02,460.00 C1006.74,460.00 1011.16,465.79 1010.80,468.88 ZM 430.00 455.11 C425.23,456.43 419.97,456.09 419.33,454.42 C418.29,451.70 421.40,449.80 427.14,449.65 C432.20,449.51 432.50,449.64 432.50,451.95 C432.50,453.72 431.80,454.60 430.00,455.11 ZM 775.80 491.41 C775.37,494.44 772.09,494.46 767.69,491.45 C764.93,489.57 763.97,488.25 764.19,486.68 C764.64,483.53 767.30,483.51 771.98,486.60 C774.95,488.57 776.01,489.91 775.80,491.41 ZM 493.95 497.40 C490.90,500.88 489.07,501.73 487.67,500.33 C485.37,498.03 491.02,488.72 494.42,489.20 C497.73,489.68 497.52,493.34 493.95,497.40 ZM 514.96 450.55 C511.84,454.31 508.88,451.12 509.97,445.17 C510.89,440.15 512.05,438.66 514.64,439.19 C516.17,439.50 516.47,440.42 516.33,444.33 C516.24,446.95 515.63,449.75 514.96,450.55 ZM 435.50 532.00 C435.50,534.37 435.17,534.52 429.24,534.80 C422.70,535.11 421.00,534.04 422.38,530.45 C422.85,529.24 424.32,528.97 429.24,529.20 C435.17,529.48 435.50,529.63 435.50,532.00 ZM 792.81 500.30 C792.38,503.33 789.33,503.48 784.50,500.72 C776.66,496.24 780.84,491.84 788.99,495.99 C792.20,497.63 793.06,498.59 792.81,500.30 ZM 499.39 382.43 C498.42,384.95 495.64,384.26 492.10,380.61 C488.59,376.98 488.27,373.77 491.35,373.17 C494.61,372.54 500.55,379.39 499.39,382.43 ZM 487.50 464.01 C487.50,467.37 484.59,467.63 479.50,464.72 C471.94,460.40 475.63,455.93 483.65,459.70 C486.60,461.09 487.50,462.10 487.50,464.01 ZM 915.10 483.72 C911.18,486.36 908.19,486.65 907.36,484.49 C906.64,482.61 908.21,480.65 912.64,477.91 C919.26,473.82 921.61,479.34 915.10,483.72 ZM 516.88 431.75 C515.92,434.34 512.51,434.77 511.61,432.42 C509.57,427.12 511.98,420.01 515.37,421.31 C517.06,421.96 518.02,428.64 516.88,431.75 ZM 760.79 480.47 C760.34,483.62 757.52,483.40 753.55,479.91 C749.61,476.45 749.05,472.80 752.36,472.17 C754.89,471.68 761.16,477.87 760.79,480.47 ZM 481.21 511.30 C479.12,513.33 477.21,514.96 476.96,514.92 C475.07,514.60 474.00,513.58 474.00,512.12 C474.00,509.60 481.51,502.60 483.43,503.33 C486.05,504.34 485.20,507.40 481.21,511.30 ZM 388.63 487.00 C387.65,490.30 386.72,491.59 385.14,491.82 C382.52,492.21 381.54,490.07 382.39,485.81 C383.17,481.88 384.71,480.00 387.15,480.00 C389.82,480.00 390.19,481.78 388.63,487.00 ZM 514.80 411.41 C514.60,414.18 513.99,415.58 512.91,415.78 C510.57,416.23 509.08,413.90 508.37,408.67 C507.84,404.79 508.02,403.93 509.52,403.35 C512.38,402.26 515.16,406.50 514.80,411.41 ZM 508.77 395.99 C508.33,400.08 505.41,399.62 502.49,394.99 C499.49,390.23 499.57,387.64 502.73,387.18 C505.45,386.80 509.18,392.23 508.77,395.99 ZM 510.58 466.52 C507.05,471.91 503.76,468.31 506.08,461.60 C507.23,458.27 507.97,457.50 510.00,457.50 C512.19,457.50 512.48,457.91 512.35,460.77 C512.27,462.57 511.47,465.16 510.58,466.52 ZM 560.53 322.93 C558.79,326.31 555.35,327.08 554.30,324.34 C553.35,321.87 557.10,315.50 559.50,315.50 C562.13,315.50 562.60,318.93 560.53,322.93 ZM 656.07 298.42 C654.43,300.39 652.61,300.44 651.04,298.55 C649.16,296.28 650.18,293.50 652.90,293.50 C656.06,293.50 657.85,296.28 656.07,298.42 ZM 1132.89 470.63 C1131.39,472.44 1129.08,472.38 1128.36,470.50 C1127.48,468.21 1128.71,466.00 1130.86,466.00 C1133.23,466.00 1134.44,468.76 1132.89,470.63 Z" fill="rgb(233,151,40)"/>
<path d="M 0.00 378.00 L 0.00 0.00 L 693.50 0.00 L 1387.00 0.00 L 1387.00 378.00 L 1387.00 756.00 L 693.50 756.00 L 0.00 756.00 L 0.00 378.00 ZM 566.78 542.30 L 567.06 530.11 L 571.78 529.80 C575.73,529.55 576.50,529.17 576.50,527.50 C576.50,525.61 575.83,525.50 564.00,525.50 C552.17,525.50 551.50,525.61 551.50,527.50 C551.50,529.18 552.27,529.55 556.25,529.80 L 561.00 530.11 L 561.00 541.89 C561.00,548.37 561.32,553.99 561.71,554.38 C562.10,554.77 563.34,554.95 564.46,554.79 C566.37,554.52 566.52,553.71 566.78,542.30 ZM 601.60 550.73 C607.34,544.48 607.35,535.53 601.63,529.29 C598.93,526.35 597.51,525.66 593.35,525.26 C583.90,524.35 578.01,529.93 578.00,539.80 C578.00,550.00 583.41,555.41 592.91,554.71 C597.60,554.36 598.77,553.83 601.60,550.73 ZM 630.02 553.49 C634.29,551.28 635.17,548.83 635.75,537.58 C636.18,529.05 636.01,527.25 634.64,526.12 C633.75,525.38 632.34,525.04 631.51,525.36 C630.30,525.82 630.00,527.91 630.00,535.75 C630.00,547.66 628.86,550.00 623.07,550.00 C617.43,550.00 616.58,548.33 616.00,536.10 C615.54,526.33 615.34,525.50 613.50,525.50 C611.65,525.50 611.48,526.26 611.21,535.95 C610.89,547.62 611.88,551.32 615.89,553.50 C619.34,555.38 626.38,555.37 630.02,553.49 ZM 646.80 548.75 C647.09,543.19 647.19,543.00 649.89,543.00 C653.09,543.00 654.88,544.73 657.90,550.75 C660.09,555.09 663.48,556.53 664.60,553.60 C665.16,552.15 661.76,544.58 660.08,543.55 C659.56,543.23 660.23,541.87 661.56,540.53 C663.33,538.76 664.00,536.99 664.00,534.12 C664.00,529.87 662.31,527.45 658.28,525.92 C654.78,524.59 643.62,524.78 642.20,526.20 C640.93,527.47 640.44,550.39 641.63,553.47 C642.00,554.44 643.13,554.98 644.38,554.80 C646.22,554.54 646.54,553.73 646.80,548.75 ZM 703.48 554.01 C705.99,553.06 706.08,552.74 705.80,546.26 L 705.50 539.50 L 700.17 539.19 C695.48,538.93 694.87,539.11 695.17,540.69 C695.39,541.81 696.57,542.62 698.26,542.82 C700.65,543.09 701.00,543.57 701.00,546.57 C701.00,549.96 700.95,550.00 696.56,550.00 C689.84,550.00 686.50,546.73 686.50,540.17 C686.50,536.20 687.02,534.61 689.00,532.50 C691.52,529.82 693.78,529.60 702.50,531.14 C705.48,531.67 705.09,527.86 702.00,526.29 C696.11,523.31 686.69,525.71 682.65,531.21 C680.04,534.78 679.89,544.65 682.39,548.47 C686.18,554.26 696.02,556.84 703.48,554.01 ZM 732.23 552.08 L 735.50 549.17 L 735.84 537.59 C736.12,527.69 735.94,525.91 734.57,525.39 C731.07,524.05 730.00,526.78 730.00,537.05 C730.00,548.14 729.08,550.00 723.58,550.00 C718.16,550.00 717.11,547.84 716.79,535.96 C716.50,525.55 716.49,525.50 714.00,525.50 L 711.50 525.50 L 711.50 536.55 C711.50,551.80 713.57,554.79 724.23,554.94 C728.10,554.99 729.57,554.47 732.23,552.08 ZM 746.50 539.99 C746.50,526.17 746.41,525.50 744.50,525.50 C742.61,525.50 742.48,526.26 742.22,538.95 C741.91,553.73 742.16,555.31 744.75,554.81 C746.32,554.51 746.50,553.00 746.50,539.99 ZM 756.93 551.25 C758.36,548.01 758.38,548.00 765.73,548.00 L 773.10 548.00 L 774.56 551.50 C776.19,555.39 780.00,556.51 780.00,553.11 C780.00,550.17 768.28,526.05 766.53,525.37 C765.67,525.04 764.37,525.28 763.62,525.90 C761.66,527.53 750.80,552.88 751.55,554.09 C752.73,555.98 755.49,554.52 756.93,551.25 ZM 802.68 553.06 C807.82,550.72 810.00,546.84 810.00,540.00 C810.00,530.12 805.54,526.06 793.77,525.22 C784.07,524.52 784.00,524.63 784.00,539.92 C784.00,548.45 784.39,552.99 785.20,553.80 C787.09,555.69 797.89,555.23 802.68,553.06 ZM 836.53 552.98 C842.57,549.25 844.72,539.30 841.05,532.10 C836.50,523.18 822.24,522.64 817.03,531.19 C814.55,535.24 814.31,543.77 816.55,548.09 C819.94,554.66 829.88,557.09 836.53,552.98 ZM 877.03 553.31 C880.39,551.01 880.97,550.00 880.98,546.42 C881.00,542.36 877.63,539.28 872.18,538.41 C862.94,536.93 861.18,530.84 869.81,530.19 C872.07,530.03 874.73,530.30 875.71,530.81 C877.93,531.95 880.00,531.29 880.00,529.44 C880.00,527.31 874.61,525.00 869.63,525.00 C863.33,525.00 859.00,528.67 859.00,534.02 C859.00,538.59 861.93,541.41 867.74,542.44 C873.63,543.48 874.77,543.96 875.42,545.66 C876.93,549.60 870.16,551.35 863.04,548.86 C857.40,546.90 856.85,551.77 862.47,554.05 C866.12,555.53 874.40,555.11 877.03,553.31 ZM 905.50 552.50 C905.50,550.71 904.74,550.47 898.25,550.21 L 891.00 549.91 L 891.00 545.96 L 891.00 542.00 L 897.50 542.00 C903.33,542.00 904.00,541.79 904.00,540.00 C904.00,538.21 903.33,538.00 897.50,538.00 L 891.00 538.00 L 891.00 534.00 L 891.00 530.00 L 897.38 530.00 C901.55,530.00 904.15,529.53 904.89,528.63 C907.05,526.03 903.74,524.90 894.85,525.21 L 886.50 525.50 L 886.22 538.95 C886.07,546.35 886.17,553.00 886.45,553.74 C886.84,554.75 889.21,555.01 896.23,554.79 C904.74,554.52 905.50,554.34 905.50,552.50 ZM 915.57 552.59 C915.90,551.27 916.02,546.99 915.84,543.09 C915.65,539.19 915.58,536.00 915.68,536.00 C915.78,536.00 917.72,539.38 920.00,543.50 C922.28,547.62 924.75,551.00 925.50,551.00 C926.25,551.00 928.58,547.81 930.68,543.91 L 934.50 536.82 L 934.75 543.66 C935.10,552.94 935.67,555.00 937.91,555.00 C940.64,555.00 941.00,553.19 941.00,539.54 C941.00,529.96 940.68,526.98 939.53,526.03 C938.73,525.36 937.52,524.99 936.86,525.21 C936.20,525.43 933.31,529.81 930.44,534.93 L 925.22 544.24 L 920.46 535.03 C915.52,525.47 913.99,523.93 911.49,526.01 C910.31,526.99 910.00,529.98 910.00,540.46 C910.00,547.72 910.30,553.97 910.67,554.33 C912.21,555.87 914.99,554.88 915.57,552.59 ZM 978.00 553.71 C979.38,553.02 980.65,551.39 980.84,550.09 C981.14,547.96 980.90,547.80 978.34,548.45 C970.49,550.42 968.19,550.28 965.55,547.65 C961.89,543.98 961.89,536.02 965.55,532.36 C968.12,529.79 969.80,529.64 978.50,531.15 C979.94,531.40 980.50,530.95 980.50,529.53 C980.50,525.40 971.25,523.62 964.49,526.44 C954.46,530.63 954.31,549.19 964.27,553.52 C968.31,555.27 974.72,555.36 978.00,553.71 ZM 1005.70 553.04 C1010.53,550.09 1012.31,546.67 1012.40,540.12 C1012.49,533.53 1010.69,530.00 1005.70,526.96 C998.86,522.79 989.45,525.65 985.75,533.02 C979.15,546.16 993.45,560.51 1005.70,553.04 ZM 1034.06 554.00 C1036.01,553.46 1038.91,551.66 1040.49,550.01 C1044.36,545.97 1045.16,537.17 1042.10,532.30 C1038.70,526.89 1035.67,525.57 1026.59,525.53 L 1018.50 525.50 L 1018.22 538.95 C1018.07,546.35 1018.16,552.98 1018.44,553.70 C1019.04,555.28 1028.79,555.46 1034.06,554.00 ZM 1054.79 542.00 C1055.14,526.92 1054.74,524.75 1051.71,525.19 C1049.57,525.49 1049.49,525.93 1049.22,538.95 C1049.07,546.35 1049.18,553.02 1049.47,553.77 C1049.75,554.52 1051.01,555.00 1052.25,554.82 C1054.43,554.51 1054.51,554.11 1054.79,542.00 ZM 1083.78 553.44 C1085.48,552.25 1086.00,550.90 1085.99,547.69 C1085.96,539.61 1085.40,538.87 1079.62,539.20 C1075.87,539.42 1074.50,539.90 1074.50,541.00 C1074.50,541.97 1075.68,542.61 1077.81,542.82 C1080.87,543.11 1081.09,543.37 1080.81,546.32 C1080.51,549.35 1080.28,549.51 1075.76,549.80 C1071.75,550.06 1070.61,549.70 1068.39,547.48 C1066.03,545.12 1065.81,544.29 1066.23,539.26 C1066.96,530.47 1070.10,528.90 1082.46,531.14 C1085.78,531.75 1085.52,528.32 1082.11,526.56 C1078.00,524.43 1071.70,524.60 1067.09,526.96 C1057.86,531.66 1057.88,548.74 1067.12,553.29 C1071.47,555.43 1080.81,555.52 1083.78,553.44 ZM 1111.70 553.04 C1116.60,550.05 1118.47,546.46 1118.47,540.00 C1118.47,531.01 1112.88,525.01 1104.50,525.01 C1096.12,525.01 1090.53,531.01 1090.53,540.00 C1090.53,548.99 1096.12,554.99 1104.50,554.99 C1106.70,554.99 1109.93,554.12 1111.70,553.04 ZM 435.50 532.00 C435.50,529.63 435.17,529.48 429.24,529.20 C424.32,528.97 422.85,529.24 422.38,530.45 C421.00,534.04 422.70,535.11 429.24,534.80 C435.17,534.52 435.50,534.37 435.50,532.00 ZM 416.50 531.01 C416.50,528.34 413.76,526.50 408.12,525.37 C405.73,524.90 404.88,525.15 404.36,526.51 C403.40,529.00 405.07,531.16 409.07,532.63 C414.16,534.49 416.50,533.99 416.50,531.01 ZM 449.90 531.42 C454.27,529.67 455.76,527.33 453.77,525.34 C452.70,524.27 451.51,524.34 447.11,525.75 C441.67,527.49 440.33,528.82 441.36,531.50 C442.10,533.43 444.95,533.40 449.90,531.42 ZM 466.50 523.17 C470.73,520.26 472.25,516.42 469.59,515.39 C467.17,514.47 459.00,520.08 459.00,522.67 C459.00,524.53 460.11,525.71 462.00,525.89 C462.27,525.91 464.30,524.69 466.50,523.17 ZM 399.83 522.64 C400.32,520.11 394.13,513.84 391.52,514.21 C388.13,514.70 388.42,518.65 392.08,522.08 C395.63,525.39 399.26,525.66 399.83,522.64 ZM 1002.42 520.08 C1005.20,517.18 1005.21,515.00 1002.43,515.00 C1001.10,515.00 997.01,520.46 997.00,522.25 C997.00,523.94 999.80,522.82 1002.42,520.08 ZM 481.21 511.30 C485.20,507.40 486.05,504.34 483.43,503.33 C481.51,502.60 474.00,509.60 474.00,512.12 C474.00,513.58 475.07,514.60 476.96,514.92 C477.21,514.96 479.12,513.33 481.21,511.30 ZM 829.85 509.57 C830.37,506.84 827.35,505.00 822.36,505.00 C817.22,505.00 815.14,507.39 817.77,510.29 C820.13,512.90 829.32,512.35 829.85,509.57 ZM 847.96 510.55 C848.62,509.75 849.00,508.29 848.80,507.30 C848.50,505.81 847.50,505.53 843.11,505.65 C836.90,505.82 833.83,507.88 835.96,510.45 C837.65,512.49 846.29,512.56 847.96,510.55 ZM 389.35 509.53 C390.17,507.40 387.24,498.31 385.52,497.65 C382.66,496.55 381.11,499.56 382.15,504.18 C382.68,506.51 383.59,509.00 384.17,509.71 C385.62,511.45 388.65,511.34 389.35,509.53 ZM 864.75 507.83 C866.78,507.21 868.00,506.20 868.00,505.12 C868.00,503.00 866.15,501.03 864.63,501.53 C864.01,501.73 861.63,502.38 859.35,502.96 C854.77,504.13 853.32,506.18 855.52,508.38 C856.96,509.82 858.48,509.72 864.75,507.83 ZM 810.89 507.63 C813.59,504.38 809.84,501.81 802.08,501.60 C798.91,501.51 798.50,501.79 798.50,503.97 C798.50,505.98 799.24,506.66 802.50,507.64 C807.87,509.26 809.54,509.26 810.89,507.63 ZM 881.90 502.42 C886.39,500.63 887.42,498.96 885.60,496.46 C884.39,494.82 884.06,494.82 879.09,496.47 C873.79,498.23 872.32,499.78 873.36,502.50 C874.10,504.43 876.95,504.40 881.90,502.42 ZM 1076.31 501.89 C1078.40,498.54 1076.45,497.00 1070.14,497.00 C1063.93,497.00 1061.67,498.70 1064.06,501.57 C1066.22,504.18 1074.74,504.40 1076.31,501.89 ZM 792.81 500.30 C793.06,498.59 792.20,497.63 788.99,495.99 C780.84,491.84 776.66,496.24 784.50,500.72 C789.33,503.48 792.38,503.33 792.81,500.30 ZM 1094.98 500.40 C1096.12,499.30 1096.21,498.56 1095.35,497.23 C1094.51,495.92 1093.18,495.58 1089.88,495.84 C1082.78,496.41 1080.19,498.76 1083.25,501.87 C1084.83,503.47 1092.86,502.46 1094.98,500.40 ZM 493.95 497.40 C497.52,493.34 497.73,489.68 494.42,489.20 C491.02,488.72 485.37,498.03 487.67,500.33 C489.07,501.73 490.90,500.88 493.95,497.40 ZM 1057.50 498.03 C1057.50,495.94 1056.77,495.36 1052.68,494.20 C1046.92,492.58 1044.74,493.17 1045.18,496.22 C1045.59,499.07 1049.52,501.09 1054.00,500.76 C1056.98,500.54 1057.50,500.14 1057.50,498.03 ZM 1108.87 496.57 C1112.60,494.64 1114.16,492.59 1113.41,490.63 C1112.57,488.45 1109.75,488.58 1104.96,491.02 C1101.28,492.90 1099.89,495.56 1101.67,497.33 C1102.76,498.43 1105.92,498.09 1108.87,496.57 ZM 898.78 493.99 C902.79,491.55 903.77,489.34 901.75,487.32 C900.37,485.95 899.74,486.07 895.61,488.49 C890.30,491.60 889.77,492.23 890.60,494.41 C891.43,496.58 894.83,496.40 898.78,493.99 ZM 587.79 493.47 C620.13,487.06 640.78,458.61 633.47,430.53 C630.41,418.82 623.54,409.84 613.35,404.28 L 608.21 401.47 L 612.91 395.22 C619.53,386.42 621.50,380.53 621.50,369.50 C621.50,361.69 621.12,359.67 618.62,354.27 C608.15,331.59 574.21,324.36 545.28,338.65 C536.42,343.02 524.81,354.57 522.91,360.89 C520.55,368.77 525.18,374.35 533.63,373.81 C538.25,373.51 538.66,373.23 543.86,366.74 C548.34,361.15 550.58,359.33 556.84,356.24 C564.13,352.63 564.76,352.50 575.03,352.50 C585.09,352.50 585.92,352.66 590.58,355.51 C596.18,358.94 600.01,365.22 599.99,370.96 C599.97,379.98 590.23,391.90 579.66,395.85 C570.23,399.38 570.65,399.96 571.48,384.61 C572.27,369.74 571.85,368.01 566.82,365.40 C560.53,362.15 552.94,365.77 551.03,372.93 C547.84,384.84 547.12,433.81 549.91,448.50 C551.80,458.43 551.91,458.73 554.56,461.89 C559.07,467.25 568.02,466.95 571.71,461.32 C573.37,458.78 573.26,455.19 571.01,437.88 C570.39,433.14 570.02,427.07 570.19,424.39 C570.48,419.87 570.72,419.46 573.50,418.87 C579.47,417.61 592.69,417.98 597.12,419.54 C606.48,422.84 611.94,431.16 611.98,442.16 C612.02,455.63 603.62,465.99 588.00,471.74 C581.50,474.13 579.11,474.48 570.00,474.41 C560.85,474.34 558.26,473.91 549.88,471.03 C539.76,467.55 537.07,467.51 533.03,470.78 C531.50,472.02 530.63,474.07 530.26,477.34 C529.79,481.58 530.04,482.43 532.55,485.05 C540.42,493.26 567.80,497.44 587.79,493.47 ZM 1039.81 492.30 C1040.06,490.54 1039.13,489.59 1035.12,487.56 C1030.58,485.26 1029.97,485.17 1028.55,486.59 C1026.65,488.49 1027.53,490.38 1031.58,493.08 C1035.39,495.63 1039.39,495.24 1039.81,492.30 ZM 775.80 491.41 C776.01,489.91 774.95,488.57 771.98,486.60 C767.30,483.51 764.64,483.53 764.19,486.68 C763.97,488.25 764.93,489.57 767.69,491.45 C772.09,494.46 775.37,494.44 775.80,491.41 ZM 388.63 487.00 C390.19,481.78 389.82,480.00 387.15,480.00 C384.71,480.00 383.17,481.88 382.39,485.81 C381.54,490.07 382.52,492.21 385.14,491.82 C386.72,491.59 387.65,490.30 388.63,487.00 ZM 1125.39 483.95 C1128.39,480.39 1128.63,478.77 1126.46,476.97 C1125.16,475.89 1124.36,476.23 1121.38,479.09 C1116.43,483.85 1115.67,485.52 1117.57,487.43 C1119.49,489.35 1121.66,488.38 1125.39,483.95 ZM 915.10 483.72 C921.61,479.34 919.26,473.82 912.64,477.91 C908.21,480.65 906.64,482.61 907.36,484.49 C908.19,486.65 911.18,486.36 915.10,483.72 ZM 1024.00 482.69 C1024.00,480.16 1018.28,474.00 1015.93,474.00 C1013.57,474.00 1011.66,476.57 1012.67,478.36 C1014.17,481.01 1021.10,485.90 1022.57,485.34 C1023.35,485.03 1024.00,483.84 1024.00,482.69 ZM 504.01 481.75 C505.16,479.87 505.99,476.72 506.00,474.27 C506.00,470.35 505.71,469.89 502.04,468.02 C497.23,465.57 494.15,465.44 493.30,467.66 C492.68,469.27 494.24,471.00 498.62,473.60 C500.43,474.67 500.42,474.80 498.58,478.22 C495.06,484.77 500.15,488.08 504.01,481.75 ZM 760.79 480.47 C761.16,477.87 754.89,471.68 752.36,472.17 C749.05,472.80 749.61,476.45 753.55,479.91 C757.52,483.40 760.34,483.62 760.79,480.47 ZM 523.02 480.48 C524.84,478.29 522.05,475.55 516.36,473.96 C512.54,472.89 511.67,472.91 510.92,474.09 C509.26,476.71 510.35,478.39 515.03,480.42 C519.49,482.35 521.45,482.37 523.02,480.48 ZM 396.45 472.48 C399.42,468.58 399.73,465.50 397.25,464.53 C395.98,464.04 394.48,465.00 391.75,468.05 C387.53,472.79 387.39,473.25 389.53,475.39 C391.51,477.36 393.29,476.61 396.45,472.48 ZM 1113.99 474.51 C1117.98,472.44 1120.00,469.22 1120.00,464.91 C1120.00,459.67 1117.02,456.44 1110.40,454.51 C1106.70,453.44 1103.33,451.50 1100.28,448.70 C1095.13,443.97 1086.06,430.52 1081.95,421.52 L 1079.22 415.53 L 1085.57 409.71 C1094.87,401.20 1098.32,393.72 1098.82,381.08 C1099.13,373.09 1098.83,370.55 1097.02,365.75 C1094.04,357.83 1086.60,349.91 1078.29,345.82 C1072.29,342.87 1070.77,342.57 1060.03,342.18 C1042.50,341.56 1032.94,345.12 1029.39,353.61 C1025.87,362.04 1026.84,457.05 1030.50,462.64 C1034.55,468.82 1043.75,469.46 1048.44,463.89 C1051.41,460.36 1051.46,459.56 1049.86,439.38 C1049.23,431.45 1048.92,424.74 1049.18,424.48 C1049.44,424.22 1051.70,423.73 1054.19,423.39 L 1058.72 422.77 L 1064.52 433.63 C1072.81,449.16 1076.44,454.59 1083.38,461.82 C1090.19,468.92 1096.09,472.79 1102.93,474.63 C1109.05,476.28 1110.59,476.26 1113.99,474.51 ZM 930.85 471.99 C935.30,468.77 936.04,466.68 933.28,465.14 C930.02,463.32 921.30,470.01 922.58,473.34 C923.52,475.80 926.20,475.36 930.85,471.99 ZM 827.74 470.43 C832.11,467.57 832.49,465.17 831.04,449.19 C830.31,441.11 829.44,426.85 829.11,417.50 C828.40,397.76 829.48,352.10 830.68,350.95 C831.13,350.51 837.80,349.64 845.50,349.00 C863.67,347.49 866.58,346.72 869.10,342.70 C871.82,338.37 871.10,332.35 867.51,329.25 C864.31,326.50 861.15,326.43 834.50,328.47 C824.05,329.27 807.24,330.42 797.15,331.02 C787.06,331.63 777.77,332.52 776.50,333.00 C769.57,335.64 767.73,343.88 772.92,349.08 C776.19,352.34 775.79,352.29 795.75,352.01 C806.44,351.86 808.91,352.09 808.51,353.16 C807.32,356.40 806.37,406.53 807.11,426.99 C807.99,451.01 809.32,462.78 811.67,467.33 C814.42,472.66 822.09,474.14 827.74,470.43 ZM 1010.80 468.88 C1011.16,465.79 1006.74,460.00 1004.02,460.00 C1000.13,460.00 1000.77,464.78 1005.33,469.78 C1007.96,472.66 1010.41,472.26 1010.80,468.88 ZM 1132.89 470.63 C1134.44,468.76 1133.23,466.00 1130.86,466.00 C1128.71,466.00 1127.48,468.21 1128.36,470.50 C1129.08,472.38 1131.39,472.44 1132.89,470.63 ZM 510.58 466.52 C511.47,465.16 512.27,462.57 512.35,460.77 C512.48,457.91 512.19,457.50 510.00,457.50 C507.97,457.50 507.23,458.27 506.08,461.60 C503.76,468.31 507.05,471.91 510.58,466.52 ZM 487.50 464.01 C487.50,462.10 486.60,461.09 483.65,459.70 C475.63,455.93 471.94,460.40 479.50,464.72 C484.59,467.63 487.50,467.37 487.50,464.01 ZM 684.03 464.58 C693.34,462.61 702.92,458.47 706.72,454.78 C709.31,452.27 710.00,450.80 710.00,447.74 C710.00,442.83 708.70,440.41 705.02,438.51 C700.72,436.29 698.70,436.60 690.79,440.75 C684.25,444.18 682.95,444.50 675.59,444.50 C667.73,444.50 667.51,444.43 666.17,441.65 C665.42,440.09 664.56,435.32 664.27,431.07 L 663.74 423.34 L 670.81 422.17 C674.70,421.53 679.50,421.00 681.47,421.00 C692.15,421.00 698.64,411.89 693.03,404.77 C689.51,400.29 686.00,399.52 675.32,400.92 C670.10,401.60 665.55,401.89 665.22,401.55 C664.50,400.83 666.51,381.61 667.46,380.06 C668.39,378.56 676.92,378.75 687.78,380.51 C696.07,381.86 697.38,381.86 700.00,380.50 C703.74,378.57 705.00,376.18 705.00,371.02 C705.00,363.27 700.36,360.84 682.01,358.95 C663.49,357.05 651.99,360.47 647.72,369.15 C643.70,377.34 642.62,387.11 642.56,416.00 C642.50,442.74 642.57,443.67 644.89,449.50 C650.55,463.68 663.93,468.84 684.03,464.58 ZM 759.26 464.06 C775.35,459.95 783.00,454.57 783.00,447.40 C783.00,442.82 781.63,440.38 778.02,438.51 C773.75,436.30 771.87,436.60 764.04,440.69 C758.89,443.38 755.37,444.49 751.03,444.80 C739.86,445.61 738.60,444.36 737.47,431.29 L 736.77 423.33 L 743.83 422.17 C747.71,421.52 752.50,421.00 754.47,421.00 C759.19,421.00 764.34,418.78 766.37,415.88 C768.85,412.34 768.48,406.39 765.59,403.50 C762.17,400.08 759.11,399.60 749.12,400.88 C737.38,402.38 738.00,402.53 738.01,398.25 C738.02,392.72 739.95,381.76 741.18,380.28 C742.51,378.68 747.80,378.65 760.01,380.16 C771.47,381.58 774.43,380.98 777.03,376.72 C779.94,371.94 779.56,368.36 775.73,364.53 C773.02,361.82 771.17,361.03 764.98,359.95 C760.87,359.23 752.55,358.61 746.50,358.57 C736.20,358.50 735.12,358.69 729.50,361.50 C721.93,365.28 719.65,369.19 717.47,382.05 C715.30,394.93 714.40,428.01 715.92,439.39 C717.13,448.40 720.08,455.96 723.65,459.18 C724.67,460.11 727.98,462.01 731.00,463.42 C737.94,466.65 748.23,466.88 759.26,464.06 ZM 410.10 461.45 C414.13,459.41 415.06,458.47 414.81,456.70 C414.36,453.48 410.55,453.37 405.92,456.43 C401.85,459.13 401.15,460.75 403.20,462.80 C404.73,464.33 404.23,464.42 410.10,461.45 ZM 945.72 461.42 C949.08,459.45 950.05,458.33 949.81,456.67 C949.38,453.64 946.10,453.46 941.97,456.24 C938.23,458.76 937.00,461.75 939.15,463.11 C940.98,464.27 940.76,464.33 945.72,461.42 ZM 901.21 460.00 C926.95,450.28 938.11,409.43 923.53,378.31 C919.32,369.33 913.74,363.20 906.02,359.09 C890.78,350.97 874.12,353.78 862.09,366.50 C856.68,372.22 853.47,378.00 849.89,388.50 C847.79,394.64 847.50,397.28 847.53,410.00 C847.56,423.18 847.81,425.18 850.25,431.94 C857.20,451.20 870.75,461.92 888.21,461.98 C893.54,461.99 897.56,461.38 901.21,460.00 ZM 993.31 458.64 C1003.75,453.53 1010.53,442.71 1014.21,425.30 C1017.59,409.29 1016.89,373.66 1012.91,358.70 C1010.76,350.64 1000.44,348.58 994.65,355.07 C991.89,358.15 991.82,358.52 992.41,365.88 C992.74,370.07 993.28,382.73 993.60,394.00 C994.06,410.38 993.86,415.97 992.63,421.81 C989.74,435.46 983.76,442.12 975.74,440.61 C962.87,438.20 958.87,416.94 962.63,370.83 C963.22,363.57 963.12,363.03 960.74,360.65 C955.51,355.42 945.84,356.52 942.66,362.71 C939.11,369.61 937.77,407.69 940.52,423.43 C943.98,443.29 952.24,455.54 965.33,460.21 C973.17,463.00 985.84,462.29 993.31,458.64 ZM 469.50 457.03 C469.50,454.99 468.65,454.25 464.58,452.74 C460.12,451.08 459.52,451.06 458.10,452.47 C456.00,454.57 457.55,456.97 462.07,458.63 C467.15,460.49 469.50,459.98 469.50,457.03 ZM 1139.79 450.49 C1154.15,431.51 1156.84,416.29 1147.63,406.15 C1142.06,400.02 1130.71,398.07 1123.12,401.94 C1113.77,406.71 1109.38,416.93 1112.34,427.08 C1115.36,437.46 1129.40,458.45 1132.87,457.79 C1133.77,457.62 1136.88,454.33 1139.79,450.49 ZM 430.00 455.11 C431.80,454.60 432.50,453.72 432.50,451.95 C432.50,449.64 432.20,449.51 427.14,449.65 C421.40,449.80 418.29,451.70 419.33,454.42 C419.97,456.09 425.23,456.43 430.00,455.11 ZM 451.81 452.31 C452.06,450.53 451.41,449.93 448.31,449.07 C443.12,447.63 440.47,447.73 439.05,449.44 C438.16,450.52 438.14,451.40 438.99,452.98 C439.97,454.82 440.88,455.06 445.81,454.80 C450.79,454.54 451.54,454.23 451.81,452.31 ZM 514.96 450.55 C515.63,449.75 516.24,446.95 516.33,444.33 C516.47,440.42 516.17,439.50 514.64,439.19 C512.05,438.66 510.89,440.15 509.97,445.17 C508.88,451.12 511.84,454.31 514.96,450.55 ZM 516.88 431.75 C518.02,428.64 517.06,421.96 515.37,421.31 C511.98,420.01 509.57,427.12 511.61,432.42 C512.51,434.77 515.92,434.34 516.88,431.75 ZM 398.39 421.68 C399.31,420.18 399.02,419.49 396.71,417.68 C389.62,412.13 385.76,408.43 384.47,405.94 L 383.07 403.23 L 391.76 402.51 C399.51,401.86 400.57,401.98 401.48,403.56 C404.23,408.35 409.81,413.22 416.52,416.67 C423.45,420.24 424.05,420.38 425.60,418.82 C428.04,416.39 426.76,414.42 420.80,411.43 C414.34,408.19 409.36,404.54 408.04,402.07 C407.17,400.44 407.69,400.01 412.27,398.52 C426.16,394.00 443.15,381.96 449.01,372.48 C451.40,368.61 452.39,368.39 471.25,367.42 C478.26,367.05 484.00,366.42 484.00,366.00 C484.00,365.58 478.66,360.64 472.13,355.03 L 460.25 344.82 L 459.78 334.66 C458.96,317.24 453.40,304.98 439.77,290.49 L 432.04 282.27 L 438.77 280.07 C468.33,270.39 487.05,250.32 487.35,228.00 C487.65,206.17 469.10,193.53 445.64,199.59 C438.06,201.54 425.66,207.89 420.08,212.66 C417.78,214.63 415.79,216.07 415.64,215.87 C415.49,215.67 414.85,211.77 414.22,207.22 C413.59,202.66 412.22,197.02 411.18,194.67 C402.89,175.94 379.23,172.10 365.33,187.23 C360.03,193.02 358.35,196.32 355.94,205.72 C353.10,216.85 353.55,227.92 357.56,245.06 L 358.16 247.62 L 349.83 246.36 C345.25,245.67 339.87,245.08 337.89,245.05 C334.28,245.00 334.27,244.99 332.98,238.89 C331.26,230.78 326.24,220.59 321.13,214.85 C318.15,211.49 317.00,209.32 317.00,207.05 C317.00,199.50 306.31,195.97 300.64,201.64 C297.59,204.68 297.07,210.23 299.50,213.70 C301.72,216.87 307.39,218.50 311.00,217.00 C312.58,216.34 314.40,216.13 315.04,216.52 C318.88,218.90 328.00,237.86 328.00,243.47 C328.00,244.31 324.97,245.13 318.97,245.90 C314.00,246.53 307.05,248.10 303.52,249.38 L 297.11 251.71 L 291.80 244.64 C285.11,235.72 277.80,229.76 270.05,226.94 C266.72,225.72 264.00,224.32 264.00,223.82 C264.00,223.32 262.90,221.80 261.55,220.45 C259.80,218.70 257.99,218.00 255.27,218.00 C250.65,218.00 247.70,219.90 246.02,223.94 C242.02,233.61 254.74,241.86 261.41,233.92 C263.86,231.02 264.19,230.91 267.49,232.00 C273.08,233.84 282.42,241.34 286.88,247.57 C289.15,250.74 291.00,253.61 291.00,253.95 C291.00,254.29 288.12,256.47 284.59,258.79 C270.48,268.07 258.72,285.05 255.50,300.82 C248.65,334.30 265.34,364.41 300.50,382.00 L 307.50 385.50 L 308.26 390.88 C309.78,401.66 317.64,413.42 322.90,412.80 C326.97,412.33 326.71,409.31 322.21,404.64 C320.02,402.36 317.66,399.39 316.96,398.02 C315.37,394.94 313.99,389.00 314.86,388.99 C315.21,388.99 319.62,390.44 324.66,392.22 C333.79,395.44 333.82,395.46 334.43,399.32 C336.13,409.94 347.43,423.58 352.28,420.86 C355.08,419.30 354.29,417.02 349.23,412.04 C344.91,407.79 340.02,399.64 341.13,398.54 C341.37,398.30 346.95,399.20 353.53,400.54 C360.12,401.88 368.05,402.98 371.17,402.99 C376.74,403.00 376.87,403.06 377.97,406.42 C379.73,411.73 384.62,417.80 389.78,421.08 C394.91,424.33 396.70,424.45 398.39,421.68 ZM 514.80 411.41 C515.16,406.50 512.38,402.26 509.52,403.35 C508.02,403.93 507.84,404.79 508.37,408.67 C509.08,413.90 510.57,416.23 512.91,415.78 C513.99,415.58 514.60,414.18 514.80,411.41 ZM 508.77 395.99 C509.18,392.23 505.45,386.80 502.73,387.18 C499.57,387.64 499.49,390.23 502.49,394.99 C505.41,399.62 508.33,400.08 508.77,395.99 ZM 499.39 382.43 C500.55,379.39 494.61,372.54 491.35,373.17 C488.27,373.77 488.59,376.98 492.10,380.61 C495.64,384.26 498.42,384.95 499.39,382.43 ZM 670.00 335.69 L 688.50 327.44 L 696.78 308.06 C701.33,297.40 704.93,288.30 704.78,287.84 C704.51,287.02 672.17,301.35 667.74,304.25 C666.23,305.24 662.95,311.80 657.74,324.27 C653.48,334.46 650.00,343.08 650.00,343.40 C650.00,344.51 651.47,343.95 670.00,335.69 ZM 560.53 322.93 C562.60,318.93 562.13,315.50 559.50,315.50 C557.10,315.50 553.35,321.87 554.30,324.34 C555.35,327.08 558.79,326.31 560.53,322.93 ZM 570.44 307.93 C574.27,303.69 574.51,302.35 571.72,300.60 C568.37,298.48 560.85,308.52 563.67,311.33 C565.09,312.76 566.91,311.84 570.44,307.93 ZM 656.07 298.42 C657.85,296.28 656.06,293.50 652.90,293.50 C650.18,293.50 649.16,296.28 651.04,298.55 C652.61,300.44 654.43,300.39 656.07,298.42 ZM 588.39 292.77 C589.21,291.45 589.08,290.65 587.82,289.39 C586.30,287.87 585.87,287.92 581.93,290.13 C576.30,293.27 574.86,295.64 577.42,297.54 C579.11,298.80 579.80,298.71 583.33,296.73 C585.52,295.50 587.80,293.72 588.39,292.77 ZM 644.82 290.23 C645.09,288.36 644.31,287.58 640.53,285.91 C634.82,283.38 632.50,283.70 632.50,287.00 C632.50,292.01 644.14,295.05 644.82,290.23 ZM 605.19 287.90 C607.52,286.65 607.27,282.67 604.83,282.20 C602.12,281.69 594.95,283.98 594.34,285.55 C593.09,288.82 594.83,290.28 599.14,289.59 C601.40,289.23 604.12,288.47 605.19,287.90 ZM 625.81 284.78 C626.18,281.63 623.88,280.65 617.40,281.18 C614.01,281.46 613.50,281.82 613.50,283.95 C613.50,286.75 616.26,287.96 622.00,287.67 C625.01,287.52 625.54,287.12 625.81,284.78 ZM 586.83 548.96 C584.52,547.62 582.66,541.47 583.41,537.71 C585.61,526.70 600.00,527.82 600.00,539.00 C600.00,543.62 597.88,548.45 595.46,549.38 C593.08,550.29 588.74,550.08 586.83,548.96 ZM 647.00 534.50 L 647.00 530.00 L 651.80 530.00 C656.84,530.00 659.00,531.24 659.00,534.13 C659.00,537.15 656.12,539.00 651.43,539.00 L 647.00 539.00 L 647.00 534.50 ZM 763.75 543.21 C760.49,542.80 760.50,542.88 763.40,536.50 L 765.68 531.50 L 767.95 536.71 C769.19,539.57 770.17,542.27 770.12,542.71 C770.02,543.58 767.99,543.74 763.75,543.21 ZM 790.00 540.00 L 790.00 530.00 L 794.44 530.00 C801.23,530.00 804.50,533.26 804.50,540.00 C804.50,546.74 801.23,550.00 794.44,550.00 L 790.00 550.00 L 790.00 540.00 ZM 823.07 547.37 C821.64,545.54 821.00,543.27 821.00,540.00 C821.00,533.46 823.77,530.00 829.00,530.00 C834.29,530.00 837.00,533.45 837.00,540.18 C837.00,544.06 836.49,545.61 834.55,547.55 C831.10,550.99 825.86,550.90 823.07,547.37 ZM 994.23 549.33 C992.30,548.55 990.00,543.48 990.00,540.00 C990.00,536.26 992.32,531.48 994.54,530.62 C997.69,529.41 1002.02,530.02 1003.94,531.94 C1007.80,535.80 1007.82,544.18 1003.97,548.03 C1002.10,549.90 997.26,550.55 994.23,549.33 ZM 1023.00 539.88 L 1023.00 529.75 L 1028.67 530.22 C1035.65,530.80 1038.00,533.14 1038.00,539.53 C1038.00,541.90 1037.72,544.56 1037.38,545.46 C1036.45,547.88 1031.62,550.00 1027.05,550.00 L 1023.00 550.00 L 1023.00 539.88 ZM 1099.06 548.06 C1095.05,544.05 1095.66,533.32 1100.01,530.99 C1104.35,528.67 1109.45,530.03 1111.54,534.07 C1114.23,539.28 1112.51,547.82 1108.46,549.38 C1105.31,550.59 1100.98,549.98 1099.06,548.06 ZM 1049.00 384.33 C1049.00,361.23 1048.90,361.48 1058.26,362.23 C1065.80,362.83 1071.50,365.31 1074.35,369.21 C1076.82,372.59 1077.66,381.46 1075.99,386.52 C1073.33,394.58 1064.12,401.20 1053.53,402.65 L 1049.00 403.27 L 1049.00 384.33 ZM 882.00 439.74 C872.99,434.94 868.37,422.49 869.29,405.50 C869.88,394.60 871.62,388.50 875.64,383.23 C879.34,378.38 883.72,376.01 889.00,376.01 C897.80,376.01 903.77,382.70 906.51,395.64 C912.44,423.63 898.57,448.58 882.00,439.74 ZM 1127.78 428.44 C1122.35,425.50 1121.38,419.08 1125.59,414.08 C1127.74,411.51 1128.90,411.00 1132.50,411.00 C1136.10,411.00 1137.26,411.51 1139.41,414.08 C1143.50,418.94 1142.30,425.76 1136.85,428.57 C1133.41,430.36 1131.24,430.32 1127.78,428.44 ZM 391.04 281.40 C391.06,280.91 395.34,277.21 400.54,273.20 L 410.00 265.89 L 423.50 266.59 C436.72,267.28 437.00,267.25 437.00,265.22 C437.00,263.00 433.75,262.29 421.00,261.74 L 415.50 261.50 L 424.47 254.50 L 433.43 247.50 L 448.47 247.50 C461.16,247.50 463.50,247.27 463.50,246.00 C463.50,244.82 461.46,244.35 454.00,243.78 C448.77,243.39 443.48,242.94 442.23,242.78 C440.41,242.56 442.87,240.24 454.48,231.21 C462.46,225.00 469.00,219.26 469.00,218.46 C469.00,215.20 464.58,217.51 451.71,227.50 C444.27,233.27 437.96,238.00 437.69,238.00 C437.42,238.00 438.05,234.09 439.10,229.30 C441.38,218.84 441.45,217.00 439.54,217.00 C437.38,217.00 436.52,219.28 433.96,231.81 L 431.65 243.12 L 423.21 249.64 C411.79,258.45 411.84,258.44 413.54,251.33 C415.39,243.59 415.39,240.00 413.54,240.00 C411.39,240.00 410.46,242.40 408.47,253.12 L 406.68 262.73 L 397.27 269.97 C392.10,273.94 387.71,277.04 387.52,276.85 C386.78,276.09 391.93,261.80 395.80,253.88 C402.15,240.90 407.57,233.28 417.43,223.49 C430.65,210.36 443.75,203.98 457.41,204.02 C466.20,204.05 471.30,206.20 476.23,211.95 C486.27,223.68 482.40,242.83 467.07,257.30 C455.80,267.93 441.08,274.70 419.88,279.02 C408.58,281.33 390.98,282.78 391.04,281.40 ZM 384.62 256.29 C382.88,255.84 382.79,255.08 383.43,246.15 L 384.12 236.50 L 392.20 228.34 C397.76,222.72 400.09,219.68 399.67,218.59 C398.60,215.79 396.33,216.86 391.06,222.63 C388.23,225.72 385.77,228.08 385.58,227.88 C385.40,227.67 386.09,220.33 387.13,211.56 C389.00,195.68 388.79,193.10 385.71,194.28 C384.69,194.67 383.92,198.38 382.97,207.41 C382.24,214.34 381.39,219.99 381.07,219.98 C380.76,219.97 378.74,217.01 376.58,213.39 C372.52,206.57 370.63,204.97 368.79,206.81 C368.02,207.58 369.59,210.83 374.28,218.19 L 380.84 228.50 L 379.46 240.38 C378.69,246.92 377.86,252.48 377.60,252.73 C376.93,253.40 366.72,249.99 365.36,248.63 C363.30,246.60 360.00,229.59 360.00,221.02 C360.00,198.09 369.99,183.97 386.21,184.02 C394.17,184.04 399.30,186.75 403.66,193.26 C407.47,198.92 409.00,205.43 409.00,215.93 C409.00,222.03 408.63,224.06 407.33,225.13 C404.90,227.12 392.91,245.63 390.08,251.76 C388.75,254.64 387.40,256.95 387.08,256.88 C386.76,256.82 385.65,256.55 384.62,256.29 ZM 673.65 320.17 C671.73,318.04 671.47,312.93 673.20,311.20 C673.86,310.54 675.79,310.00 677.50,310.00 C681.46,310.00 683.00,311.58 683.00,315.63 C683.00,321.37 677.27,324.16 673.65,320.17 Z" fill="rgb(248,248,239)"/>
</g>
</svg>