<svg version="1.2" xmlns="http://www.w3.org/2000/svg" viewBox="0 0 937 402" width="937" height="402"><style>.a{fill:#174975}.b{fill:#31302b}.c{fill:#e99728}</style><path class="a" d="m883 306.5c-3.4 1.8-5 1.8-11.1 0.1-6.8-1.8-12.7-5.7-19.5-12.8-7-7.2-10.6-12.6-18.9-28.2l-5.8-10.8-4.5 0.6c-2.5 0.3-4.8 0.8-5 1.1-0.3 0.2 0 6.9 0.7 14.9 1.6 20.2 1.5 21-1.5 24.5-4.7 5.6-13.9 4.9-17.9-1.3-3.7-5.5-4.6-100.6-1.1-109 3.5-8.5 13.1-12 30.6-11.4 10.8 0.4 12.3 0.7 18.3 3.6 8.3 4.1 15.7 12 18.7 19.9 1.8 4.9 2.1 7.4 1.8 15.4-0.5 12.6-3.9 20.1-13.2 28.6l-6.4 5.8 2.8 6c4.1 9 13.1 22.5 18.3 27.2q4.6 4.2 10.1 5.8c6.6 1.9 9.6 5.2 9.6 10.4 0 4.3-2 7.5-6 9.6zm-212.8-14.5c-3.6 1.4-7.7 2-13 2-17.4-0.1-31-10.8-37.9-30.1-2.5-6.7-2.7-8.7-2.8-21.9 0-12.7 0.3-15.4 2.4-21.5 3.6-10.5 6.8-16.3 12.2-22 12-12.7 28.7-15.5 43.9-7.4 7.7 4.1 13.3 10.2 17.5 19.2 14.6 31.1 3.5 72-22.3 81.7zm92.1-1.4c-7.5 3.7-20.1 4.4-28 1.6q-19.6-7-24.8-36.8c-2.7-15.7-1.4-53.8 2.2-60.7 3.1-6.2 12.8-7.3 18-2.1 2.4 2.4 2.5 3 1.9 10.2-3.7 46.1 0.3 67.4 13.1 69.8 8.1 1.5 14-5.1 16.9-18.8 1.3-5.8 1.5-11.4 1-27.8-0.3-11.3-0.9-23.9-1.2-28.1-0.6-7.4-0.5-7.8 2.2-10.8 5.8-6.5 16.2-4.5 18.3 3.6 4 15 4.7 50.6 1.3 66.6-3.7 17.4-10.4 28.2-20.9 33.3zm-165.6 11.8c-5.6 3.7-13.3 2.3-16-3.1-2.4-4.5-3.7-16.3-4.6-40.3-0.7-20.5 0.2-70.6 1.4-73.8 0.4-1.1-2.1-1.3-12.7-1.2h-1c-14.6 0.2-17.8 0.3-19.9-1.2-0.7-0.4-1.2-1-2-1.7-5.2-5.2-3.3-13.5 3.6-16.1 1.3-0.5 10.6-1.4 20.6-2 10.1-0.6 26.9-1.7 37.4-2.5 26.6-2.1 29.8-2 33 0.8 3.6 3.1 4.3 9.1 1.6 13.4-2.5 4-5.4 4.8-23.6 6.3-7.7 0.6-14.4 1.5-14.8 1.9-1.2 1.2-2.3 46.9-1.6 66.6 0.3 9.4 1.2 23.6 1.9 31.7 1.5 16 1.1 18.4-3.3 21.2zm54.3-30.7c16.6 8.9 30.4-16.1 24.5-44.1-2.7-12.9-8.7-19.6-17.5-19.6-5.3 0-9.7 2.4-13.4 7.2-4 5.3-5.7 11.4-6.3 22.3-0.9 17 3.7 29.4 12.7 34.2zm167-36.4l4.5-0.7c10.6-1.4 19.8-8 22.5-16.1 1.7-5 0.8-13.9-1.7-17.3-2.8-3.9-8.5-6.4-16-7h-0.3c-3.2-0.2-5.3-0.4-6.6 0.5-2.4 1.6-2.4 6.7-2.4 20.9zm-246.3 149.8c-4.8 2.1-15.6 2.6-17.5 0.7-0.8-0.8-1.2-5.3-1.2-13.9 0-15.3 0.1-15.4 9.8-14.7 11.7 0.9 16.2 4.9 16.2 14.8 0 6.9-2.2 10.7-7.3 13.1zm203-0.1c-12.2 7.5-26.6-6.8-19.9-20 3.7-7.3 13.1-10.2 19.9-6 5 3 6.8 6.5 6.7 13.1-0.1 6.6-1.9 10-6.7 12.9zm106 0c-1.8 1.1-5 2-7.2 2-8.4 0-14-6-14-15 0-9 5.6-15 14-15 8.4 0 14 6 14 15 0 6.5-1.9 10.1-6.8 13zm-275.2 0c-6.6 4.1-16.6 1.7-20-4.9-2.2-4.3-2-12.8 0.5-16.9 5.2-8.6 19.5-8 24 0.9 3.7 7.2 1.6 17.2-4.5 20.9zm-234.9-2.3c-2.8 3.1-4 3.7-8.7 4-9.5 0.7-14.9-4.7-14.9-14.9 0-9.9 5.9-15.4 15.4-14.5 4.1 0.4 5.5 1.1 8.2 4 5.8 6.2 5.7 15.2 0 21.4zm432.5 3.3c-5.3 1.5-15.1 1.3-15.7-0.3-0.2-0.7-0.3-7.3-0.2-14.7l0.3-13.5h8.1c9.1 0.1 12.1 1.4 15.5 6.8 3.1 4.9 2.3 13.7-1.6 17.7-1.6 1.7-4.5 3.5-6.4 4zm-387.3-5.2c-0.3 4.9-0.6 5.7-2.4 6-1.3 0.2-2.4-0.3-2.8-1.3-1.2-3.1-0.7-26 0.6-27.3 1.4-1.4 12.6-1.6 16.1-0.3 4 1.6 5.7 4 5.7 8.2 0 2.9-0.7 4.7-2.4 6.4-1.4 1.4-2 2.7-1.5 3.1 1.7 1 5.1 8.6 4.5 10-1.1 2.9-4.5 1.5-6.7-2.8-3-6.1-4.8-7.8-8-7.8-2.7 0-2.8 0.2-3.1 5.8zm268.8 3.8c-0.6 2.3-3.4 3.3-4.9 1.7-0.4-0.3-0.7-6.6-0.7-13.8 0-10.5 0.3-13.5 1.5-14.5 2.5-2.1 4-0.5 9 9l4.7 9.3 5.2-9.4c2.9-5.1 5.8-9.5 6.5-9.7 0.6-0.2 1.8 0.2 2.6 0.8 1.2 1 1.5 4 1.5 13.5 0 13.7-0.4 15.5-3.1 15.5-2.2 0-2.8-2-3.1-11.3l-0.3-6.9-3.8 7.1c-2.1 3.9-4.4 7.1-5.2 7.1-0.7 0-3.2-3.4-5.5-7.5-2.3-4.1-4.2-7.5-4.3-7.5-0.1 0-0.1 3.2 0.1 7.1 0.2 3.9 0.1 8.2-0.2 9.5zm-158.7-1.3c-1.4 3.2-4.2 4.7-5.4 2.8-0.7-1.2 10.2-26.6 12.1-28.2 0.8-0.6 2.1-0.9 2.9-0.5 1.8 0.7 13.5 24.8 13.5 27.7 0 3.4-3.8 2.3-5.4-1.6l-1.5-3.5h-7.4c-7.3 0-7.3 0-8.8 3.3zm326.9 2.2c-3 2-12.3 1.9-16.7-0.2-9.2-4.5-9.2-21.6 0-26.3 4.6-2.4 10.9-2.6 15-0.4 3.4 1.7 3.7 5.2 0.4 4.6-12.4-2.3-15.5-0.7-16.3 8.1-0.4 5-0.2 5.8 2.2 8.2 2.2 2.2 3.4 2.6 7.4 2.3 4.5-0.3 4.7-0.4 5-3.5 0.3-2.9 0.1-3.2-3-3.5-2.1-0.2-3.3-0.8-3.3-1.8 0-1.1 1.4-1.6 5.1-1.8 5.8-0.3 6.4 0.4 6.4 8.5 0 3.2-0.5 4.6-2.2 5.8zm-380.3 0.5c-7.5 2.9-17.3 0.3-21.1-5.5-2.5-3.8-2.4-13.7 0.3-17.3 4-5.5 13.4-7.9 19.3-4.9 3.1 1.6 3.5 5.4 0.5 4.9-8.7-1.6-11-1.4-13.5 1.3-2 2.1-2.5 3.7-2.5 7.7q0 9.8 10.1 9.8c4.4 0 4.4 0 4.4-3.4 0-3-0.3-3.5-2.7-3.8-1.7-0.2-2.9-1-3.1-2.1-0.3-1.6 0.3-1.8 5-1.5l5.3 0.3 0.3 6.8c0.3 6.5 0.2 6.8-2.3 7.7zm28.7-1.9c-2.6 2.4-4.1 2.9-8 2.9-10.6-0.2-12.7-3.2-12.7-18.4v-11.1h2.5c2.5 0 2.5 0.1 2.8 10.5 0.3 11.9 1.4 14 6.8 14 5.5 0 6.4-1.9 6.4-12.9 0-10.3 1.1-13 4.6-11.7 1.3 0.5 1.5 2.3 1.2 12.2l-0.3 11.6zm144.8 1.2c-2.6 1.8-10.9 2.2-14.6 0.7-5.6-2.2-5-7.1 0.6-5.1 7.1 2.4 13.9 0.7 12.4-3.2-0.7-1.7-1.8-2.2-7.7-3.3-5.8-1-8.7-3.8-8.7-8.4 0-5.3 4.3-9 10.6-9 5 0 10.4 2.3 10.4 4.4 0 1.9-2.1 2.5-4.3 1.4-1-0.5-3.7-0.8-5.9-0.6-8.7 0.6-6.9 6.7 2.3 8.2 5.5 0.9 8.9 4 8.9 8-0.1 3.6-0.6 4.6-4 6.9zm-247 0.2c-3.6 1.9-10.7 1.9-14.1 0-4-2.2-5-5.9-4.7-17.6 0.3-9.6 0.4-10.4 2.3-10.4 1.8 0 2 0.8 2.5 10.6 0.6 12.2 1.4 13.9 7 13.9 5.8 0 7-2.3 7-14.3 0-7.8 0.3-9.9 1.5-10.3 0.8-0.4 2.2 0 3.1 0.7 1.4 1.1 1.5 2.9 1.1 11.5-0.6 11.2-1.4 13.7-5.7 15.9zm275.5-1c0 1.8-0.8 2-9.3 2.3-7 0.2-9.4-0.1-9.8-1.1-0.3-0.7-0.4-7.4-0.2-14.8l0.3-13.4 8.3-0.3c8.9-0.3 12.2 0.8 10.1 3.4-0.8 0.9-3.4 1.4-7.5 1.4h-6.4v8h6.5c5.8 0 6.5 0.2 6.5 2 0 1.8-0.7 2-6.5 2h-6.5v7.9l7.2 0.3c6.5 0.3 7.3 0.5 7.3 2.3zm72.5 1.2c-3.3 1.7-9.7 1.6-13.8-0.2-9.9-4.3-9.8-22.9 0.3-27.1 6.7-2.8 16-1 16 3.1 0 1.4-0.6 1.9-2 1.6-8.7-1.5-10.4-1.3-13 1.3-3.6 3.6-3.6 11.6 0 15.2 2.7 2.7 5 2.8 12.8 0.8 2.6-0.6 2.8-0.4 2.5 1.7-0.2 1.3-1.4 2.9-2.8 3.6zm16.2-4.4c3 1.2 7.9 0.6 9.7-1.3 3.9-3.8 3.9-12.2 0-16.1-1.9-1.9-6.2-2.5-9.4-1.3-2.2 0.9-4.5 5.7-4.5 9.4 0 3.5 2.3 8.5 4.2 9.3zm104.8-1.2c2 1.9 6.3 2.5 9.4 1.3 4.1-1.6 5.8-10.1 3.1-15.3-2.1-4.1-7.2-5.4-11.5-3.1-4.4 2.3-5 13-1 17.1zm-512.2 0.9c1.9 1.1 6.3 1.3 8.6 0.4 2.5-1 4.6-5.8 4.6-10.4 0-11.2-14.4-12.3-16.6-1.3-0.8 3.8 1.1 9.9 3.4 11.3zm436.2-19.3v20.3h4c4.6 0 9.4-2.1 10.4-4.5 0.3-0.9 0.6-3.6 0.6-6 0-6.4-2.4-8.7-9.4-9.3zm-199.9 17.6c2.8 3.6 8 3.7 11.5 0.2 1.9-1.9 2.4-3.5 2.4-7.4 0-6.7-2.7-10.1-8-10.1-5.2 0-8 3.4-8 10 0 3.2 0.7 5.5 2.1 7.3zm-33.1-17.3v20h4.5c6.8 0 10-3.3 10-10 0-6.8-3.2-10-10-10zm-223.2 12.3c-0.3 11.4-0.4 12.2-2.4 12.5-1.1 0.1-2.3-0.1-2.7-0.5-0.4-0.3-0.7-6-0.7-12.4v-11.8l-4.8-0.3c-3.9-0.3-4.7-0.7-4.7-2.3 0-1.9 0.7-2 12.5-2 11.8 0 12.5 0.1 12.5 2 0 1.6-0.8 2-4.7 2.3l-4.8 0.3zm488.1-0.3c-0.3 12.1-0.4 12.5-2.6 12.8-1.2 0.2-2.5-0.3-2.8-1-0.3-0.8-0.4-7.5-0.2-14.9 0.3-13 0.3-13.4 2.5-13.7 3-0.5 3.4 1.7 3.1 16.8zm-308.3-2c0 13-0.2 14.5-1.8 14.8-2.6 0.5-2.8-1.1-2.5-15.9 0.2-12.7 0.4-13.4 2.3-13.4 1.9 0 2 0.6 2 14.5zm-99.5-10v9h4.4c4.7 0 7.6-1.9 7.6-4.9 0-2.9-2.2-4.1-7.2-4.1zm116.7 13.2c4.3 0.5 6.3 0.4 6.4-0.5 0-0.4-0.9-3.1-2.2-6l-2.3-5.2-2.2 5-0.1 0.2c-1.7 3.7-2.4 5.2-1.9 5.8 0.3 0.5 1 0.5 2.3 0.7zm238.7-23.1c-2.6 2.7-5.4 3.8-5.4 2.1 0-1.8 4.1-7.2 5.4-7.2 2.8 0 2.8 2.2 0 5.1z"/><path class="b" d="m167.4 253.7c-1.7 2.8-3.5 2.6-8.6-0.6-5.2-3.3-10.1-9.4-11.8-14.7-1.1-3.3-1.3-3.4-6.8-3.4-3.1 0-11.1-1.1-17.7-2.5-6.6-1.3-12.1-2.2-12.4-2-1.1 1.1 3.8 9.3 8.1 13.5 5.1 5 5.9 7.3 3.1 8.9-4.9 2.7-16.2-11-17.9-21.6-0.6-3.8-0.6-3.9-9.7-7.1-5.1-1.8-9.5-3.2-9.8-3.2-0.9 0 0.5 5.9 2.1 9 0.7 1.4 3 4.4 5.2 6.6 4.5 4.7 4.8 7.7 0.7 8.2-5.3 0.6-13.1-11.1-14.6-21.9l-0.8-5.4-7-3.5c-35.2-17.6-51.9-47.7-45-81.2 3.2-15.7 15-32.7 29.1-42 3.5-2.3 6.4-4.5 6.4-4.8 0-0.4-1.9-3.3-4.1-6.4-4.5-6.3-13.8-13.8-19.4-15.6-3.3-1.1-3.6-1-6.1 1.9-6.7 8-19.4-0.3-15.4-10 1.7-4 4.6-5.9 9.3-5.9 2.7 0 4.5 0.7 6.3 2.5 1.3 1.3 2.4 2.8 2.4 3.3 0 0.5 2.7 1.9 6 3.1 7.8 2.9 15.1 8.8 21.8 17.7l5.3 7.1 6.4-2.3c3.5-1.3 10.5-2.9 15.5-3.5 6-0.8 9-1.6 9-2.4 0-5.6-9.1-24.6-13-27-0.6-0.4-2.4-0.2-4 0.5-3.6 1.5-9.3-0.1-11.5-3.3-2.4-3.5-1.9-9 1.1-12.1 5.7-5.6 16.4-2.1 16.4 5.5 0 2.2 1.1 4.4 4.1 7.8 5.1 5.7 10.2 15.9 11.9 24 1.3 6.1 1.3 6.1 4.9 6.2 2 0 7.3 0.6 11.9 1.3l8.4 1.2-0.6-2.5c-4.1-17.2-4.5-28.2-1.7-39.4 2.5-9.4 4.1-12.7 9.4-18.5 13.9-15.1 37.6-11.3 45.9 7.5 1 2.3 2.4 8 3 12.5 0.7 4.6 1.3 8.5 1.4 8.7 0.2 0.2 2.2-1.3 4.5-3.2 5.6-4.8 18-11.2 25.5-13.1 23.5-6.1 42 6.6 41.8 28.4-0.3 22.3-19.1 42.4-48.6 52.1l-6.8 2.2 7.8 8.2c13.6 14.5 19.2 26.7 20 44.2l0.4 10.1 11.9 10.2c6.6 5.6 11.9 10.6 11.9 11 0 0.4-5.7 1.1-12.8 1.4-18.8 1-19.8 1.2-22.2 5.1-5.9 9.5-22.8 21.5-36.7 26-4.6 1.5-5.1 1.9-4.3 3.6 1.4 2.4 6.3 6.1 12.8 9.3 6 3 7.2 5 4.8 7.4-1.5 1.6-2.2 1.4-9.1-2.1-6.7-3.5-12.3-8.3-15-13.1-0.9-1.6-2-1.7-9.7-1.1l-8.7 0.7 1.4 2.7c1.3 2.5 5.1 6.2 12.2 11.8 2.3 1.8 2.6 2.5 1.7 4zm-102.4-48.6c7.2 4.3 9.2 4.6 19.5 2.4 20.1-4.2 39.2-19.8 48.5-39.6 7.1-15.3 9.5-36.2 5.7-50.9-2.5-9.6-8.9-21.8-14.4-27.6-5.1-5.3-7.9-6.4-17.1-6.4h-4.2v4.6c0 5.5-1.4 8.4-4 8.4-1.8 0-2-0.7-2-6.6v-6.7l-7 0.7c-16.1 1.5-30.9 8.5-43.1 20.6q-12.2 12.1-16.4 28c-1.7 6.5-1.9 21.7-0.4 29.2 3.3 16.1 16.7 32.9 34.9 43.9zm95-91.7c0 1.4 17.6-0.1 28.9-2.4 21.2-4.3 35.9-11.1 47.2-21.7 15.3-14.5 19.2-33.6 9.1-45.3-4.9-5.8-10-7.9-18.8-8-13.6 0-26.8 6.4-40 19.5-9.8 9.8-15.3 17.4-21.6 30.4-3.9 7.9-9 22.2-8.3 23 0.2 0.1 4.6-3 9.8-6.9l9.4-7.3 1.8-9.6c2-10.7 2.9-13.1 5-13.1 1.9 0 1.9 3.6 0 11.3v0.1c-0.7 2.9-1.1 4.6-0.5 5 0.7 0.6 3.4-1.5 10.1-6.6l0.1-0.2 8.4-6.5 2.4-11.3c2.5-12.5 3.4-14.8 5.5-14.8 1.9 0 1.9 1.8-0.4 12.3-1 4.8-1.7 8.7-1.4 8.7 0.3 0 6.6-4.7 14-10.5 12.9-10 17.3-12.3 17.3-9 0 0.8-6.5 6.5-14.5 12.7-11.6 9-14.1 11.4-12.3 11.6 1.3 0.1 6.6 0.6 11.8 1 7.5 0.6 9.5 1 9.5 2.2 0 1.3-2.3 1.5-15 1.5h-15.1l-17.9 14 5.5 0.2c12.8 0.6 16 1.3 16 3.5 0 2.1-0.3 2.1-13.5 1.4l-13.5-0.7-9.5 7.3c-5.2 4-9.4 7.7-9.5 8.2zm-37.5 113.5c13.8 3 16 2.8 23.5-2.1 14.7-9.4 28.8-26.7 35.7-43.8 6.6-16.4 8.7-39.5 5-55.3l-1.9-7.8-5.6 0.6c-3.1 0.3-7.6 0.8-10 1.1l-4.2 0.5 0.7 4.2c0.5 2.3 0.7 9.2 0.7 15.2-0.4 34.7-19.3 65.4-49.3 79.8q-0.6 0.3-1.1 0.6c-3.7 1.7-5.7 2.7-5.6 3.5 0.1 1 3.8 1.7 12.1 3.5zm31.1-138.6c1 0.3 2.2 0.5 2.5 0.6 0.3 0 1.6-2.3 3-5.1 2.8-6.2 14.8-24.7 17.2-26.7 1.3-1 1.7-3.1 1.7-9.2 0-10.5-1.5-17-5.3-22.6-4.4-6.5-9.5-9.3-17.5-9.3-16.2 0-26.2 14.1-26.2 37 0 8.6 3.3 25.6 5.4 27.6 1.3 1.4 11.5 4.8 12.2 4.1 0.3-0.2 1.1-5.8 1.9-12.3l1.3-11.9-6.5-10.3c-4.7-7.4-6.3-10.6-5.5-11.4 1.8-1.8 3.7-0.2 7.8 6.6 2.1 3.6 4.2 6.6 4.5 6.6 0.3 0 1.1-5.7 1.9-12.6 0.9-9 1.7-12.7 2.7-13.1 3.1-1.2 3.3 1.4 1.4 17.3-1 8.7-1.7 16.1-1.5 16.3 0.2 0.2 2.6-2.2 5.5-5.3 5.2-5.7 7.5-6.8 8.6-4 0.4 1.1-1.9 4.1-7.5 9.7l-8.1 8.2-0.7 9.7c-0.6 8.9-0.5 9.6 1.2 10.1zm29.4 134.1c0 2.7 14.7-5.5 22.4-12.5 19.5-17.9 23.5-42.2 10.9-66.8-4.5-8.9-7.2-11.7-6.5-6.8 0.2 1.2 0.4 8.3 0.5 15.7 0.3 24.4-6.7 44.8-21.4 62.7-3.2 3.9-5.9 7.4-5.9 7.7zm-104.6-57.5c-5 1.4-7 1.3-11.9-0.4-4.9-1.7-10.5-7.6-10.5-10.9 0-4.2 2.1-4.1 5.7 0.2 5.9 7.1 14.1 7.9 20.8 2 3.6-3.1 6.5-3.2 6.5-0.2 0 2.6-6.2 8.1-10.6 9.3zm27.1-23.3c-1.5 1.5-3.6 2.4-5.5 2.4-5.8 0-9.6-6.5-7.4-12.5 0.8-1.9 5.5-4.5 8.4-4.5 3.4 0 7 4.4 7 8.5 0 2.5-0.8 4.4-2.5 6.1zm-47-5c-3.4 3.4-8.6 3.3-11.4-0.2-6.4-8.1 4.2-18.2 11.4-10.9 1.6 1.5 2.5 3.6 2.5 5.5 0 2-0.9 4-2.5 5.6z"/><path class="c" d="m65 205.1c-18.2-11-31.6-27.8-34.9-43.9-1.5-7.5-1.4-22.7 0.4-29.2q4.2-15.9 16.4-28c12.2-12.1 27-19.1 43.1-20.6l7-0.7v6.7c0 5.9 0.2 6.6 2 6.6 2.6 0 4-2.9 4-8.4v-4.6h4.2c9.2 0 12 1.1 17.1 6.4 5.5 5.8 11.9 18 14.4 27.6 3.8 14.7 1.4 35.6-5.7 50.9-9.3 19.8-28.4 35.4-48.5 39.6-10.3 2.2-12.3 1.9-19.5-2.4zm291.8 120.4c-20 3.9-47.4-0.2-55.3-8.4-2.5-2.7-2.7-3.5-2.2-7.8 0.3-3.2 1.2-5.3 2.7-6.5 4.1-3.3 6.8-3.2 16.9 0.2 8.4 2.9 11 3.3 20.1 3.4 9.1 0.1 11.5-0.3 18-2.7 15.6-5.7 24-16.1 24-29.5-0.1-11-5.5-19.4-14.9-22.7-4.4-1.5-17.6-1.9-23.6-0.6-2.8 0.6-3 1-3.3 5.5-0.2 2.7 0.2 8.7 0.8 13.5 2.3 17.3 2.4 20.9 0.7 23.4-3.7 5.6-12.6 5.9-17.1 0.6-2.7-3.2-2.8-3.5-4.7-13.4-2.8-14.7-2.1-63.7 1.1-75.6 1.9-7.1 9.5-10.8 15.8-7.5 5.1 2.6 5.5 4.3 4.7 19.2q-0.1 1.1-0.1 2.1c-0.4 7-0.6 10.1 0.7 11 1 0.6 2.9-0.1 6.3-1.4q0.6-0.2 1.3-0.4c10.5-4 20.3-15.9 20.3-24.9 0-5.8-3.8-12.1-9.4-15.5-4.7-2.8-5.5-3-15.6-3-10.2 0-10.9 0.1-18.2 3.7-6.2 3.1-8.5 4.9-12.9 10.5-5.2 6.5-5.7 6.8-10.3 7.1-8.4 0.6-13.1-5-10.7-12.9 1.9-6.3 13.5-17.9 22.4-22.3 28.9-14.2 62.8-7 73.3 15.7 2.5 5.4 2.9 7.4 2.9 15.2 0 11-2 16.9-8.6 25.7l-4.7 6.3 5.2 2.8c10.1 5.5 17 14.5 20.1 26.2 7.3 28.1-13.4 56.6-45.7 63zm171.5-29.4c-11.1 2.8-21.4 2.5-28.3-0.7-3-1.4-6.3-3.3-7.4-4.2-3.5-3.2-6.5-10.8-7.7-19.8-1.5-11.4-0.6-44.5 1.6-57.3 2.1-12.9 4.4-16.8 12-20.6 5.6-2.8 6.7-3 17-2.9 6 0 14.4 0.6 18.5 1.3 6.2 1.1 8 1.9 10.7 4.6 3.9 3.9 4.2 7.4 1.3 12.2-2.6 4.3-5.5 4.9-17 3.5-12.2-1.6-17.5-1.5-18.8 0.1-1.2 1.5-3.2 12.4-3.2 17.9q0 0.4 0 0.7c0 1.2 0 1.9 0.4 2.4 0.7 0.9 2.8 0.6 9-0.2q0.8-0.1 1.7-0.2c10-1.3 13.1-0.8 16.5 2.6 2.9 2.9 3.3 8.8 0.8 12.4-2.1 2.9-7.2 5.1-11.9 5.1-2 0-6.8 0.5-10.7 1.2l-7 1.1 0.7 8c1.1 13.1 2.4 14.3 13.5 13.5 4.4-0.3 7.9-1.4 13-4.1 7.9-4.1 9.7-4.4 14-2.2 3.6 1.9 5 4.3 5 8.9 0 7.2-7.6 12.5-23.7 16.7zm-75.3 0.5c-20.1 4.2-33.5-0.9-39.1-15.1-2.3-5.8-2.4-6.8-2.3-33.5 0-28.9 1.1-38.7 5.1-46.9 4.3-8.6 15.8-12 34.3-10.2 18.4 1.9 23 4.4 23 12.1 0 5.2-1.3 7.6-5 9.5-2.6 1.4-3.9 1.4-12.2 0-10.9-1.8-19.4-1.9-20.3-0.4-1 1.5-3 20.7-2.3 21.5 0.3 0.3 4.9 0 10.1-0.7 10.7-1.4 14.2-0.6 17.7 3.9 5.6 7.1-0.9 16.2-11.5 16.2-2 0-6.8 0.5-10.7 1.2l-7.1 1.1 0.6 7.8c0.3 4.2 1.1 9 1.9 10.5 1.3 2.8 1.5 2.9 9.4 2.9 7.4 0 8.6-0.3 15.2-3.8 7.9-4.1 9.9-4.4 14.2-2.2 3.7 1.9 5 4.3 5 9.2 0 3.1-0.7 4.6-3.3 7.1-3.8 3.7-13.4 7.8-22.7 9.8zm-330.5-69.7c-8.3-1.8-12-2.5-12.1-3.5-0.1-0.8 1.9-1.8 5.6-3.5q0.5-0.3 1.1-0.6c30-14.4 48.9-45.1 49.3-79.8 0-6.1-0.2-12.9-0.7-15.2l-0.7-4.2 4.2-0.5c2.4-0.3 6.9-0.8 10-1.1l5.6-0.6 1.9 7.8c3.7 15.8 1.6 38.9-5 55.2-7 17.2-21 34.5-35.7 43.9-7.5 4.9-9.7 5.1-23.5 2.1zm786.3 55.6c-2.9 3.8-6 7.1-6.9 7.3-3.5 0.6-17.5-20.3-20.6-30.7-2.9-10.2 1.5-20.4 10.8-25.2 7.6-3.8 19-1.9 24.5 4.2 9.2 10.2 6.6 25.4-7.8 44.4zm-469.8-114.8c-18.5 8.2-20 8.8-20 7.7 0-0.3 3.5-8.9 7.7-19.1 5.3-12.5 8.5-19.1 10-20.1 4.5-2.8 36.8-17.2 37.1-16.4 0.1 0.5-3.5 9.6-8 20.3l-8.3 19.3zm-256 54.8c0-0.3 2.7-3.8 5.9-7.8 14.7-17.8 21.7-38.3 21.4-62.7-0.1-7.4-0.3-14.4-0.5-15.7-0.7-4.9 2-2.1 6.5 6.8 12.6 24.6 8.6 49-10.9 66.8-7.7 7.1-22.4 15.3-22.4 12.6zm713.8 38c3.4 1.9 5.6 1.9 9.1 0.1 5.4-2.8 6.6-9.6 2.5-14.5-2.1-2.5-3.3-3.1-6.9-3.1-3.6 0-4.8 0.6-6.9 3.1-4.2 5-3.2 11.4 2.2 14.4zm-818.3-95.6c4.3-1.2 10.5-6.7 10.5-9.3 0-3-2.9-2.8-6.5 0.3-6.7 5.9-14.9 5.1-20.8-2.1-3.6-4.3-5.7-4.4-5.7-0.2 0 3.4 5.6 9.2 10.5 10.9 4.9 1.8 6.9 1.9 12 0.4zm27.1-23.3c1.6-1.7 2.4-3.6 2.4-6.1 0-4.1-3.6-8.5-7-8.5-2.9 0-7.6 2.6-8.4 4.6-2.2 5.9 1.6 12.4 7.4 12.4 2 0 4-0.9 5.6-2.4zm-47-5c1.5-1.6 2.4-3.6 2.4-5.6 0-1.9-0.9-4-2.4-5.5-7.3-7.2-17.9 2.9-11.5 10.9 2.8 3.5 8 3.6 11.5 0.2zm214.4 177.2c-3.8 6.3-8.9 3-5.4-3.5 1.8-3.4 1.8-3.6 0-4.6-4.4-2.6-5.9-4.4-5.3-6 0.9-2.2 3.9-2.1 8.7 0.4 3.7 1.8 4 2.3 4 6.2 0 2.5-0.8 5.6-2 7.5zm169.7-161.6c3.6 4 9.3 1.2 9.3-4.5 0-4.1-1.5-5.7-5.5-5.7-1.7 0-3.6 0.6-4.3 1.2-1.7 1.8-1.5 6.9 0.5 9zm208.2 182.3q-7.4 2.9-8.5 0c-1.1-2.7 0.4-4.2 5.7-6 5-1.6 5.3-1.6 6.5 0 1.8 2.5 0.8 4.2-3.7 6zm-358.9-22c-1.5 1.9-3.5 1.9-8 0-4.6-2.1-5.7-3.7-4.1-6.4 0.8-1.1 1.6-1.2 5.5-0.1 5.7 1.6 8.4 4.3 6.6 6.5zm602.4 3.5c-3.7 4.4-5.9 5.4-7.8 3.5-1.9-1.9-1.2-3.6 3.8-8.4 3-2.8 3.8-3.2 5.1-2.1 2.1 1.8 1.9 3.4-1.1 7zm-101.4-1.3c0 1.2-0.6 2.4-1.4 2.7-1.5 0.5-8.4-4.3-9.9-7-1-1.8 0.9-4.4 3.2-4.4 2.4 0 8.1 6.2 8.1 8.7zm-574.1 48.8q-7.4 2.9-8.5 0c-1.1-2.6 0.3-4 5.7-5.7 4.4-1.4 5.6-1.5 6.7-0.4 2 2 0.5 4.3-3.9 6.1zm626.4-29.6c-1.6 2.5-10.1 2.3-12.2-0.3-2.4-2.9-0.2-4.6 6-4.6 6.4 0 8.3 1.6 6.2 4.9zm-666.2-40.4q-0.6 0.3-1 0.5c-3.1 1.6-4.1 2.1-4.7 1.8-0.4-0.1-0.7-0.4-1.2-0.9-2-2.1-1.3-3.7 2.7-6.4 4.7-3.1 8.5-3 8.9 0.2 0.3 1.8-0.7 2.8-4.7 4.8zm-13.6 11c-3.2 4.2-5 4.9-7 2.9-2.1-2.1-2-2.6 2.3-7.3 2.7-3.1 4.2-4 5.5-3.5 2.4 0.9 2.1 4-0.8 7.9zm698.5 27.9c-2.1 2.1-10.2 3.1-11.7 1.5-3.1-3.1-0.5-5.4 6.6-6 3.3-0.3 4.6 0.1 5.5 1.4 0.8 1.3 0.7 2.1-0.4 3.1zm-506.6-207.6c-0.6 1-2.9 2.7-5.1 4-3.5 2-4.2 2-5.9 0.8-2.5-1.9-1.1-4.3 4.5-7.4 4-2.2 4.4-2.3 5.9-0.8 1.3 1.3 1.4 2.1 0.6 3.4zm342.5 179.2c-4.7 3.4-7.4 3.9-8.3 1.4-1.3-3.3 7.4-10 10.7-8.2 2.7 1.5 2 3.6-2.4 6.8zm-514.4 59.1c0 2.9-2.3 3.4-7.4 1.6-4-1.5-5.7-3.7-4.7-6.1 0.5-1.4 1.3-1.7 3.7-1.2 5.7 1.1 8.4 3 8.4 5.7zm692.4-34.5c-3 1.5-6.1 1.9-7.2 0.8-1.8-1.8-0.4-4.5 3.3-6.3q7.1-3.7 8.4-0.4c0.8 1.9-0.8 4-4.5 5.9zm-657.1-44.2c-0.3 1.9-1 2.2-6 2.5-4.9 0.2-5.8 0-6.8-1.9-0.9-1.6-0.8-2.4 0.1-3.5 1.4-1.7 4-1.8 9.2-0.4 3.1 0.9 3.8 1.5 3.5 3.3zm378.1 57.2c-0.6 2.8-9.8 3.3-12.1 0.7-2.7-2.9-0.6-5.3 4.6-5.3 5 0 8 1.9 7.5 4.6zm-440.5 0c-0.7 1.8-3.8 1.9-5.2 0.2-0.6-0.8-1.5-3.2-2-5.6-1.1-4.6 0.5-7.6 3.3-6.5 1.7 0.7 4.7 9.7 3.9 11.9zm421.5-1.9c-1.4 1.6-3 1.6-8.4 0-3.3-1-4-1.7-4-3.7 0-2.2 0.4-2.4 3.6-2.3 7.7 0.2 11.5 2.7 8.8 6zm-205.7-219.8c-1.1 0.6-3.8 1.4-6.1 1.7-4.3 0.7-6-0.7-4.8-4 0.7-1.6 7.8-3.9 10.5-3.4 2.5 0.5 2.7 4.5 0.4 5.7zm39.6 2.4c-0.7 4.8-12.3 1.8-12.3-3.2 0-3.4 2.3-3.7 8-1.1 3.8 1.6 4.6 2.4 4.3 4.3zm220 217.6c-6.3 1.9-7.8 2-9.3 0.5-2.2-2.2-0.7-4.2 3.9-5.4 2.2-0.6 4.6-1.2 5.2-1.4 1.6-0.5 3.4 1.5 3.4 3.6 0 1.1-1.2 2.1-3.2 2.7zm34-13.9c-4 2.4-7.4 2.6-8.2 0.5-0.8-2.2-0.3-2.8 5-6 4.1-2.4 4.8-2.5 6.2-1.1q3 3-3 6.6zm-432.3 29.2c-2.2 1.5-4.2 2.8-4.5 2.7-1.9-0.1-3-1.3-3-3.2 0-2.6 8.2-8.2 10.6-7.3 2.7 1.1 1.1 4.9-3.1 7.8zm573.3-30.8c-0.4 2.9-4.4 3.3-8.2 0.7-4.1-2.7-4.9-4.6-3-6.5 1.4-1.4 2-1.3 6.5 1 4 2 5 3 4.7 4.8zm-191.8 18.2c-1.7 2-10.3 1.9-12-0.1-2.2-2.6 0.9-4.6 7.1-4.8 4.4-0.1 5.4 0.2 5.7 1.7 0.2 0.9-0.2 2.4-0.8 3.2zm-277.6-202.6c-3.5 3.9-5.3 4.8-6.7 3.4-2.8-2.8 4.7-12.9 8-10.7 2.8 1.7 2.6 3-1.3 7.3zm55.4-23.2c-0.3 2.4-0.8 2.8-3.8 2.9-5.7 0.3-8.5-0.9-8.5-3.7 0-2.1 0.5-2.5 3.9-2.8 6.5-0.5 8.8 0.5 8.4 3.6zm431.7 213.3c0 2.1-0.5 2.5-3.5 2.7-4.5 0.3-8.4-1.7-8.8-4.5-0.5-3.1 1.7-3.7 7.5-2.1 4.1 1.2 4.8 1.8 4.8 3.9zm-657.7 24.6c-0.5 3-4.2 2.7-7.7-0.6-3.7-3.4-4-7.3-0.6-7.8 2.6-0.4 8.8 5.9 8.3 8.4zm69.7-65.6c0 2.9-2.3 3.4-7.4 1.6-4.5-1.7-6.1-4.1-4-6.2 1.4-1.4 2-1.4 6.5 0.3 4.1 1.5 4.9 2.2 4.9 4.3zm476.2 4.4l-0.4 0.2c-3 1.8-3.9 2.3-4.8 2.2-0.4-0.1-0.7-0.4-1.3-0.7-2.2-1.4-1-4.4 2.8-6.9 4.1-2.8 7.4-2.6 7.8 0.4 0.3 1.7-0.7 2.8-4.1 4.8zm65.1 7.4c-0.4 3.4-2.8 3.8-5.5 0.9-4.5-5-5.2-9.8-1.3-9.8 2.7 0 7.2 5.8 6.8 8.9zm-580.8-13.7c-4.8 1.3-10 0.9-10.7-0.7-1-2.8 2.1-4.6 7.8-4.8 5.1-0.1 5.4 0 5.4 2.3 0 1.8-0.7 2.7-2.5 3.2zm345.8 36.3c-0.4 3-3.7 3-8.1 0-2.8-1.9-3.7-3.2-3.5-4.8 0.4-3.1 3.1-3.1 7.8 0 3 1.9 4 3.3 3.8 4.8zm-281.8 5.9c-3.1 3.5-4.9 4.4-6.3 3-2.3-2.3 3.3-11.6 6.7-11.2 3.3 0.5 3.1 4.2-0.4 8.2zm21-46.8c-3.2 3.8-6.1 0.6-5-5.4 0.9-5 2.1-6.5 4.6-6 1.6 0.3 1.9 1.3 1.7 5.2-0.1 2.6-0.7 5.4-1.3 6.2zm-79.5 81.4c0 2.4-0.3 2.6-6.3 2.8-6.5 0.4-8.2-0.7-6.8-4.3 0.5-1.2 1.9-1.5 6.8-1.2 6 0.2 6.3 0.4 6.3 2.7zm357.3-31.7c-0.4 3.1-3.5 3.2-8.3 0.5-7.8-4.5-3.7-8.9 4.5-4.8 3.2 1.7 4.1 2.6 3.8 4.3zm-293.4-117.8c-1 2.5-3.8 1.8-7.3-1.8-3.5-3.7-3.8-6.9-0.7-7.5 3.2-0.6 9.2 6.2 8 9.3zm-11.9 81.6c0 3.3-2.9 3.6-8 0.7-7.6-4.4-3.9-8.8 4.2-5.1 2.9 1.4 3.8 2.5 3.8 4.4zm427.6 19.7c-3.9 2.6-6.9 2.9-7.7 0.7-0.8-1.8 0.8-3.8 5.2-6.5 6.7-4.1 9 1.4 2.5 5.8zm-398.2-52c-1 2.6-4.4 3-5.3 0.7-2-5.3 0.4-12.4 3.8-11.1 1.7 0.6 2.6 7.3 1.5 10.4zm243.9 48.7c-0.5 3.2-3.3 2.9-7.2-0.5-4-3.5-4.5-7.2-1.2-7.8 2.5-0.5 8.8 5.7 8.4 8.3zm-279.6 30.8c-2.1 2.1-4 3.7-4.2 3.7-1.9-0.3-3-1.4-3-2.8 0-2.5 7.5-9.5 9.4-8.8 2.7 1 1.8 4-2.2 7.9zm-92.6-24.3c-0.9 3.3-1.9 4.6-3.5 4.9-2.6 0.4-3.6-1.8-2.7-6 0.8-4 2.3-5.9 4.8-5.9 2.6 0 3 1.8 1.4 7zm126.2-75.5c-0.2 2.7-0.8 4.1-1.9 4.3-2.3 0.5-3.8-1.9-4.5-7.1-0.6-3.9-0.4-4.7 1.1-5.3 2.9-1.1 5.7 3.1 5.3 8.1zm-6-15.5c-0.5 4.1-3.4 3.7-6.3-1q-4.5-7.1 0.2-7.8c2.8-0.4 6.5 5.1 6.1 8.8zm1.8 70.6c-3.5 5.4-6.8 1.8-4.5-4.9 1.1-3.4 1.9-4.2 3.9-4.2 2.2 0 2.5 0.5 2.4 3.3-0.1 1.8-0.9 4.4-1.8 5.8zm49.9-143.6c-1.7 3.4-5.1 4.1-6.2 1.4-0.9-2.5 2.8-8.9 5.2-8.9 2.6 0 3.1 3.5 1 7.5zm95.6-24.5c-1.7 1.9-3.5 2-5.1 0.1-1.8-2.3-0.8-5.1 1.9-5.1 3.2 0 5 2.8 3.2 5zm476.8 172.2c-1.5 1.8-3.8 1.7-4.5-0.2-0.9-2.2 0.3-4.5 2.5-4.5 2.3 0 3.5 2.8 2 4.7z"/></svg>