<svg xmlns="http://www.w3.org/2000/svg" width="1024" height="1024" viewBox="0 0 1024 1024">
<g>
<path d="M 824.34 688.06 C813.34,692.24 796.39,681.40 783.03,661.63 C781.22,658.96 777.27,651.98 774.26,646.13 C771.24,640.28 768.61,635.22 768.41,634.89 C768.22,634.55 765.75,634.73 762.94,635.29 L 757.82 636.30 L 758.45 644.40 C758.80,648.86 759.54,656.58 760.09,661.57 C761.24,671.98 760.64,674.44 756.01,678.34 C750.73,682.78 741.83,681.31 739.22,675.57 C735.95,668.41 734.93,573.93 738.01,563.63 C740.66,554.74 751.13,550.56 769.28,551.15 C779.75,551.49 781.01,551.76 788.16,555.16 C797.28,559.51 802.68,564.62 806.61,572.61 C809.27,578.02 809.50,579.39 809.50,589.50 C809.50,599.75 809.29,600.95 806.37,607.11 C803.38,613.42 797.79,620.13 791.65,624.79 L 788.79 626.95 L 793.52 635.73 C799.56,646.93 807.34,658.21 811.59,661.95 C813.42,663.55 817.65,665.86 821.00,667.08 C828.38,669.77 831.00,672.75 831.00,678.45 C831.00,683.02 828.64,686.43 824.34,688.06 ZM 609.24 671.76 C600.76,675.67 587.80,676.04 579.66,672.61 C571.50,669.17 566.33,665.35 561.89,659.47 C553.69,648.60 550.51,637.59 550.50,620.00 C550.50,609.69 550.91,606.19 552.84,600.00 C557.81,584.08 566.25,572.94 577.50,567.44 C582.86,564.81 584.52,564.50 593.02,564.50 C601.73,564.50 603.10,564.77 609.11,567.73 C622.06,574.11 628.56,582.44 633.16,598.54 C636.24,609.32 636.26,627.86 633.21,639.14 C628.86,655.20 620.49,666.58 609.24,671.76 ZM 699.76 672.04 C692.48,675.23 679.53,675.78 672.33,673.21 C656.16,667.44 647.41,650.96 645.08,621.87 C644.25,611.59 644.96,591.97 646.54,581.50 C648.16,570.75 651.30,567.00 658.70,567.00 C664.23,567.00 666.54,568.21 668.58,572.16 C669.97,574.85 670.04,576.70 669.09,586.43 C667.56,602.06 667.74,625.10 669.44,633.14 C672.07,645.52 677.78,653.00 684.63,653.00 C692.03,653.00 696.32,648.56 699.60,637.50 C701.03,632.68 701.39,627.66 701.44,612.00 C701.47,601.28 701.10,586.79 700.60,579.82 L 699.70 567.14 L 702.77 564.07 C705.40,561.44 706.58,561.00 710.97,561.00 C720.04,561.00 721.70,564.35 724.05,587.46 C725.54,602.10 724.75,627.57 722.47,637.94 C718.66,655.32 710.71,667.26 699.76,672.04 ZM 532.22 682.08 C526.65,688.31 515.76,686.47 513.09,678.84 C509.99,669.97 508.62,649.77 508.68,614.00 C508.72,594.47 509.16,574.51 509.68,569.63 L 510.60 560.75 L 495.41 561.46 C482.49,562.06 479.75,561.92 477.12,560.56 C469.66,556.70 469.11,546.06 476.20,542.40 C478.15,541.39 486.59,540.49 503.75,539.46 C517.36,538.64 533.45,537.52 539.50,536.97 C564.66,534.66 565.41,534.64 568.78,536.38 C572.16,538.13 575.00,542.52 575.00,546.00 C575.00,549.61 572.00,554.10 568.66,555.50 C566.89,556.24 558.18,557.39 549.31,558.07 L 533.16 559.30 L 532.38 568.90 C530.93,586.59 531.50,639.13 533.32,656.00 C535.61,677.18 535.56,678.34 532.22,682.08 ZM 586.04 651.75 C591.11,654.35 593.80,654.54 598.28,652.62 C605.95,649.34 610.39,641.03 612.07,626.80 C614.00,610.38 610.57,596.46 602.88,589.51 C599.47,586.43 598.34,586.00 593.73,586.00 C586.69,586.00 582.33,589.01 578.30,596.66 C574.56,603.75 573.00,610.72 573.00,620.34 C573.00,634.80 578.41,647.84 586.04,651.75 ZM 758.01 599.89 L 758.00 614.28 L 763.00 613.69 C777.77,611.94 787.00,602.74 787.00,589.79 C786.99,578.14 781.19,572.91 767.48,572.19 L 759.31 571.77 L 758.66 578.63 C758.31,582.41 758.01,591.98 758.01,599.89 ZM 700.51 768.56 C695.91,770.48 691.24,770.37 687.07,768.25 C682.10,765.71 679.73,761.93 679.28,755.79 C678.38,743.57 688.23,736.14 699.59,740.48 C705.72,742.82 707.99,746.62 707.99,754.50 C707.99,761.80 705.51,766.47 700.51,768.56 ZM 733.73 767.65 C731.88,768.62 727.24,769.53 722.85,769.79 C716.07,770.19 715.09,770.03 714.17,768.33 C713.16,766.43 712.74,745.12 713.66,741.75 C714.06,740.27 715.36,740.00 722.12,740.00 C735.06,740.00 740.00,743.92 740.00,754.18 C740.00,761.30 738.10,765.37 733.73,767.65 ZM 285.65 768.36 C281.97,770.11 275.84,770.42 272.42,769.03 C266.83,766.77 263.15,758.63 264.35,751.22 C266.57,737.56 284.95,734.73 291.25,747.07 C295.05,754.52 292.23,765.24 285.65,768.36 ZM 495.11 767.39 C491.58,769.43 477.22,770.95 475.75,769.44 C475.34,769.01 475.00,762.46 475.00,754.87 L 475.00 753.99 C475.00,745.50 475.00,741.75 476.83,740.26 C478.28,739.09 480.89,739.34 485.55,739.79 L 486.16 739.85 C494.85,740.68 498.54,742.64 500.58,747.55 C503.72,755.05 501.30,763.81 495.11,767.39 ZM 809.81 767.98 C805.87,770.38 798.74,770.59 794.76,768.43 C788.75,765.17 786.13,753.74 789.68,746.27 C792.87,739.55 803.94,737.12 810.83,741.63 C813.67,743.48 816.96,750.40 816.96,754.50 C816.96,759.19 813.49,765.73 809.81,767.98 ZM 527.76 768.01 C524.38,770.06 518.16,770.54 514.42,769.03 C508.83,766.77 505.15,758.63 506.35,751.22 C508.57,737.56 526.95,734.73 533.25,747.07 C537.04,754.50 534.59,763.84 527.76,768.01 ZM 334.80 763.75 C334.54,768.81 334.24,769.54 332.29,769.81 C329.26,770.25 328.86,768.08 329.21,753.00 L 329.50 740.50 L 338.76 740.21 C347.48,739.94 348.16,740.07 350.51,742.42 C351.88,743.79 353.00,746.07 353.00,747.50 C353.00,750.85 350.55,755.57 348.39,756.40 C346.85,756.99 346.88,757.25 348.73,759.28 C353.42,764.44 354.60,770.37 350.81,769.82 C349.36,769.61 347.48,767.55 345.27,763.75 C342.22,758.53 341.60,758.00 338.51,758.00 L 335.10 758.00 ZM 609.00 759.99 C608.58,768.00 608.23,769.53 606.75,769.81 C605.78,770.00 604.76,769.53 604.47,768.78 C604.18,768.02 604.07,761.13 604.22,753.45 C604.48,740.29 604.61,739.50 606.49,739.50 C607.94,739.50 609.84,741.86 613.49,748.19 C616.24,752.97 618.80,757.17 619.16,757.52 C619.52,757.86 621.89,754.34 624.43,749.67 C629.83,739.77 631.32,738.19 633.50,740.00 C634.69,740.99 635.00,743.89 635.00,754.04 C635.00,767.59 634.61,770.00 632.43,770.00 C629.78,770.00 628.77,766.00 629.43,758.12 C630.03,751.00 629.96,750.63 628.46,752.50 C627.57,753.60 625.93,756.30 624.81,758.50 C622.54,762.94 620.12,766.00 618.87,766.00 C618.42,766.00 616.13,762.51 613.78,758.25 L 609.50 750.50 ZM 447.13 766.50 C445.10,769.94 442.73,770.99 441.49,768.99 C440.63,767.60 452.79,740.29 454.57,739.61 C455.36,739.31 456.60,739.29 457.33,739.57 C458.74,740.11 471.00,766.12 471.00,768.57 C471.00,771.51 466.99,770.05 465.30,766.50 L 463.63 763.00 L 456.41 763.00 C449.23,763.00 449.19,763.01 447.13,766.50 ZM 392.48 769.01 C387.68,770.83 379.61,770.21 375.90,767.73 C367.24,761.94 366.75,747.82 375.00,741.83 C380.91,737.53 394.00,739.08 394.00,744.07 C394.00,746.03 393.67,746.17 390.75,745.44 C380.50,742.90 375.00,746.10 375.00,754.63 C375.00,758.32 375.55,759.71 377.98,762.14 C380.51,764.67 381.61,765.07 385.23,764.81 C389.24,764.52 389.52,764.30 389.81,761.25 C390.09,758.39 389.84,758.00 387.69,758.00 C384.73,758.00 382.20,755.40 383.70,753.90 C384.26,753.34 386.92,753.02 389.61,753.19 L 394.50 753.50 L 394.79 760.76 C395.08,767.78 395.00,768.05 392.48,769.01 ZM 780.78 768.44 C777.98,770.40 768.70,770.44 764.27,768.52 C759.65,766.51 757.01,761.65 757.00,755.15 C757.00,748.66 759.32,743.40 763.03,741.48 C770.06,737.85 781.17,739.19 781.82,743.75 C782.18,746.31 781.31,746.47 775.96,744.87 C771.51,743.54 767.72,744.28 764.97,747.03 C761.87,750.13 762.19,759.28 765.51,762.60 C767.61,764.70 768.80,765.06 772.76,764.80 C777.30,764.51 777.51,764.37 777.81,761.25 C778.08,758.43 777.82,758.00 775.81,757.98 C772.56,757.96 770.60,756.49 771.32,754.60 C772.07,752.66 779.96,752.36 781.80,754.20 C782.46,754.86 783.00,757.98 783.00,761.14 C783.00,765.94 782.64,767.14 780.78,768.44 ZM 420.13 768.43 C418.46,769.30 415.01,770.00 412.45,770.00 C408.54,770.00 407.29,769.49 404.56,766.75 C401.58,763.76 401.27,762.85 400.77,755.50 C400.04,744.68 400.93,739.50 403.52,739.50 C405.34,739.50 405.54,740.37 406.00,750.15 C406.56,762.08 407.97,765.00 413.15,765.00 C418.62,765.00 420.00,762.20 420.00,751.12 C420.00,743.56 420.35,740.95 421.50,740.00 C422.70,739.01 423.30,739.01 424.50,740.00 C425.64,740.95 426.00,743.51 426.00,750.65 C426.00,761.65 424.51,766.17 420.13,768.43 ZM 571.65 766.62 C569.68,768.91 568.36,769.40 563.40,769.69 C556.50,770.09 551.00,768.11 551.00,765.21 C551.00,762.35 551.98,761.94 555.08,763.54 C557.98,765.04 563.62,765.47 566.42,764.39 C567.29,764.06 568.00,762.73 568.00,761.44 C568.00,759.39 567.09,758.81 561.03,757.01 C553.62,754.80 551.00,752.45 551.00,748.00 C551.00,742.09 557.48,738.25 565.44,739.44 C570.87,740.25 573.55,742.12 572.65,744.47 C572.15,745.78 571.41,746.03 569.74,745.47 C565.32,743.97 558.81,744.39 557.62,746.25 C556.10,748.65 557.84,751.22 561.58,752.10 C563.19,752.48 565.75,753.08 567.28,753.42 C573.80,754.90 576.01,761.55 571.65,766.62 ZM 317.91 768.55 C316.36,769.35 313.16,769.97 310.80,769.94 C300.69,769.79 298.01,765.90 298.00,751.37 C298.00,743.59 298.35,740.96 299.50,740.00 C300.70,739.01 301.30,739.01 302.50,740.00 C303.65,740.95 304.00,743.56 304.00,751.12 C304.00,762.20 305.38,765.00 310.85,765.00 C316.03,765.00 317.44,762.08 318.00,750.15 C318.46,740.33 318.66,739.50 320.50,739.50 C322.36,739.50 322.52,740.26 322.79,750.46 C323.11,762.81 322.15,766.35 317.91,768.55 ZM 672.46 769.02 C665.80,771.55 657.10,769.14 653.60,763.80 C649.65,757.75 650.88,746.96 656.02,742.63 C661.63,737.91 674.88,738.42 675.84,743.40 C676.44,746.50 674.53,747.32 670.99,745.50 C667.05,743.46 662.08,744.15 659.39,747.12 C658.02,748.63 657.50,750.72 657.50,754.69 C657.50,759.46 657.87,760.49 660.31,762.59 C663.55,765.38 667.76,765.69 672.07,763.47 C674.74,762.09 675.10,762.09 675.62,763.47 C676.53,765.82 675.32,767.93 672.46,769.02 ZM 598.82 767.25 C598.52,769.36 597.96,769.52 590.00,769.76 C585.33,769.90 580.92,769.64 580.22,769.18 C579.26,768.55 579.01,764.88 579.22,754.42 L 579.50 740.50 L 589.00 740.50 C596.78,740.50 598.50,740.77 598.50,742.00 C598.50,743.17 596.90,743.56 591.25,743.79 L 584.00 744.09 L 584.00 752.00 L 590.53 752.00 C595.60,752.00 597.20,752.36 597.68,753.60 C598.58,755.96 596.22,756.97 589.75,756.98 L 584.00 757.00 L 584.00 765.00 L 591.57 765.00 C598.85,765.00 599.13,765.09 598.82,767.25 ZM 516.23 764.33 C518.07,765.07 522.58,765.10 524.46,764.38 C526.77,763.49 529.00,758.69 529.00,754.60 C529.00,745.09 521.08,740.77 514.92,746.92 C512.64,749.21 512.00,750.75 512.00,753.97 C512.00,758.33 514.10,763.47 516.23,764.33 ZM 274.23 764.33 C276.07,765.07 280.58,765.10 282.46,764.38 C284.77,763.49 287.00,758.69 287.00,754.60 C287.00,745.09 279.08,740.77 272.92,746.92 C270.64,749.21 270.00,750.75 270.00,753.97 C270.00,758.33 272.10,763.47 274.23,764.33 ZM 688.52 762.75 C692.19,765.94 697.25,765.77 699.93,762.37 C703.05,758.39 702.84,749.75 699.55,746.45 C693.27,740.18 683.81,747.18 685.37,756.95 C685.70,759.01 687.02,761.45 688.52,762.75 ZM 796.45 762.55 C801.47,767.56 809.10,764.34 810.55,756.60 C812.35,746.97 802.81,740.10 796.45,746.45 C794.43,748.48 794.00,749.90 794.00,754.50 C794.00,759.10 794.43,760.52 796.45,762.55 ZM 719.50 744.50 L 718.93 765.00 L 723.01 765.00 C729.05,765.00 732.73,762.71 733.94,758.21 C735.54,752.28 733.72,747.20 729.33,745.36 C727.39,744.55 724.38,744.03 722.65,744.19 ZM 481.00 744.00 L 481.00 765.00 L 485.07 765.00 C490.17,765.00 492.57,763.73 494.49,760.02 C498.65,751.97 493.70,744.00 484.55,744.00 ZM 252.78 756.75 C252.52,768.72 252.37,769.52 250.46,769.79 C249.34,769.95 248.10,769.77 247.71,769.38 C247.32,768.99 247.00,763.12 247.00,756.33 L 247.00 744.00 L 242.00 744.00 C237.67,744.00 237.00,743.73 237.00,742.00 C237.00,740.10 237.67,740.00 250.00,740.00 C262.33,740.00 263.00,740.10 263.00,742.00 C263.00,743.73 262.33,744.00 258.03,744.00 L 253.06 744.00 ZM 436.50 754.49 C436.50,767.97 436.32,769.51 434.75,769.81 C433.78,770.00 432.76,769.53 432.47,768.78 C432.18,768.02 432.07,761.13 432.22,753.45 C432.48,740.26 432.61,739.50 434.50,739.50 C436.41,739.50 436.50,740.17 436.50,754.49 ZM 750.50 754.49 C750.50,767.97 750.32,769.51 748.75,769.81 C747.78,770.00 746.76,769.53 746.47,768.78 C746.18,768.02 746.07,761.13 746.22,753.45 C746.48,740.26 746.61,739.50 748.50,739.50 C750.41,739.50 750.50,740.17 750.50,754.49 ZM 335.00 744.00 L 335.00 753.00 L 339.80 753.00 C345.09,753.00 347.00,751.76 347.00,748.34 C347.00,745.48 344.29,744.00 339.07,744.00 ZM 451.28 756.75 C450.92,757.65 452.23,758.00 455.98,758.00 C458.83,758.00 461.02,757.66 460.83,757.25 C460.65,756.83 459.65,754.36 458.61,751.75 C457.58,749.14 456.39,747.00 455.97,747.00 C455.33,747.00 454.36,749.01 451.28,756.75 ZM 700.00 730.31 C700.00,731.04 698.70,732.87 697.11,734.39 C693.75,737.62 692.42,736.19 694.66,731.75 C696.09,728.93 700.00,727.88 700.00,730.31 Z" fill="rgb(20,69,109)"/>
<path d="M 537.50 332.24 C537.50,335.61 534.25,335.54 528.74,332.05 C524.13,329.13 518.52,321.87 517.38,317.36 C516.91,315.49 515.88,315.13 509.17,314.54 C504.95,314.16 497.06,312.97 491.63,311.89 C486.20,310.80 481.38,310.05 480.92,310.21 C479.13,310.84 484.34,319.74 489.06,324.11 C492.37,327.18 493.84,329.25 493.44,330.29 C490.76,337.29 478.73,326.44 474.42,313.13 L 472.33 306.70 L 464.42 303.88 C460.06,302.33 455.94,301.04 455.25,301.03 C451.64,300.95 456.53,312.14 462.28,317.12 C465.94,320.28 466.29,320.94 465.11,322.37 C460.37,328.07 451.01,317.70 447.56,302.93 C446.77,299.56 445.99,296.67 445.81,296.52 C445.64,296.36 442.80,294.88 439.50,293.22 C430.40,288.64 416.41,278.27 410.44,271.67 C400.12,260.27 392.98,242.21 393.02,227.59 C393.08,203.73 405.45,182.61 428.00,167.89 L 430.47 166.28 L 426.74 160.67 C422.58,154.41 414.74,147.70 408.11,144.74 L 403.72 142.78 L 401.29 145.89 C399.39,148.31 398.08,149.00 395.36,149.00 C388.84,149.00 385.08,145.68 385.03,139.88 C384.94,130.02 398.01,126.32 402.48,134.96 C403.34,136.63 404.85,138.00 405.83,138.00 C411.91,138.00 425.46,148.37 432.04,158.05 L 435.94 163.81 L 443.72 161.33 C448.00,159.97 455.10,158.36 459.50,157.74 C463.90,157.13 467.61,156.56 467.75,156.48 C467.88,156.40 467.27,153.90 466.39,150.92 C464.49,144.54 460.70,136.79 457.26,132.28 C454.88,129.15 454.62,129.07 449.15,129.63 C444.36,130.12 443.09,129.89 440.83,128.09 C433.43,122.23 438.14,111.00 448.00,111.00 C452.16,111.00 456.00,114.88 456.00,119.10 C456.00,121.50 457.10,123.47 460.42,127.01 C466.42,133.44 470.92,142.82 473.39,154.10 C473.92,156.51 474.48,156.76 480.73,157.36 C484.45,157.71 489.83,158.28 492.68,158.63 L 497.86 159.26 L 496.02 151.88 C490.35,129.25 494.15,109.77 506.50,98.09 C525.11,80.49 552.32,93.52 553.82,120.75 C554.04,124.74 554.41,128.00 554.64,128.00 C554.88,128.00 558.32,125.80 562.28,123.12 C576.19,113.71 584.95,110.64 597.77,110.68 C604.91,110.70 606.82,111.10 611.74,113.62 C618.32,116.98 624.16,123.92 626.02,130.59 C626.68,132.95 627.06,138.20 626.85,142.26 C626.01,158.94 612.81,175.99 593.09,185.86 C587.45,188.68 580.38,191.70 577.39,192.58 L 571.94 194.16 L 579.22 201.92 C592.23,215.79 598.65,230.12 599.72,247.70 L 600.29 256.90 L 604.36 260.17 C611.79,266.14 624.09,277.25 623.70,277.64 C623.49,277.85 617.06,278.48 609.41,279.04 C601.76,279.60 594.51,280.28 593.31,280.54 C592.10,280.80 589.63,283.09 587.81,285.63 C581.01,295.13 565.79,305.52 552.75,309.58 C549.59,310.56 547.00,311.79 547.00,312.31 C547.00,314.17 554.41,320.21 559.91,322.84 C564.48,325.02 565.50,325.95 565.50,327.99 C565.50,331.48 563.14,331.60 556.46,328.44 C549.81,325.29 544.93,321.24 541.91,316.35 L 539.73 312.83 L 533.79 313.52 C530.52,313.90 526.73,314.51 525.37,314.88 L 522.89 315.54 L 525.22 319.00 C526.50,320.90 529.79,324.14 532.52,326.21 C535.92,328.78 537.50,330.69 537.50,332.24 ZM 435.50 284.47 C441.25,287.98 441.80,288.12 448.50,287.64 C470.29,286.09 490.90,271.70 501.68,250.50 C508.87,236.36 510.50,229.43 510.37,213.50 C510.29,203.78 509.77,198.84 508.31,193.92 C505.77,185.32 500.12,175.34 494.22,169.02 C489.51,163.97 489.48,163.95 481.88,163.34 L 474.27 162.73 L 473.58 167.61 C472.56,174.81 472.06,176.00 470.04,176.00 C467.55,176.00 466.85,173.65 467.61,167.87 L 468.26 163.00 L 463.79 163.00 C456.68,163.00 444.28,166.60 434.10,171.61 C408.58,184.17 394.48,212.57 400.44,239.37 C404.47,257.51 416.29,272.70 435.50,284.47 ZM 532.12 193.14 C533.79,194.24 547.73,193.31 557.86,191.43 C592.96,184.89 616.20,167.75 620.92,144.90 C623.97,130.17 614.89,117.62 600.23,116.29 C582.50,114.68 561.32,126.87 546.85,147.00 C537.19,160.43 532.41,170.51 527.48,187.83 C526.96,189.66 528.71,188.62 535.66,182.99 C540.52,179.05 545.02,175.16 545.66,174.35 C546.30,173.53 547.33,169.86 547.96,166.18 C549.73,155.83 550.95,152.00 552.48,152.00 C554.77,152.00 554.92,153.22 553.46,160.03 L 553.37 160.43 C552.35,165.18 551.81,167.70 552.59,168.21 C553.47,168.79 556.00,166.87 561.38,162.78 L 561.78 162.47 L 571.57 155.03 L 573.96 142.99 C576.29,131.31 578.21,127.10 579.94,129.91 C580.62,131.00 579.40,139.89 577.50,147.75 C577.21,148.99 577.17,150.00 577.43,150.00 C577.68,150.00 584.05,145.25 591.58,139.45 C604.40,129.59 607.78,127.84 608.71,130.64 C608.92,131.26 602.46,136.89 594.36,143.14 L 579.62 154.50 L 585.06 155.15 C588.05,155.51 593.31,155.85 596.75,155.90 C602.45,155.99 603.00,156.19 603.00,158.16 C603.00,160.29 602.88,160.31 588.36,159.68 L 573.73 159.05 L 565.36 165.58 C560.76,169.17 557.00,172.53 557.00,173.05 C557.00,173.57 560.74,174.00 565.31,174.00 C573.96,174.00 578.07,175.46 576.51,177.98 C575.89,178.98 572.85,179.11 562.79,178.56 L 549.86 177.86 L 540.30 185.04 C533.14,190.43 531.09,192.45 532.12,193.14 ZM 499.00 307.33 C506.77,308.56 510.64,307.98 515.55,304.86 C529.44,296.06 540.84,283.17 548.59,267.50 C555.58,253.37 557.97,243.92 558.60,228.00 C558.98,218.32 558.69,213.58 557.30,207.00 L 555.50 198.50 L 546.00 198.86 C540.78,199.06 536.22,199.39 535.88,199.59 C535.54,199.79 535.63,201.88 536.09,204.23 C537.53,211.68 537.06,227.06 535.11,236.52 C529.27,264.81 511.06,287.93 485.33,299.71 C481.53,301.45 480.18,302.51 481.12,303.00 C482.51,303.74 494.32,306.60 499.00,307.33 ZM 523.54 167.65 C524.55,168.39 525.72,169.00 526.12,169.00 C526.53,169.00 528.95,165.05 531.50,160.22 C534.04,155.38 538.46,148.34 541.31,144.56 C548.64,134.87 548.97,134.14 548.97,128.00 C548.97,104.75 534.11,90.73 517.20,98.01 C503.91,103.73 497.44,119.62 499.89,140.46 C500.49,145.52 501.79,152.33 502.78,155.58 C504.69,161.86 505.50,162.46 514.60,164.42 L 517.70 165.09 L 518.32 157.30 C518.66,153.01 519.20,147.48 519.53,145.00 C520.10,140.77 519.76,139.92 513.96,130.76 C508.26,121.77 507.09,118.00 509.99,118.00 C510.57,118.00 513.10,121.18 515.62,125.07 C518.13,128.96 520.35,131.99 520.54,131.79 C520.73,131.60 521.36,127.41 521.94,122.47 C523.67,107.76 523.87,107.00 526.05,107.00 C528.46,107.00 528.50,108.39 526.49,124.46 C526.39,125.29 526.29,126.08 526.19,126.84 C525.16,135.10 524.72,138.56 525.61,138.95 C526.25,139.22 527.58,137.90 529.87,135.62 C530.16,135.34 530.46,135.03 530.78,134.72 C533.96,131.57 537.11,129.00 537.78,129.00 C540.79,129.00 538.41,133.46 531.47,140.83 L 523.95 148.83 L 522.82 157.57 C521.78,165.65 521.83,166.40 523.54,167.65 ZM 556.76 296.62 C552.90,300.68 550.12,304.00 550.58,304.00 C551.03,304.00 555.70,301.91 560.95,299.36 C593.40,283.59 603.54,247.49 583.96,217.44 C581.65,213.90 579.63,211.00 579.47,211.00 C579.31,211.00 579.39,212.24 579.65,213.75 C579.91,215.26 580.37,222.41 580.67,229.64 C581.32,245.03 579.91,253.78 574.63,267.25 C569.54,280.21 564.54,288.43 556.76,296.62 ZM 451.93 243.54 C447.85,245.64 438.21,245.42 434.46,243.14 C430.51,240.73 426.00,235.34 426.00,233.03 C426.00,229.42 428.92,230.01 433.38,234.54 C437.54,238.76 438.08,239.00 443.35,239.00 C448.12,239.00 449.42,238.57 452.35,236.00 C456.09,232.72 458.48,232.19 459.35,234.47 C460.05,236.30 455.73,241.57 451.93,243.54 ZM 476.08 221.08 C474.47,222.68 472.33,223.97 471.33,223.94 C466.37,223.76 462.00,219.67 462.00,215.20 C462.00,211.99 467.17,207.00 470.50,207.00 C474.01,207.00 479.00,211.99 479.00,215.50 C479.00,217.10 477.84,219.31 476.08,221.08 ZM 429.50 215.82 C425.39,220.71 419.20,220.01 416.16,214.32 C413.20,208.75 417.08,203.00 423.80,203.00 C431.00,203.00 434.21,210.22 429.50,215.82 Z" fill="rgb(47,47,43)"/>
<path d="M 435.50 284.47 C416.29,272.70 404.47,257.51 400.44,239.37 C394.48,212.57 408.58,184.17 434.10,171.61 C444.28,166.60 456.68,163.00 463.79,163.00 L 468.26 163.00 L 467.61 167.87 C466.85,173.65 467.55,176.00 470.04,176.00 C472.06,176.00 472.56,174.81 473.58,167.61 L 474.27 162.73 L 481.88 163.34 C489.48,163.95 489.51,163.97 494.22,169.02 C500.12,175.34 505.77,185.32 508.31,193.92 C509.77,198.84 510.29,203.78 510.37,213.50 C510.50,229.43 508.87,236.36 501.68,250.50 C490.90,271.70 470.29,286.09 448.50,287.64 C441.80,288.12 441.25,287.98 435.50,284.47 ZM 279.90 707.95 C260.78,711.05 234.41,706.57 226.76,698.92 C223.60,695.76 223.15,691.54 225.49,687.01 C228.84,680.54 233.20,679.66 243.22,683.43 C262.81,690.81 285.15,688.11 297.42,676.90 C305.29,669.71 308.00,663.69 308.00,653.42 C308.00,645.82 307.76,644.88 304.75,640.45 C298.28,630.93 286.30,627.20 272.00,630.24 L 265.50 631.62 L 265.78 640.56 C265.93,645.48 266.71,653.78 267.51,659.00 C269.24,670.35 268.59,673.67 264.03,676.75 C259.94,679.52 255.52,679.62 251.29,677.03 C245.82,673.70 243.42,661.77 242.41,633.00 C241.72,613.25 243.90,585.04 246.50,580.00 C248.65,575.85 251.83,574.00 256.82,574.00 C260.50,574.00 261.76,574.56 264.74,577.54 C268.23,581.03 268.27,581.15 267.61,587.29 C267.24,590.70 266.66,597.04 266.31,601.36 L 265.69 609.23 L 269.09 608.50 C277.73,606.65 289.07,598.63 292.54,591.92 C299.10,579.23 294.10,566.48 281.04,562.60 C274.43,560.64 269.53,560.60 260.84,562.45 C251.30,564.47 248.49,566.19 239.39,575.61 C231.47,583.80 231.16,584.00 226.56,584.00 C222.68,584.00 221.33,583.48 218.92,581.08 C216.56,578.72 216.00,577.29 216.00,573.69 C216.00,569.97 216.75,568.20 220.44,563.19 C231.36,548.35 249.83,540.06 272.04,540.02 C288.14,539.99 299.15,544.10 308.66,553.70 C317.49,562.61 320.59,574.75 317.54,588.48 C316.18,594.60 314.70,597.83 310.36,604.21 C307.35,608.62 305.03,612.35 305.20,612.49 C305.36,612.64 307.30,613.66 309.50,614.77 C315.88,618.00 322.39,624.39 325.79,630.76 C343.54,664.06 321.46,701.20 279.90,707.95 ZM 383.30 677.39 C368.67,680.67 355.53,678.73 348.75,672.29 C339.84,663.83 336.90,646.54 338.94,614.65 C340.99,582.80 344.17,574.33 355.70,570.01 C365.44,566.37 393.66,568.14 399.95,572.79 C401.35,573.83 403.13,575.97 403.90,577.54 C405.90,581.62 403.68,587.72 399.28,590.28 C396.21,592.06 395.61,592.08 386.16,590.57 C374.22,588.68 367.60,588.57 366.21,590.25 C364.83,591.93 363.00,602.20 363.00,608.30 C363.00,613.16 363.04,613.22 365.75,612.63 C372.72,611.09 384.97,610.75 387.99,612.00 C393.44,614.26 395.51,621.17 392.49,627.02 C390.35,631.15 388.70,631.76 376.41,632.99 C367.26,633.90 363.74,634.03 362.55,635.76 C361.81,636.83 361.97,638.51 362.23,641.37 C362.28,641.91 362.34,642.49 362.39,643.12 C363.19,652.66 364.35,655.49 368.16,657.06 C372.46,658.85 379.03,657.55 388.73,653.01 C398.88,648.25 401.88,648.03 406.05,651.75 C410.62,655.84 411.14,661.49 407.37,665.97 C403.91,670.08 393.18,675.17 383.30,677.39 ZM 451.62 678.92 C447.35,679.51 443.55,679.96 443.18,679.92 C419.18,676.95 412.91,664.36 414.35,622.00 C415.55,586.63 418.52,576.51 429.38,570.71 C433.11,568.71 434.92,568.50 448.50,568.53 C465.20,568.56 473.32,570.23 477.60,574.51 C482.27,579.17 479.80,588.61 473.26,591.09 C471.59,591.73 468.00,591.54 462.14,590.52 C450.10,588.41 442.33,588.50 441.16,590.75 C439.96,593.06 438.00,604.66 438.00,609.46 C438.00,613.14 438.09,613.23 441.01,612.65 C448.80,611.09 460.01,610.76 463.00,612.00 C468.75,614.38 470.80,622.44 466.92,627.37 C463.85,631.28 462.15,631.88 450.82,633.11 C445.15,633.72 439.76,634.61 438.86,635.08 C437.52,635.80 437.31,637.15 437.70,642.72 C438.37,652.45 439.55,655.57 443.07,657.03 C447.58,658.90 454.49,657.54 463.50,653.02 C473.60,647.95 477.03,647.83 481.60,652.40 C487.21,658.01 485.64,665.48 477.87,670.24 C472.27,673.67 459.85,677.78 451.62,678.92 ZM 499.00 307.33 C494.32,306.60 482.51,303.74 481.12,303.00 C480.18,302.51 481.53,301.45 485.33,299.71 C511.06,287.93 529.27,264.81 535.11,236.52 C537.06,227.06 537.53,211.68 536.09,204.23 C535.63,201.88 535.54,199.79 535.88,199.59 C536.22,199.39 540.78,199.06 546.00,198.86 L 555.50 198.50 L 557.30 207.00 C558.69,213.58 558.98,218.32 558.60,228.00 C557.97,243.92 555.58,253.37 548.59,267.50 C540.84,283.17 529.44,296.06 515.55,304.86 C510.64,307.98 506.77,308.56 499.00,307.33 ZM 522.84 915.53 C521.16,917.44 519.44,919.00 519.01,919.00 C516.37,919.00 503.40,900.60 499.97,891.98 C497.09,884.76 497.02,875.84 499.78,870.46 C510.54,849.53 540.07,856.70 539.97,880.21 C539.93,889.80 533.14,903.80 522.84,915.53 ZM 363.26 546.65 C355.43,550.14 348.58,553.00 348.03,553.00 C347.48,553.00 347.81,551.05 348.77,548.67 C349.72,546.28 353.35,537.14 356.84,528.36 L 363.17 512.38 L 375.84 506.55 C396.24,497.16 404.00,494.01 404.00,495.10 C404.00,495.66 401.57,501.83 398.61,508.81 C395.64,515.79 391.80,524.93 390.06,529.13 C387.06,536.41 386.70,536.84 382.21,538.53 C379.62,539.51 371.09,543.16 363.26,546.65 ZM 556.76 296.62 C564.54,288.43 569.54,280.21 574.63,267.25 C579.91,253.78 581.32,245.03 580.67,229.64 C580.37,222.41 579.91,215.26 579.65,213.75 C579.39,212.24 579.31,211.00 579.47,211.00 C579.63,211.00 581.65,213.90 583.96,217.44 C603.54,247.49 593.40,283.59 560.95,299.36 C555.70,301.91 551.03,304.00 550.58,304.00 C550.12,304.00 552.90,300.68 556.76,296.62 ZM 512.69 886.59 C516.28,889.92 522.19,889.90 525.55,886.55 C527.42,884.67 528.00,883.03 528.00,879.63 C528.00,875.89 527.51,874.77 524.92,872.59 C520.82,869.14 516.13,869.14 512.67,872.60 C507.97,877.30 507.98,882.22 512.69,886.59 ZM 451.93 243.54 C455.73,241.57 460.05,236.30 459.35,234.47 C458.48,232.19 456.09,232.72 452.35,236.00 C449.42,238.57 448.12,239.00 443.35,239.00 C438.08,239.00 437.54,238.76 433.38,234.54 C428.92,230.01 426.00,229.42 426.00,233.03 C426.00,235.34 430.51,240.73 434.46,243.14 C438.21,245.42 447.85,245.64 451.93,243.54 ZM 476.08 221.08 C477.84,219.31 479.00,217.10 479.00,215.50 C479.00,211.99 474.01,207.00 470.50,207.00 C467.17,207.00 462.00,211.99 462.00,215.20 C462.00,219.67 466.37,223.76 471.33,223.94 C472.33,223.97 474.47,222.68 476.08,221.08 ZM 429.50 215.82 C434.21,210.22 431.00,203.00 423.80,203.00 C417.08,203.00 413.20,208.75 416.16,214.32 C419.20,220.01 425.39,220.71 429.50,215.82 ZM 439.79 861.00 C439.54,865.66 439.19,866.54 437.46,866.79 C436.34,866.95 435.10,866.77 434.71,866.38 C433.43,865.10 433.94,856.29 435.36,855.12 C436.11,854.50 436.52,852.94 436.28,851.66 C436.03,850.38 436.54,847.66 437.39,845.60 C438.64,842.62 439.42,841.92 441.23,842.18 C443.07,842.44 443.48,843.09 443.37,845.60 C443.30,847.30 442.53,850.23 441.65,852.10 C440.78,853.97 439.94,857.97 439.79,861.00 ZM 643.57 391.87 C641.31,396.23 639.67,397.21 637.42,395.56 C635.74,394.34 635.65,393.77 636.68,391.03 C637.80,388.07 637.66,387.72 634.22,384.56 C631.06,381.67 630.75,381.00 631.91,379.61 C633.75,377.39 634.62,377.55 640.16,381.10 C645.46,384.50 646.19,386.81 643.57,391.87 ZM 372.22 528.44 C375.21,530.54 377.60,530.40 380.00,528.00 C383.87,524.13 381.37,518.00 375.92,518.00 C370.25,518.00 367.68,525.26 372.22,528.44 ZM 342.10 498.82 C341.60,499.75 341.30,500.35 340.81,500.62 C339.97,501.08 338.59,500.55 334.70,499.05 L 334.34 498.91 C328.74,496.76 327.08,494.49 329.42,492.15 C330.66,490.91 331.57,490.86 334.86,491.84 C337.03,492.49 339.81,493.83 341.04,494.83 C342.93,496.36 343.09,496.96 342.10,498.82 ZM 621.08 697.45 C615.38,701.05 612.00,700.83 612.00,696.88 C612.00,694.24 620.84,688.41 622.90,689.70 C626.09,691.70 625.37,694.74 621.08,697.45 ZM 587.30 716.31 C582.57,718.69 579.34,719.12 578.03,717.54 C575.86,714.92 577.35,712.78 582.81,710.70 C587.64,708.87 588.26,708.83 589.70,710.27 C591.72,712.29 590.84,714.52 587.30,716.31 ZM 570.16 722.39 C564.51,723.97 560.28,724.04 559.06,722.57 C558.35,721.72 558.03,720.37 558.33,719.58 C558.91,718.08 564.86,716.02 568.63,716.01 C572.87,715.99 574.13,721.27 570.16,722.39 ZM 426.75 443.90 C425.51,444.37 422.59,445.07 420.25,445.46 C416.74,446.05 415.89,445.88 415.34,444.45 C414.27,441.67 416.36,439.58 421.54,438.28 C425.04,437.40 426.73,437.36 427.69,438.15 C429.74,439.86 429.23,442.96 426.75,443.90 ZM 678.46 487.71 C676.72,490.36 674.78,490.64 673.00,488.50 C671.99,487.28 672.12,486.11 673.67,482.33 C676.04,476.54 678.30,474.87 680.61,477.18 C681.99,478.56 682.07,479.36 681.11,482.12 C680.48,483.93 679.28,486.44 678.46,487.71 ZM 464.29 820.25 C456.51,826.17 452.24,821.15 459.89,815.08 C464.11,811.74 467.45,811.12 468.36,813.50 C469.21,815.71 468.32,817.18 464.29,820.25 ZM 299.08 495.86 C291.65,498.08 287.37,496.52 290.32,492.64 C292.90,489.24 302.29,487.70 303.36,490.50 C304.34,493.05 303.05,494.67 299.08,495.86 ZM 265.38 516.00 C261.49,520.30 259.94,520.84 258.02,518.53 C257.04,517.34 257.23,516.36 259.01,513.48 C262.03,508.60 265.51,506.35 267.51,508.00 C269.79,509.90 269.33,511.63 265.38,516.00 ZM 623.37 419.71 C620.39,423.71 615.70,426.30 614.18,424.78 C612.08,422.68 612.91,420.31 617.07,416.56 C621.31,412.73 622.65,412.49 624.40,415.27 C625.19,416.53 624.94,417.60 623.37,419.71 ZM 575.27 444.13 C574.76,444.64 572.10,445.32 569.36,445.64 C563.41,446.35 560.23,444.30 562.04,440.93 C562.88,439.36 564.16,439.00 568.97,439.00 C574.08,439.00 574.95,439.28 575.53,441.10 C575.90,442.26 575.78,443.62 575.27,444.13 ZM 609.82 368.70 C609.38,371.04 606.54,371.25 601.18,369.33 C596.28,367.58 595.00,365.57 597.30,363.27 C598.66,361.91 599.48,361.87 603.42,362.98 C608.50,364.40 610.33,366.04 609.82,368.70 ZM 513.82 720.25 C513.56,722.05 512.80,722.53 510.00,722.67 C503.13,723.01 498.90,720.31 500.36,716.51 C500.91,715.08 501.77,714.87 504.96,715.38 C511.85,716.48 514.17,717.76 513.82,720.25 ZM 551.98 724.37 C549.55,726.68 541.54,727.39 539.62,725.47 C536.34,722.20 538.44,720.31 545.87,719.84 C550.11,719.57 551.47,719.86 552.35,721.23 C553.21,722.56 553.12,723.29 551.98,724.37 ZM 495.00 715.01 C494.41,716.10 492.93,716.99 491.71,716.98 C488.18,716.96 481.50,712.71 481.50,710.48 C481.50,707.01 486.72,707.24 492.78,710.98 C495.59,712.72 495.91,713.30 495.00,715.01 ZM 484.33 446.83 C482.99,448.97 481.41,449.15 476.61,447.68 C471.71,446.19 469.89,443.68 472.11,441.46 C473.44,440.13 474.38,440.07 478.31,441.06 C483.82,442.44 485.86,444.41 484.33,446.83 ZM 539.39 434.43 C538.42,436.96 535.41,436.25 531.49,432.56 C525.22,426.64 528.37,421.07 534.89,426.56 C538.73,429.80 540.19,432.34 539.39,434.43 ZM 671.42 415.44 C669.35,417.51 669.26,417.49 665.89,413.88 C661.32,408.98 660.82,404.00 664.90,404.00 C666.98,404.00 669.10,406.19 671.37,410.69 C672.84,413.58 672.84,414.02 671.42,415.44 ZM 447.07 441.42 C446.18,442.49 444.08,443.00 440.54,443.00 C434.87,443.00 434.00,442.58 434.00,439.87 C434.00,437.34 437.36,435.84 442.19,436.19 C446.97,436.55 449.16,438.90 447.07,441.42 ZM 363.41 488.92 C357.76,495.64 354.41,490.28 359.54,482.73 C363.19,477.36 368.00,477.87 366.59,483.48 C366.27,484.78 364.84,487.23 363.41,488.92 ZM 556.50 441.01 C556.50,443.99 553.42,444.61 548.10,442.72 C543.52,441.08 541.99,438.58 544.20,436.37 C545.76,434.81 546.22,434.83 551.18,436.61 C555.67,438.23 556.50,438.91 556.50,441.01 ZM 553.11 479.37 C551.31,481.53 550.29,481.40 545.20,478.33 C541.65,476.19 540.95,475.27 541.20,473.12 C541.67,469.03 544.94,469.29 550.05,473.82 C553.91,477.25 554.29,477.94 553.11,479.37 ZM 533.43 724.32 C532.93,725.62 531.49,726.00 527.02,726.00 C520.89,726.00 518.53,724.59 519.20,721.30 C519.50,719.80 520.52,719.52 525.37,719.62 C531.61,719.75 534.53,721.45 533.43,724.32 ZM 568.99 489.02 C567.39,492.00 564.29,491.26 559.25,486.69 C554.70,482.57 557.60,478.71 563.12,481.56 C568.19,484.19 570.21,486.74 568.99,489.02 ZM 652.44 512.82 C647.08,515.42 646.63,515.46 644.93,513.42 C643.02,511.11 644.78,508.95 650.47,506.61 C655.05,504.73 655.32,504.72 656.56,506.42 C658.42,508.96 657.53,510.34 652.44,512.82 ZM 465.50 441.49 C465.50,444.85 464.70,445.13 458.17,444.06 C452.30,443.09 450.42,440.03 454.21,437.64 C455.26,436.98 457.50,436.96 460.66,437.56 C465.16,438.43 465.50,438.71 465.50,441.49 ZM 386.80 461.60 L 386.51 461.74 C384.78,462.65 384.09,463.01 383.53,462.86 C383.13,462.76 382.80,462.40 382.20,461.80 C380.23,459.83 380.80,458.31 384.73,455.07 C388.87,451.66 391.13,451.24 393.02,453.53 C394.08,454.80 393.89,455.49 391.90,457.62 C390.58,459.04 388.28,460.82 386.80,461.60 ZM 548.96 372.52 C548.70,372.65 548.46,372.77 548.23,372.89 C545.00,374.53 543.97,375.05 543.26,374.77 C542.88,374.61 542.59,374.22 542.11,373.63 C540.49,371.68 541.67,369.37 545.47,367.02 C549.32,364.64 552.29,364.44 553.96,366.46 C555.63,368.46 554.66,369.63 548.96,372.52 ZM 636.01 685.75 C628.55,690.83 625.23,686.79 631.95,680.82 C636.69,676.61 638.11,676.22 640.07,678.58 C641.73,680.58 640.55,682.66 636.01,685.75 ZM 467.45 913.28 C466.38,916.06 464.23,915.95 460.02,912.90 C455.14,909.36 454.17,907.40 456.28,905.29 C457.69,903.88 458.16,903.94 461.23,905.84 C465.91,908.73 468.16,911.42 467.45,913.28 ZM 536.81 468.33 C536.37,471.42 533.24,471.47 528.25,468.45 C523.87,465.81 523.12,464.28 525.20,462.20 C527.02,460.38 529.15,460.74 533.33,463.58 C536.08,465.45 537.03,466.75 536.81,468.33 ZM 668.67 501.53 C664.03,506.17 661.00,506.17 661.00,501.53 C661.00,498.73 667.22,492.70 669.64,493.17 C672.92,493.79 672.46,497.74 668.67,501.53 ZM 633.45 407.78 C629.54,412.35 629.01,412.61 627.20,410.80 C625.22,408.82 625.82,406.54 629.42,402.42 C632.30,399.12 633.13,398.67 634.67,399.61 C637.59,401.38 637.31,403.28 633.45,407.78 ZM 477.45 706.28 C476.39,709.03 474.30,708.94 469.59,705.96 C462.33,701.35 464.16,695.48 471.61,699.49 C476.05,701.88 478.18,704.36 477.45,706.28 ZM 498.47 800.80 C492.92,803.50 491.36,803.55 490.04,801.07 C488.70,798.56 490.71,796.47 495.97,794.89 C503.95,792.50 505.93,797.18 498.47,800.80 ZM 484.50 921.53 C484.50,922.90 483.73,923.58 482.00,923.75 C479.17,924.04 471.00,920.60 471.00,919.13 C471.00,916.71 472.39,915.00 474.36,915.02 C477.85,915.04 484.50,919.32 484.50,921.53 ZM 569.91 365.88 C566.36,367.12 560.70,367.37 559.67,366.33 C559.30,365.97 559.00,364.83 559.00,363.81 C559.00,359.62 572.21,358.50 572.80,362.63 C573.04,364.26 572.35,365.03 569.91,365.88 ZM 604.80 434.60 C601.30,436.41 599.08,436.38 598.36,434.50 C597.41,432.02 598.69,430.20 602.91,428.05 C607.76,425.57 609.58,425.47 610.42,427.64 C611.15,429.56 608.71,432.58 604.80,434.60 ZM 502.81 927.32 C502.44,929.89 499.47,930.37 493.67,928.80 C489.41,927.65 488.13,925.75 490.06,923.43 C491.03,922.26 492.35,922.05 495.42,922.56 C501.24,923.52 503.17,924.76 502.81,927.32 ZM 535.99 383.01 C532.20,387.80 528.00,388.60 528.00,384.53 C528.00,381.15 533.69,374.81 536.39,375.20 C539.62,375.66 539.47,378.62 535.99,383.01 ZM 680.32 431.86 C678.40,434.91 676.48,434.18 674.21,429.51 C671.63,424.18 671.41,421.44 673.50,420.64 C676.13,419.63 677.86,421.05 679.63,425.70 C680.88,428.97 681.07,430.67 680.32,431.86 ZM 322.81 491.78 C322.55,494.03 321.98,494.52 319.50,494.64 C317.85,494.72 314.92,494.49 313.00,494.14 C310.10,493.61 309.50,493.07 309.50,491.00 C309.50,488.76 309.96,488.47 313.92,488.18 C320.95,487.68 323.18,488.58 322.81,491.78 ZM 604.27 707.46 C600.06,710.32 596.23,710.75 595.35,708.46 C594.61,706.55 596.80,704.07 601.38,701.62 C608.27,697.93 610.79,703.03 604.27,707.46 ZM 480.62 809.37 C475.55,812.35 474.88,812.48 473.20,810.80 C471.13,808.73 471.87,807.11 476.07,804.45 C480.82,801.46 484.36,801.53 484.80,804.62 C485.03,806.23 484.01,807.39 480.62,809.37 ZM 406.10 449.95 C400.09,453.02 397.00,452.65 397.00,448.85 C397.00,446.67 404.16,442.74 407.33,443.19 C408.68,443.38 409.62,444.33 409.81,445.70 C410.05,447.40 409.22,448.36 406.10,449.95 ZM 375.90 472.47 C374.19,474.41 371.93,476.00 370.87,476.00 C366.40,476.00 367.89,469.64 373.25,465.82 C379.11,461.65 381.07,466.57 375.90,472.47 ZM 591.67 364.42 C591.22,365.59 589.68,366.00 585.78,365.98 C579.42,365.97 577.72,365.05 578.16,361.89 C578.47,359.71 578.96,359.50 583.76,359.54 C589.43,359.59 592.74,361.63 591.67,364.42 ZM 280.50 503.17 C276.01,506.27 273.22,506.73 272.36,504.50 C271.47,502.17 272.64,500.19 276.22,497.99 C283.76,493.33 287.75,498.16 280.50,503.17 ZM 590.50 441.12 C585.69,443.91 582.54,444.36 580.98,442.48 C580.02,441.32 579.91,440.36 580.62,439.25 C581.81,437.36 588.68,434.81 591.50,435.21 C594.55,435.65 593.96,439.12 590.50,441.12 ZM 660.82 398.73 C660.07,402.66 652.74,400.13 650.00,394.99 C648.66,392.50 649.77,390.00 652.21,390.00 C654.87,390.00 661.25,396.47 660.82,398.73 ZM 627.39 376.75 C625.86,379.18 624.96,379.14 619.75,376.43 C616.59,374.79 615.00,373.32 615.00,372.04 C615.00,369.18 616.76,368.60 621.09,370.03 C626.13,371.69 628.79,374.53 627.39,376.75 ZM 460.80 695.80 C459.06,697.54 458.84,697.44 454.05,692.55 C450.34,688.77 449.87,687.86 450.96,686.55 C452.84,684.28 454.51,684.63 458.47,688.10 C462.13,691.32 462.86,693.74 460.80,695.80 ZM 684.49 468.64 C683.98,470.93 682.29,471.98 680.25,471.27 C678.32,470.60 678.59,459.58 680.58,457.93 C684.40,454.76 686.38,460.17 684.49,468.64 ZM 585.32 499.61 C583.97,503.12 573.81,498.59 573.18,494.21 C572.73,491.06 575.44,490.39 579.65,492.62 C583.78,494.81 586.07,497.64 585.32,499.61 ZM 450.99 833.85 C447.77,838.30 445.68,839.04 444.14,836.28 C442.97,834.20 444.64,830.59 448.38,827.10 C450.51,825.11 451.20,824.92 452.47,825.98 C454.65,827.79 454.40,829.15 450.99,833.85 ZM 452.34 900.83 C450.76,903.33 449.57,903.21 446.82,900.27 C441.50,894.56 440.70,889.53 445.21,890.18 C448.27,890.62 453.68,898.71 452.34,900.83 ZM 651.41 374.73 C650.01,378.13 648.80,379.59 647.22,379.82 C644.16,380.26 643.35,377.58 645.08,372.69 C646.91,367.53 649.33,365.90 651.67,368.25 C653.29,369.86 653.28,370.23 651.41,374.73 ZM 518.72 793.80 C513.93,796.10 509.12,796.48 508.41,794.63 C508.07,793.73 508.02,792.39 508.30,791.66 C508.90,790.10 516.88,787.64 519.63,788.17 C522.50,788.72 521.93,792.27 518.72,793.80 ZM 638.43 516.43 C636.31,518.55 627.17,518.61 626.36,516.50 C625.25,513.61 626.81,512.30 632.09,511.68 C639.12,510.84 641.92,512.94 638.43,516.43 ZM 441.88 885.10 C439.80,886.41 439.19,886.21 437.51,883.66 C435.21,880.14 435.09,874.04 437.31,872.64 C438.77,871.72 439.39,871.86 440.52,873.39 C442.67,876.28 443.57,884.03 441.88,885.10 ZM 619.81 514.31 C619.12,519.14 607.50,516.02 607.50,511.00 C607.50,508.78 607.87,508.53 610.83,508.76 C616.06,509.18 620.18,511.72 619.81,514.31 ZM 519.81 459.30 C519.43,461.97 516.65,462.47 512.50,460.63 C508.12,458.70 506.43,456.39 508.00,454.50 C509.66,452.50 511.31,452.61 516.10,455.05 C519.22,456.64 520.05,457.60 519.81,459.30 ZM 684.81 447.17 C684.56,450.72 684.11,451.56 682.34,451.81 C679.64,452.19 679.28,451.58 678.44,445.29 C677.84,440.77 678.00,440.07 679.85,439.08 C682.84,437.48 685.23,441.37 684.81,447.17 ZM 502.50 452.01 C502.50,455.28 499.82,455.60 494.18,453.01 C490.69,451.42 489.92,450.59 490.18,448.77 C490.44,446.93 491.09,446.53 493.62,446.63 C498.69,446.85 502.50,449.16 502.50,452.01 ZM 654.81 323.85 C654.37,327.65 650.37,328.11 649.01,324.53 C646.40,317.66 646.98,314.00 650.67,314.00 C652.51,314.00 655.20,320.42 654.81,323.85 ZM 655.02 360.96 C653.96,362.94 651.02,363.69 649.67,362.33 C648.65,361.31 648.87,356.66 650.12,353.09 C650.97,350.65 651.74,349.96 653.37,350.20 C655.10,350.44 655.56,351.29 655.81,354.71 C655.97,357.03 655.62,359.84 655.02,360.96 ZM 601.79 507.47 C601.42,510.09 597.58,510.46 593.30,508.30 C589.81,506.54 588.74,504.84 589.64,502.50 C590.42,500.45 592.15,500.61 597.51,503.22 C600.99,504.91 602.01,505.92 601.79,507.47 ZM 648.77 307.50 C648.45,309.84 644.81,310.71 643.29,308.80 C642.72,308.08 641.48,305.98 640.54,304.13 C639.00,301.11 638.98,300.59 640.33,299.24 C641.16,298.41 642.55,298.00 643.42,298.33 C645.63,299.18 649.09,305.11 648.77,307.50 ZM 528.22 416.12 C528.46,419.91 528.22,420.54 526.41,420.80 C523.37,421.23 521.62,418.48 521.56,413.17 C521.51,409.11 521.79,408.46 523.68,408.19 C526.41,407.80 527.84,410.30 528.22,416.12 ZM 520.81 930.32 C520.55,932.14 519.75,932.55 516.00,932.79 C510.39,933.16 506.93,931.06 508.60,928.31 C509.92,926.15 515.99,925.39 519.02,927.01 C520.37,927.74 521.01,928.91 520.81,930.32 ZM 527.03 400.94 C525.72,403.38 522.19,403.67 521.32,401.40 C520.99,400.52 521.36,397.71 522.15,395.15 C523.36,391.27 524.01,390.50 526.05,390.50 C528.29,390.50 528.48,390.86 528.32,394.69 C528.22,397.00 527.64,399.81 527.03,400.94 ZM 355.44 504.78 C353.55,507.48 351.93,507.58 348.98,505.18 C347.16,503.71 346.93,502.99 347.79,501.39 C349.16,498.84 353.43,496.57 355.43,497.34 C357.44,498.11 357.45,501.92 355.44,504.78 ZM 654.69 671.79 C652.42,674.29 647.69,676.81 646.25,676.28 C642.66,674.99 648.56,667.00 653.11,667.00 C655.73,667.00 656.61,669.67 654.69,671.79 ZM 656.50 338.50 C656.50,343.96 656.30,344.53 654.25,344.82 C651.44,345.22 650.79,343.63 651.19,337.37 C651.47,332.92 651.72,332.50 654.00,332.50 C656.39,332.50 656.50,332.77 656.50,338.50 ZM 638.83 292.65 C638.26,295.63 634.74,295.38 631.63,292.14 C628.49,288.86 628.45,285.65 631.53,285.21 C634.10,284.84 639.31,290.15 638.83,292.65 ZM 255.98 529.20 C254.90,532.33 253.89,533.59 252.25,533.82 C249.00,534.28 248.28,531.37 250.58,527.15 C252.72,523.23 253.80,522.59 255.98,523.97 C257.30,524.80 257.30,525.41 255.98,529.20 ZM 536.32 788.08 C535.79,788.61 533.93,789.45 532.18,789.95 C529.70,790.66 528.65,790.50 527.38,789.24 C525.88,787.74 525.93,787.47 527.99,785.81 C530.76,783.56 535.84,783.42 536.66,785.57 C536.99,786.43 536.84,787.56 536.32,788.08 Z" fill="rgb(230,153,45)"/>
<path d="M 0.00 512.00 L 0.00 0.00 L 512.00 0.00 L 1024.00 0.00 L 1024.00 512.00 L 1024.00 1024.00 L 512.00 1024.00 L 0.00 1024.00 L 0.00 512.00 ZM 520.81 930.32 C521.01,928.91 520.37,927.74 519.02,927.01 C515.99,925.39 509.92,926.15 508.60,928.31 C506.93,931.06 510.39,933.16 516.00,932.79 C519.75,932.55 520.55,932.14 520.81,930.32 ZM 502.81 927.32 C503.17,924.76 501.24,923.52 495.42,922.56 C492.35,922.05 491.03,922.26 490.06,923.43 C488.13,925.75 489.41,927.65 493.67,928.80 C499.47,930.37 502.44,929.89 502.81,927.32 ZM 484.50 921.53 C484.50,919.32 477.85,915.04 474.36,915.02 C472.39,915.00 471.00,916.71 471.00,919.13 C471.00,920.60 479.17,924.04 482.00,923.75 C483.73,923.58 484.50,922.90 484.50,921.53 ZM 522.84 915.53 C533.14,903.80 539.93,889.80 539.97,880.21 C540.07,856.70 510.54,849.53 499.78,870.46 C497.02,875.84 497.09,884.76 499.97,891.98 C503.40,900.60 516.37,919.00 519.01,919.00 C519.44,919.00 521.16,917.44 522.84,915.53 ZM 467.45 913.28 C468.16,911.42 465.91,908.73 461.23,905.84 C458.16,903.94 457.69,903.88 456.28,905.29 C454.17,907.40 455.14,909.36 460.02,912.90 C464.23,915.95 466.38,916.06 467.45,913.28 ZM 452.34 900.83 C453.68,898.71 448.27,890.62 445.21,890.18 C440.70,889.53 441.50,894.56 446.82,900.27 C449.57,903.21 450.76,903.33 452.34,900.83 ZM 441.88 885.10 C443.57,884.03 442.67,876.28 440.52,873.39 C439.39,871.86 438.77,871.72 437.31,872.64 C435.09,874.04 435.21,880.14 437.51,883.66 C439.19,886.21 439.80,886.41 441.88,885.10 ZM 439.79 861.00 C439.94,857.97 440.78,853.97 441.65,852.10 C442.53,850.23 443.30,847.30 443.37,845.60 C443.48,843.09 443.07,842.44 441.23,842.18 C439.42,841.92 438.64,842.62 437.39,845.60 C436.54,847.66 436.03,850.38 436.28,851.66 C436.52,852.94 436.11,854.50 435.36,855.12 C433.94,856.29 433.43,865.10 434.71,866.38 C435.10,866.77 436.34,866.95 437.46,866.79 C439.19,866.54 439.54,865.66 439.79,861.00 ZM 450.99 833.85 C454.40,829.15 454.65,827.79 452.47,825.98 C451.20,824.92 450.51,825.11 448.38,827.10 C444.64,830.59 442.97,834.20 444.14,836.28 C445.68,839.04 447.77,838.30 450.99,833.85 ZM 464.29 820.25 C468.32,817.18 469.21,815.71 468.36,813.50 C467.45,811.12 464.11,811.74 459.89,815.08 C452.24,821.15 456.51,826.17 464.29,820.25 ZM 480.62 809.37 C484.01,807.39 485.03,806.23 484.80,804.62 C484.36,801.53 480.82,801.46 476.07,804.45 C471.87,807.11 471.13,808.73 473.20,810.80 C474.88,812.48 475.55,812.35 480.62,809.37 ZM 498.47 800.80 C505.93,797.18 503.95,792.50 495.97,794.89 C490.71,796.47 488.70,798.56 490.04,801.07 C491.36,803.55 492.92,803.50 498.47,800.80 ZM 518.72 793.80 C521.93,792.27 522.50,788.72 519.63,788.17 C516.88,787.64 508.90,790.10 508.30,791.66 C508.02,792.39 508.07,793.73 508.41,794.63 C509.12,796.48 513.93,796.10 518.72,793.80 ZM 536.32 788.08 C536.84,787.56 536.99,786.43 536.66,785.57 C535.84,783.42 530.76,783.56 527.99,785.81 C525.93,787.47 525.88,787.74 527.38,789.24 C528.65,790.50 529.70,790.66 532.18,789.95 C533.93,789.45 535.79,788.61 536.32,788.08 ZM 252.78 756.75 L 253.06 744.00 L 258.03 744.00 C262.33,744.00 263.00,743.73 263.00,742.00 C263.00,740.10 262.33,740.00 250.00,740.00 C237.67,740.00 237.00,740.10 237.00,742.00 C237.00,743.73 237.67,744.00 242.00,744.00 L 247.00 744.00 L 247.00 756.33 C247.00,763.12 247.32,768.99 247.71,769.38 C248.10,769.77 249.34,769.95 250.46,769.79 C252.37,769.52 252.52,768.72 252.78,756.75 ZM 285.65 768.36 C292.23,765.24 295.05,754.52 291.25,747.07 C284.95,734.73 266.57,737.56 264.35,751.22 C263.15,758.63 266.83,766.77 272.42,769.03 C275.84,770.42 281.97,770.11 285.65,768.36 ZM 317.91 768.55 C322.15,766.35 323.11,762.81 322.79,750.46 C322.52,740.26 322.36,739.50 320.50,739.50 C318.66,739.50 318.46,740.33 318.00,750.15 C317.44,762.08 316.03,765.00 310.85,765.00 C305.38,765.00 304.00,762.20 304.00,751.12 C304.00,743.56 303.65,740.95 302.50,740.00 C301.30,739.01 300.70,739.01 299.50,740.00 C298.35,740.96 298.00,743.59 298.00,751.37 C298.01,765.90 300.69,769.79 310.80,769.94 C313.16,769.97 316.36,769.35 317.91,768.55 ZM 334.80 763.75 L 335.10 758.00 L 338.51 758.00 C341.60,758.00 342.22,758.53 345.27,763.75 C347.48,767.55 349.36,769.61 350.81,769.82 C354.60,770.37 353.42,764.44 348.73,759.28 C346.88,757.25 346.85,756.99 348.39,756.40 C350.55,755.57 353.00,750.85 353.00,747.50 C353.00,746.07 351.88,743.79 350.51,742.42 C348.16,740.07 347.48,739.94 338.76,740.21 L 329.50 740.50 L 329.21 753.00 C328.86,768.08 329.26,770.25 332.29,769.81 C334.24,769.54 334.54,768.81 334.80,763.75 ZM 392.48 769.01 C395.00,768.05 395.08,767.78 394.79,760.76 L 394.50 753.50 L 389.61 753.19 C386.92,753.02 384.26,753.34 383.70,753.90 C382.20,755.40 384.73,758.00 387.69,758.00 C389.84,758.00 390.09,758.39 389.81,761.25 C389.52,764.30 389.24,764.52 385.23,764.81 C381.61,765.07 380.51,764.67 377.98,762.14 C375.55,759.71 375.00,758.32 375.00,754.63 C375.00,746.10 380.50,742.90 390.75,745.44 C393.67,746.17 394.00,746.03 394.00,744.07 C394.00,739.08 380.91,737.53 375.00,741.83 C366.75,747.82 367.24,761.94 375.90,767.73 C379.61,770.21 387.68,770.83 392.48,769.01 ZM 420.13 768.43 C424.51,766.17 426.00,761.65 426.00,750.65 C426.00,743.51 425.64,740.95 424.50,740.00 C423.30,739.01 422.70,739.01 421.50,740.00 C420.35,740.95 420.00,743.56 420.00,751.12 C420.00,762.20 418.62,765.00 413.15,765.00 C407.97,765.00 406.56,762.08 406.00,750.15 C405.54,740.37 405.34,739.50 403.52,739.50 C400.93,739.50 400.04,744.68 400.77,755.50 C401.27,762.85 401.58,763.76 404.56,766.75 C407.29,769.49 408.54,770.00 412.45,770.00 C415.01,770.00 418.46,769.30 420.13,768.43 ZM 436.50 754.49 C436.50,740.17 436.41,739.50 434.50,739.50 C432.61,739.50 432.48,740.26 432.22,753.45 C432.07,761.13 432.18,768.02 432.47,768.78 C432.76,769.53 433.78,770.00 434.75,769.81 C436.32,769.51 436.50,767.97 436.50,754.49 ZM 447.13 766.50 C449.19,763.01 449.23,763.00 456.41,763.00 L 463.63 763.00 L 465.30 766.50 C466.99,770.05 471.00,771.51 471.00,768.57 C471.00,766.12 458.74,740.11 457.33,739.57 C456.60,739.29 455.36,739.31 454.57,739.61 C452.79,740.29 440.63,767.60 441.49,768.99 C442.73,770.99 445.10,769.94 447.13,766.50 ZM 495.11 767.39 C501.30,763.81 503.72,755.05 500.58,747.55 C498.54,742.64 494.85,740.68 486.16,739.85 C474.79,738.76 475.00,738.48 475.00,754.87 C475.00,762.46 475.34,769.01 475.75,769.44 C477.22,770.95 491.58,769.43 495.11,767.39 ZM 527.76 768.01 C534.59,763.84 537.04,754.50 533.25,747.07 C526.95,734.73 508.57,737.56 506.35,751.22 C505.15,758.63 508.83,766.77 514.42,769.03 C518.16,770.54 524.38,770.06 527.76,768.01 ZM 571.65 766.62 C576.01,761.55 573.80,754.90 567.28,753.42 C565.75,753.08 563.19,752.48 561.58,752.10 C557.84,751.22 556.10,748.65 557.62,746.25 C558.81,744.39 565.32,743.97 569.74,745.47 C571.41,746.03 572.15,745.78 572.65,744.47 C573.55,742.12 570.87,740.25 565.44,739.44 C557.48,738.25 551.00,742.09 551.00,748.00 C551.00,752.45 553.62,754.80 561.03,757.01 C567.09,758.81 568.00,759.39 568.00,761.44 C568.00,762.73 567.29,764.06 566.42,764.39 C563.62,765.47 557.98,765.04 555.08,763.54 C551.98,761.94 551.00,762.35 551.00,765.21 C551.00,768.11 556.50,770.09 563.40,769.69 C568.36,769.40 569.68,768.91 571.65,766.62 ZM 598.82 767.25 C599.13,765.09 598.85,765.00 591.57,765.00 L 584.00 765.00 L 584.00 761.00 L 584.00 757.00 L 589.75 756.98 C596.22,756.97 598.58,755.96 597.68,753.60 C597.20,752.36 595.60,752.00 590.53,752.00 L 584.00 752.00 L 584.00 748.04 L 584.00 744.09 L 591.25 743.79 C596.90,743.56 598.50,743.17 598.50,742.00 C598.50,740.77 596.78,740.50 589.00,740.50 L 579.50 740.50 L 579.22 754.42 C579.01,764.88 579.26,768.55 580.22,769.18 C580.92,769.64 585.33,769.90 590.00,769.76 C597.96,769.52 598.52,769.36 598.82,767.25 ZM 609.00 759.99 L 609.50 750.50 L 613.78 758.25 C616.13,762.51 618.42,766.00 618.87,766.00 C620.12,766.00 622.54,762.94 624.81,758.50 C625.93,756.30 627.57,753.60 628.46,752.50 C629.96,750.63 630.03,751.00 629.43,758.12 C628.77,766.00 629.78,770.00 632.43,770.00 C634.61,770.00 635.00,767.59 635.00,754.04 C635.00,743.89 634.69,740.99 633.50,740.00 C631.32,738.19 629.83,739.77 624.43,749.67 C621.89,754.34 619.52,757.86 619.16,757.52 C618.80,757.17 616.24,752.97 613.49,748.19 C609.84,741.86 607.94,739.50 606.49,739.50 C604.61,739.50 604.48,740.29 604.22,753.45 C604.07,761.13 604.18,768.02 604.47,768.78 C604.76,769.53 605.78,770.00 606.75,769.81 C608.23,769.53 608.58,768.00 609.00,759.99 ZM 672.46 769.02 C675.32,767.93 676.53,765.82 675.62,763.47 C675.10,762.09 674.74,762.09 672.07,763.47 C667.76,765.69 663.55,765.38 660.31,762.59 C657.87,760.49 657.50,759.46 657.50,754.69 C657.50,750.72 658.02,748.63 659.39,747.12 C662.08,744.15 667.05,743.46 670.99,745.50 C674.53,747.32 676.44,746.50 675.84,743.40 C674.88,738.42 661.63,737.91 656.02,742.63 C650.88,746.96 649.65,757.75 653.60,763.80 C657.10,769.14 665.80,771.55 672.46,769.02 ZM 700.51 768.56 C705.51,766.47 707.99,761.80 707.99,754.50 C707.99,746.62 705.72,742.82 699.59,740.48 C688.23,736.14 678.38,743.57 679.28,755.79 C679.73,761.93 682.10,765.71 687.07,768.25 C691.24,770.37 695.91,770.48 700.51,768.56 ZM 733.73 767.65 C738.10,765.37 740.00,761.30 740.00,754.18 C740.00,743.92 735.06,740.00 722.12,740.00 C715.36,740.00 714.06,740.27 713.66,741.75 C712.74,745.12 713.16,766.43 714.17,768.33 C715.09,770.03 716.07,770.19 722.85,769.79 C727.24,769.53 731.88,768.62 733.73,767.65 ZM 750.50 754.49 C750.50,740.17 750.41,739.50 748.50,739.50 C746.61,739.50 746.48,740.26 746.22,753.45 C746.07,761.13 746.18,768.02 746.47,768.78 C746.76,769.53 747.78,770.00 748.75,769.81 C750.32,769.51 750.50,767.97 750.50,754.49 ZM 780.78 768.44 C782.64,767.14 783.00,765.94 783.00,761.14 C783.00,757.98 782.46,754.86 781.80,754.20 C779.96,752.36 772.07,752.66 771.32,754.60 C770.60,756.49 772.56,757.96 775.81,757.98 C777.82,758.00 778.08,758.43 777.81,761.25 C777.51,764.37 777.30,764.51 772.76,764.80 C768.80,765.06 767.61,764.70 765.51,762.60 C762.19,759.28 761.87,750.13 764.97,747.03 C767.72,744.28 771.51,743.54 775.96,744.87 C781.31,746.47 782.18,746.31 781.82,743.75 C781.17,739.19 770.06,737.85 763.03,741.48 C759.32,743.40 757.00,748.66 757.00,755.15 C757.01,761.65 759.65,766.51 764.27,768.52 C768.70,770.44 777.98,770.40 780.78,768.44 ZM 809.81 767.98 C813.49,765.73 816.96,759.19 816.96,754.50 C816.96,750.40 813.67,743.48 810.83,741.63 C803.94,737.12 792.87,739.55 789.68,746.27 C786.13,753.74 788.75,765.17 794.76,768.43 C798.74,770.59 805.87,770.38 809.81,767.98 ZM 700.00 730.31 C700.00,727.88 696.09,728.93 694.66,731.75 C692.42,736.19 693.75,737.62 697.11,734.39 C698.70,732.87 700.00,731.04 700.00,730.31 ZM 551.98 724.37 C553.12,723.29 553.21,722.56 552.35,721.23 C551.47,719.86 550.11,719.57 545.87,719.84 C538.44,720.31 536.34,722.20 539.62,725.47 C541.54,727.39 549.55,726.68 551.98,724.37 ZM 533.43 724.32 C534.53,721.45 531.61,719.75 525.37,719.62 C520.52,719.52 519.50,719.80 519.20,721.30 C518.53,724.59 520.89,726.00 527.02,726.00 C531.49,726.00 532.93,725.62 533.43,724.32 ZM 570.16 722.39 C574.13,721.27 572.87,715.99 568.63,716.01 C564.86,716.02 558.91,718.08 558.33,719.58 C558.03,720.37 558.35,721.72 559.06,722.57 C560.28,724.04 564.51,723.97 570.16,722.39 ZM 513.82 720.25 C514.17,717.76 511.85,716.48 504.96,715.38 C501.77,714.87 500.91,715.08 500.36,716.51 C498.90,720.31 503.13,723.01 510.00,722.67 C512.80,722.53 513.56,722.05 513.82,720.25 ZM 587.30 716.31 C590.84,714.52 591.72,712.29 589.70,710.27 C588.26,708.83 587.64,708.87 582.81,710.70 C577.35,712.78 575.86,714.92 578.03,717.54 C579.34,719.12 582.57,718.69 587.30,716.31 ZM 495.00 715.01 C495.91,713.30 495.59,712.72 492.78,710.98 C486.72,707.24 481.50,707.01 481.50,710.48 C481.50,712.71 488.18,716.96 491.71,716.98 C492.93,716.99 494.41,716.10 495.00,715.01 ZM 604.27 707.46 C610.79,703.03 608.27,697.93 601.38,701.62 C596.80,704.07 594.61,706.55 595.35,708.46 C596.23,710.75 600.06,710.32 604.27,707.46 ZM 279.90 707.95 C321.46,701.20 343.54,664.06 325.79,630.76 C322.39,624.39 315.88,618.00 309.50,614.77 C307.30,613.66 305.36,612.64 305.20,612.49 C305.03,612.35 307.35,608.62 310.36,604.21 C314.70,597.83 316.18,594.60 317.54,588.48 C320.59,574.75 317.49,562.61 308.66,553.70 C299.15,544.10 288.14,539.99 272.04,540.02 C249.83,540.06 231.36,548.35 220.44,563.19 C216.75,568.20 216.00,569.97 216.00,573.69 C216.00,577.29 216.56,578.72 218.92,581.08 C221.33,583.48 222.68,584.00 226.56,584.00 C231.16,584.00 231.47,583.80 239.39,575.61 C248.49,566.19 251.30,564.47 260.84,562.45 C269.53,560.60 274.43,560.64 281.04,562.60 C294.10,566.48 299.10,579.23 292.54,591.92 C289.07,598.63 277.73,606.65 269.09,608.50 L 265.69 609.23 L 266.31 601.36 C266.66,597.04 267.24,590.70 267.61,587.29 C268.27,581.15 268.23,581.03 264.74,577.54 C261.76,574.56 260.50,574.00 256.82,574.00 C251.83,574.00 248.65,575.85 246.50,580.00 C243.90,585.04 241.72,613.25 242.41,633.00 C243.42,661.77 245.82,673.70 251.29,677.03 C255.52,679.62 259.94,679.52 264.03,676.75 C268.59,673.67 269.24,670.35 267.51,659.00 C266.71,653.78 265.93,645.48 265.78,640.56 L 265.50 631.62 L 272.00 630.24 C286.30,627.20 298.28,630.93 304.75,640.45 C307.76,644.88 308.00,645.82 308.00,653.42 C308.00,663.69 305.29,669.71 297.42,676.90 C285.15,688.11 262.81,690.81 243.22,683.43 C233.20,679.66 228.84,680.54 225.49,687.01 C223.15,691.54 223.60,695.76 226.76,698.92 C234.41,706.57 260.78,711.05 279.90,707.95 ZM 477.45 706.28 C478.18,704.36 476.05,701.88 471.61,699.49 C464.16,695.48 462.33,701.35 469.59,705.96 C474.30,708.94 476.39,709.03 477.45,706.28 ZM 621.08 697.45 C625.37,694.74 626.09,691.70 622.90,689.70 C620.84,688.41 612.00,694.24 612.00,696.88 C612.00,700.83 615.38,701.05 621.08,697.45 ZM 460.80 695.80 C462.86,693.74 462.13,691.32 458.47,688.10 C454.51,684.63 452.84,684.28 450.96,686.55 C449.87,687.86 450.34,688.77 454.05,692.55 C458.84,697.44 459.06,697.54 460.80,695.80 ZM 824.34 688.06 C828.64,686.43 831.00,683.02 831.00,678.45 C831.00,672.75 828.38,669.77 821.00,667.08 C817.65,665.86 813.42,663.55 811.59,661.95 C807.34,658.21 799.56,646.93 793.52,635.73 L 788.79 626.95 L 791.65 624.79 C797.79,620.13 803.38,613.42 806.37,607.11 C809.29,600.95 809.50,599.75 809.50,589.50 C809.50,579.39 809.27,578.02 806.61,572.61 C802.68,564.62 797.28,559.51 788.16,555.16 C781.01,551.76 779.75,551.49 769.28,551.15 C751.13,550.56 740.66,554.74 738.01,563.63 C734.93,573.93 735.95,668.41 739.22,675.57 C741.83,681.31 750.73,682.78 756.01,678.34 C760.64,674.44 761.24,671.98 760.09,661.57 C759.54,656.58 758.80,648.86 758.45,644.40 L 757.82 636.30 L 762.94 635.29 C765.75,634.73 768.22,634.55 768.41,634.89 C768.61,635.22 771.24,640.28 774.26,646.13 C777.27,651.98 781.22,658.96 783.03,661.63 C796.39,681.40 813.34,692.24 824.34,688.06 ZM 636.01 685.75 C640.55,682.66 641.73,680.58 640.07,678.58 C638.11,676.22 636.69,676.61 631.95,680.82 C625.23,686.79 628.55,690.83 636.01,685.75 ZM 532.22 682.08 C535.56,678.34 535.61,677.18 533.32,656.00 C531.50,639.13 530.93,586.59 532.38,568.90 L 533.16 559.30 L 549.31 558.07 C558.18,557.39 566.89,556.24 568.66,555.50 C572.00,554.10 575.00,549.61 575.00,546.00 C575.00,542.52 572.16,538.13 568.78,536.38 C565.41,534.64 564.66,534.66 539.50,536.97 C533.45,537.52 517.36,538.64 503.75,539.46 C486.59,540.49 478.15,541.39 476.20,542.40 C469.11,546.06 469.66,556.70 477.12,560.56 C479.75,561.92 482.49,562.06 495.41,561.46 L 510.60 560.75 L 509.68 569.63 C509.16,574.51 508.72,594.47 508.68,614.00 C508.62,649.77 509.99,669.97 513.09,678.84 C515.76,686.47 526.65,688.31 532.22,682.08 ZM 451.62 678.92 C459.85,677.78 472.27,673.67 477.87,670.24 C485.64,665.48 487.21,658.01 481.60,652.40 C477.03,647.83 473.60,647.95 463.50,653.02 C454.49,657.54 447.58,658.90 443.07,657.03 C439.55,655.57 438.37,652.45 437.70,642.72 C437.31,637.15 437.52,635.80 438.86,635.08 C439.76,634.61 445.15,633.72 450.82,633.11 C462.15,631.88 463.85,631.28 466.92,627.37 C470.80,622.44 468.75,614.38 463.00,612.00 C460.01,610.76 448.80,611.09 441.01,612.65 C438.09,613.23 438.00,613.14 438.00,609.46 C438.00,604.66 439.96,593.06 441.16,590.75 C442.33,588.50 450.10,588.41 462.14,590.52 C468.00,591.54 471.59,591.73 473.26,591.09 C479.80,588.61 482.27,579.17 477.60,574.51 C473.32,570.23 465.20,568.56 448.50,568.53 C434.92,568.50 433.11,568.71 429.38,570.71 C418.52,576.51 415.55,586.63 414.35,622.00 C412.91,664.36 419.18,676.95 443.18,679.92 C443.55,679.96 447.35,679.51 451.62,678.92 ZM 383.30 677.39 C393.18,675.17 403.91,670.08 407.37,665.97 C411.14,661.49 410.62,655.84 406.05,651.75 C401.88,648.03 398.88,648.25 388.73,653.01 C379.03,657.55 372.46,658.85 368.16,657.06 C364.35,655.49 363.19,652.66 362.39,643.12 C361.61,633.79 360.53,634.57 376.41,632.99 C388.70,631.76 390.35,631.15 392.49,627.02 C395.51,621.17 393.44,614.26 387.99,612.00 C384.97,610.75 372.72,611.09 365.75,612.63 C363.04,613.22 363.00,613.16 363.00,608.30 C363.00,602.20 364.83,591.93 366.21,590.25 C367.60,588.57 374.22,588.68 386.16,590.57 C395.61,592.08 396.21,592.06 399.28,590.28 C403.68,587.72 405.90,581.62 403.90,577.54 C403.13,575.97 401.35,573.83 399.95,572.79 C393.66,568.14 365.44,566.37 355.70,570.01 C344.17,574.33 340.99,582.80 338.94,614.65 C336.90,646.54 339.84,663.83 348.75,672.29 C355.53,678.73 368.67,680.67 383.30,677.39 ZM 654.69 671.79 C656.61,669.67 655.73,667.00 653.11,667.00 C648.56,667.00 642.66,674.99 646.25,676.28 C647.69,676.81 652.42,674.29 654.69,671.79 ZM 609.24 671.76 C620.49,666.58 628.86,655.20 633.21,639.14 C636.26,627.86 636.24,609.32 633.16,598.54 C628.56,582.44 622.06,574.11 609.11,567.73 C603.10,564.77 601.73,564.50 593.02,564.50 C584.52,564.50 582.86,564.81 577.50,567.44 C566.25,572.94 557.81,584.08 552.84,600.00 C550.91,606.19 550.50,609.69 550.50,620.00 C550.51,637.59 553.69,648.60 561.89,659.47 C566.33,665.35 571.50,669.17 579.66,672.61 C587.80,676.04 600.76,675.67 609.24,671.76 ZM 699.76 672.04 C710.71,667.26 718.66,655.32 722.47,637.94 C724.75,627.57 725.54,602.10 724.05,587.46 C721.70,564.35 720.04,561.00 710.97,561.00 C706.58,561.00 705.40,561.44 702.77,564.07 L 699.70 567.14 L 700.60 579.82 C701.10,586.79 701.47,601.28 701.44,612.00 C701.39,627.66 701.03,632.68 699.60,637.50 C696.32,648.56 692.03,653.00 684.63,653.00 C677.78,653.00 672.07,645.52 669.44,633.14 C667.74,625.10 667.56,602.06 669.09,586.43 C670.04,576.70 669.97,574.85 668.58,572.16 C666.54,568.21 664.23,567.00 658.70,567.00 C651.30,567.00 648.16,570.75 646.54,581.50 C644.96,591.97 644.25,611.59 645.08,621.87 C647.41,650.96 656.16,667.44 672.33,673.21 C679.53,675.78 692.48,675.23 699.76,672.04 ZM 363.26 546.65 C371.09,543.16 379.62,539.51 382.21,538.53 C386.70,536.84 387.06,536.41 390.06,529.13 C391.80,524.93 395.64,515.79 398.61,508.81 C401.57,501.83 404.00,495.66 404.00,495.10 C404.00,494.01 396.24,497.16 375.84,506.55 L 363.17 512.38 L 356.84 528.36 C353.35,537.14 349.72,546.28 348.77,548.67 C347.81,551.05 347.48,553.00 348.03,553.00 C348.58,553.00 355.43,550.14 363.26,546.65 ZM 255.98 529.20 C257.30,525.41 257.30,524.80 255.98,523.97 C253.80,522.59 252.72,523.23 250.58,527.15 C248.28,531.37 249.00,534.28 252.25,533.82 C253.89,533.59 254.90,532.33 255.98,529.20 ZM 265.38 516.00 C269.33,511.63 269.79,509.90 267.51,508.00 C265.51,506.35 262.03,508.60 259.01,513.48 C257.23,516.36 257.04,517.34 258.02,518.53 C259.94,520.84 261.49,520.30 265.38,516.00 ZM 638.43 516.43 C641.92,512.94 639.12,510.84 632.09,511.68 C626.81,512.30 625.25,513.61 626.36,516.50 C627.17,518.61 636.31,518.55 638.43,516.43 ZM 619.81 514.31 C620.18,511.72 616.06,509.18 610.83,508.76 C607.87,508.53 607.50,508.78 607.50,511.00 C607.50,516.02 619.12,519.14 619.81,514.31 ZM 652.44 512.82 C657.53,510.34 658.42,508.96 656.56,506.42 C655.32,504.72 655.05,504.73 650.47,506.61 C644.78,508.95 643.02,511.11 644.93,513.42 C646.63,515.46 647.08,515.42 652.44,512.82 ZM 601.79 507.47 C602.01,505.92 600.99,504.91 597.51,503.22 C592.15,500.61 590.42,500.45 589.64,502.50 C588.74,504.84 589.81,506.54 593.30,508.30 C597.58,510.46 601.42,510.09 601.79,507.47 ZM 355.44 504.78 C357.45,501.92 357.44,498.11 355.43,497.34 C353.43,496.57 349.16,498.84 347.79,501.39 C346.93,502.99 347.16,503.71 348.98,505.18 C351.93,507.58 353.55,507.48 355.44,504.78 ZM 280.50 503.17 C287.75,498.16 283.76,493.33 276.22,497.99 C272.64,500.19 271.47,502.17 272.36,504.50 C273.22,506.73 276.01,506.27 280.50,503.17 ZM 668.67 501.53 C672.46,497.74 672.92,493.79 669.64,493.17 C667.22,492.70 661.00,498.73 661.00,501.53 C661.00,506.17 664.03,506.17 668.67,501.53 ZM 342.10 498.82 C343.09,496.96 342.93,496.36 341.04,494.83 C339.81,493.83 337.03,492.49 334.86,491.84 C331.57,490.86 330.66,490.91 329.42,492.15 C327.08,494.49 328.74,496.76 334.34,498.91 C340.85,501.42 340.71,501.42 342.10,498.82 ZM 585.32 499.61 C586.07,497.64 583.78,494.81 579.65,492.62 C575.44,490.39 572.73,491.06 573.18,494.21 C573.81,498.59 583.97,503.12 585.32,499.61 ZM 299.08 495.86 C303.05,494.67 304.34,493.05 303.36,490.50 C302.29,487.70 292.90,489.24 290.32,492.64 C287.37,496.52 291.65,498.08 299.08,495.86 ZM 322.81 491.78 C323.18,488.58 320.95,487.68 313.92,488.18 C309.96,488.47 309.50,488.76 309.50,491.00 C309.50,493.07 310.10,493.61 313.00,494.14 C314.92,494.49 317.85,494.72 319.50,494.64 C321.98,494.52 322.55,494.03 322.81,491.78 ZM 363.41 488.92 C364.84,487.23 366.27,484.78 366.59,483.48 C368.00,477.87 363.19,477.36 359.54,482.73 C354.41,490.28 357.76,495.64 363.41,488.92 ZM 568.99 489.02 C570.21,486.74 568.19,484.19 563.12,481.56 C557.60,478.71 554.70,482.57 559.25,486.69 C564.29,491.26 567.39,492.00 568.99,489.02 ZM 678.46 487.71 C679.28,486.44 680.48,483.93 681.11,482.12 C682.07,479.36 681.99,478.56 680.61,477.18 C678.30,474.87 676.04,476.54 673.67,482.33 C672.12,486.11 671.99,487.28 673.00,488.50 C674.78,490.64 676.72,490.36 678.46,487.71 ZM 553.11 479.37 C554.29,477.94 553.91,477.25 550.05,473.82 C544.94,469.29 541.67,469.03 541.20,473.12 C540.95,475.27 541.65,476.19 545.20,478.33 C550.29,481.40 551.31,481.53 553.11,479.37 ZM 375.90 472.47 C381.07,466.57 379.11,461.65 373.25,465.82 C367.89,469.64 366.40,476.00 370.87,476.00 C371.93,476.00 374.19,474.41 375.90,472.47 ZM 684.49 468.64 C686.38,460.17 684.40,454.76 680.58,457.93 C678.59,459.58 678.32,470.60 680.25,471.27 C682.29,471.98 683.98,470.93 684.49,468.64 ZM 536.81 468.33 C537.03,466.75 536.08,465.45 533.33,463.58 C529.15,460.74 527.02,460.38 525.20,462.20 C523.12,464.28 523.87,465.81 528.25,468.45 C533.24,471.47 536.37,471.42 536.81,468.33 ZM 386.80 461.60 C388.28,460.82 390.58,459.04 391.90,457.62 C393.89,455.49 394.08,454.80 393.02,453.53 C391.13,451.24 388.87,451.66 384.73,455.07 C380.80,458.31 380.23,459.83 382.20,461.80 C383.69,463.29 383.54,463.29 386.80,461.60 ZM 519.81 459.30 C520.05,457.60 519.22,456.64 516.10,455.05 C511.31,452.61 509.66,452.50 508.00,454.50 C506.43,456.39 508.12,458.70 512.50,460.63 C516.65,462.47 519.43,461.97 519.81,459.30 ZM 502.50 452.01 C502.50,449.16 498.69,446.85 493.62,446.63 C491.09,446.53 490.44,446.93 490.18,448.77 C489.92,450.59 490.69,451.42 494.18,453.01 C499.82,455.60 502.50,455.28 502.50,452.01 ZM 406.10 449.95 C409.22,448.36 410.05,447.40 409.81,445.70 C409.62,444.33 408.68,443.38 407.33,443.19 C404.16,442.74 397.00,446.67 397.00,448.85 C397.00,452.65 400.09,453.02 406.10,449.95 ZM 684.81 447.17 C685.23,441.37 682.84,437.48 679.85,439.08 C678.00,440.07 677.84,440.77 678.44,445.29 C679.28,451.58 679.64,452.19 682.34,451.81 C684.11,451.56 684.56,450.72 684.81,447.17 ZM 484.33 446.83 C485.86,444.41 483.82,442.44 478.31,441.06 C474.38,440.07 473.44,440.13 472.11,441.46 C469.89,443.68 471.71,446.19 476.61,447.68 C481.41,449.15 482.99,448.97 484.33,446.83 ZM 426.75 443.90 C429.23,442.96 429.74,439.86 427.69,438.15 C426.73,437.36 425.04,437.40 421.54,438.28 C416.36,439.58 414.27,441.67 415.34,444.45 C415.89,445.88 416.74,446.05 420.25,445.46 C422.59,445.07 425.51,444.37 426.75,443.90 ZM 575.27 444.13 C575.78,443.62 575.90,442.26 575.53,441.10 C574.95,439.28 574.08,439.00 568.97,439.00 C564.16,439.00 562.88,439.36 562.04,440.93 C560.23,444.30 563.41,446.35 569.36,445.64 C572.10,445.32 574.76,444.64 575.27,444.13 ZM 465.50 441.49 C465.50,438.71 465.16,438.43 460.66,437.56 C457.50,436.96 455.26,436.98 454.21,437.64 C450.42,440.03 452.30,443.09 458.17,444.06 C464.70,445.13 465.50,444.85 465.50,441.49 ZM 556.50 441.01 C556.50,438.91 555.67,438.23 551.18,436.61 C546.22,434.83 545.76,434.81 544.20,436.37 C541.99,438.58 543.52,441.08 548.10,442.72 C553.42,444.61 556.50,443.99 556.50,441.01 ZM 590.50 441.12 C593.96,439.12 594.55,435.65 591.50,435.21 C588.68,434.81 581.81,437.36 580.62,439.25 C579.91,440.36 580.02,441.32 580.98,442.48 C582.54,444.36 585.69,443.91 590.50,441.12 ZM 447.07 441.42 C449.16,438.90 446.97,436.55 442.19,436.19 C437.36,435.84 434.00,437.34 434.00,439.87 C434.00,442.58 434.87,443.00 440.54,443.00 C444.08,443.00 446.18,442.49 447.07,441.42 ZM 539.39 434.43 C540.19,432.34 538.73,429.80 534.89,426.56 C528.37,421.07 525.22,426.64 531.49,432.56 C535.41,436.25 538.42,436.96 539.39,434.43 ZM 604.80 434.60 C608.71,432.58 611.15,429.56 610.42,427.64 C609.58,425.47 607.76,425.57 602.91,428.05 C598.69,430.20 597.41,432.02 598.36,434.50 C599.08,436.38 601.30,436.41 604.80,434.60 ZM 680.32 431.86 C681.07,430.67 680.88,428.97 679.63,425.70 C677.86,421.05 676.13,419.63 673.50,420.64 C671.41,421.44 671.63,424.18 674.21,429.51 C676.48,434.18 678.40,434.91 680.32,431.86 ZM 623.37 419.71 C624.94,417.60 625.19,416.53 624.40,415.27 C622.65,412.49 621.31,412.73 617.07,416.56 C612.91,420.31 612.08,422.68 614.18,424.78 C615.70,426.30 620.39,423.71 623.37,419.71 ZM 528.22 416.12 C527.84,410.30 526.41,407.80 523.68,408.19 C521.79,408.46 521.51,409.11 521.56,413.17 C521.62,418.48 523.37,421.23 526.41,420.80 C528.22,420.54 528.46,419.91 528.22,416.12 ZM 671.42 415.44 C672.84,414.02 672.84,413.58 671.37,410.69 C669.10,406.19 666.98,404.00 664.90,404.00 C660.82,404.00 661.32,408.98 665.89,413.88 C669.26,417.49 669.35,417.51 671.42,415.44 ZM 633.45 407.78 C637.31,403.28 637.59,401.38 634.67,399.61 C633.13,398.67 632.30,399.12 629.42,402.42 C625.82,406.54 625.22,408.82 627.20,410.80 C629.01,412.61 629.54,412.35 633.45,407.78 ZM 527.03 400.94 C527.64,399.81 528.22,397.00 528.32,394.69 C528.48,390.86 528.29,390.50 526.05,390.50 C524.01,390.50 523.36,391.27 522.15,395.15 C521.36,397.71 520.99,400.52 521.32,401.40 C522.19,403.67 525.72,403.38 527.03,400.94 ZM 660.82 398.73 C661.25,396.47 654.87,390.00 652.21,390.00 C649.77,390.00 648.66,392.50 650.00,394.99 C652.74,400.13 660.07,402.66 660.82,398.73 ZM 643.57 391.87 C646.19,386.81 645.46,384.50 640.16,381.10 C634.62,377.55 633.75,377.39 631.91,379.61 C630.75,381.00 631.06,381.67 634.22,384.56 C637.66,387.72 637.80,388.07 636.68,391.03 C635.65,393.77 635.74,394.34 637.42,395.56 C639.67,397.21 641.31,396.23 643.57,391.87 ZM 535.99 383.01 C539.47,378.62 539.62,375.66 536.39,375.20 C533.69,374.81 528.00,381.15 528.00,384.53 C528.00,388.60 532.20,387.80 535.99,383.01 ZM 651.41 374.73 C653.28,370.23 653.29,369.86 651.67,368.25 C649.33,365.90 646.91,367.53 645.08,372.69 C643.35,377.58 644.16,380.26 647.22,379.82 C648.80,379.59 650.01,378.13 651.41,374.73 ZM 627.39 376.75 C628.79,374.53 626.13,371.69 621.09,370.03 C616.76,368.60 615.00,369.18 615.00,372.04 C615.00,373.32 616.59,374.79 619.75,376.43 C624.96,379.14 625.86,379.18 627.39,376.75 ZM 548.96 372.52 C554.66,369.63 555.63,368.46 553.96,366.46 C552.29,364.44 549.32,364.64 545.47,367.02 C541.67,369.37 540.49,371.68 542.11,373.63 C543.56,375.38 543.22,375.43 548.96,372.52 ZM 609.82 368.70 C610.33,366.04 608.50,364.40 603.42,362.98 C599.48,361.87 598.66,361.91 597.30,363.27 C595.00,365.57 596.28,367.58 601.18,369.33 C606.54,371.25 609.38,371.04 609.82,368.70 ZM 569.91 365.88 C572.35,365.03 573.04,364.26 572.80,362.63 C572.21,358.50 559.00,359.62 559.00,363.81 C559.00,364.83 559.30,365.97 559.67,366.33 C560.70,367.37 566.36,367.12 569.91,365.88 ZM 591.67 364.42 C592.74,361.63 589.43,359.59 583.76,359.54 C578.96,359.50 578.47,359.71 578.16,361.89 C577.72,365.05 579.42,365.97 585.78,365.98 C589.68,366.00 591.22,365.59 591.67,364.42 ZM 655.02 360.96 C655.62,359.84 655.97,357.03 655.81,354.71 C655.56,351.29 655.10,350.44 653.37,350.20 C651.74,349.96 650.97,350.65 650.12,353.09 C648.87,356.66 648.65,361.31 649.67,362.33 C651.02,363.69 653.96,362.94 655.02,360.96 ZM 656.50 338.50 C656.50,332.77 656.39,332.50 654.00,332.50 C651.72,332.50 651.47,332.92 651.19,337.37 C650.79,343.63 651.44,345.22 654.25,344.82 C656.30,344.53 656.50,343.96 656.50,338.50 ZM 537.50 332.24 C537.50,330.69 535.92,328.78 532.52,326.21 C529.79,324.14 526.50,320.90 525.22,319.00 L 522.89 315.54 L 525.37 314.88 C526.73,314.51 530.52,313.90 533.79,313.52 L 539.73 312.83 L 541.91 316.35 C544.93,321.24 549.81,325.29 556.46,328.44 C563.14,331.60 565.50,331.48 565.50,327.99 C565.50,325.95 564.48,325.02 559.91,322.84 C554.41,320.21 547.00,314.17 547.00,312.31 C547.00,311.79 549.59,310.56 552.75,309.58 C565.79,305.52 581.01,295.13 587.81,285.63 C589.63,283.09 592.10,280.80 593.31,280.54 C594.51,280.28 601.76,279.60 609.41,279.04 C617.06,278.48 623.49,277.85 623.70,277.64 C624.09,277.25 611.79,266.14 604.36,260.17 L 600.29 256.90 L 599.72 247.70 C598.65,230.12 592.23,215.79 579.22,201.92 L 571.94 194.16 L 577.39 192.58 C580.38,191.70 587.45,188.68 593.09,185.86 C612.81,175.99 626.01,158.94 626.85,142.26 C627.06,138.20 626.68,132.95 626.02,130.59 C624.16,123.92 618.32,116.98 611.74,113.62 C606.82,111.10 604.91,110.70 597.77,110.68 C584.95,110.64 576.19,113.71 562.28,123.12 C558.32,125.80 554.88,128.00 554.64,128.00 C554.41,128.00 554.04,124.74 553.82,120.75 C552.32,93.52 525.11,80.49 506.50,98.09 C494.15,109.77 490.35,129.25 496.02,151.88 L 497.86 159.26 L 492.68 158.63 C489.83,158.28 484.45,157.71 480.73,157.36 C474.48,156.76 473.92,156.51 473.39,154.10 C470.92,142.82 466.42,133.44 460.42,127.01 C457.10,123.47 456.00,121.50 456.00,119.10 C456.00,114.88 452.16,111.00 448.00,111.00 C438.14,111.00 433.43,122.23 440.83,128.09 C443.09,129.89 444.36,130.12 449.15,129.63 C454.62,129.07 454.88,129.15 457.26,132.28 C460.70,136.79 464.49,144.54 466.39,150.92 C467.27,153.90 467.88,156.40 467.75,156.48 C467.61,156.56 463.90,157.13 459.50,157.74 C455.10,158.36 448.00,159.97 443.72,161.33 L 435.94 163.81 L 432.04 158.05 C425.46,148.37 411.91,138.00 405.83,138.00 C404.85,138.00 403.34,136.63 402.48,134.96 C398.01,126.32 384.94,130.02 385.03,139.88 C385.08,145.68 388.84,149.00 395.36,149.00 C398.08,149.00 399.39,148.31 401.29,145.89 L 403.72 142.78 L 408.11 144.74 C414.74,147.70 422.58,154.41 426.74,160.67 L 430.47 166.28 L 428.00 167.89 C405.45,182.61 393.08,203.73 393.02,227.59 C392.98,242.21 400.12,260.27 410.44,271.67 C416.41,278.27 430.40,288.64 439.50,293.22 C442.80,294.88 445.64,296.36 445.81,296.52 C445.99,296.67 446.77,299.56 447.56,302.93 C451.01,317.70 460.37,328.07 465.11,322.37 C466.29,320.94 465.94,320.28 462.28,317.12 C456.53,312.14 451.64,300.95 455.25,301.03 C455.94,301.04 460.06,302.33 464.42,303.88 L 472.33 306.70 L 474.42 313.13 C478.73,326.44 490.76,337.29 493.44,330.29 C493.84,329.25 492.37,327.18 489.06,324.11 C484.34,319.74 479.13,310.84 480.92,310.21 C481.38,310.05 486.20,310.80 491.63,311.89 C497.06,312.97 504.95,314.16 509.17,314.54 C515.88,315.13 516.91,315.49 517.38,317.36 C518.52,321.87 524.13,329.13 528.74,332.05 C534.25,335.54 537.50,335.61 537.50,332.24 ZM 654.81 323.85 C655.20,320.42 652.51,314.00 650.67,314.00 C646.98,314.00 646.40,317.66 649.01,324.53 C650.37,328.11 654.37,327.65 654.81,323.85 ZM 648.77 307.50 C649.09,305.11 645.63,299.18 643.42,298.33 C642.55,298.00 641.16,298.41 640.33,299.24 C638.98,300.59 639.00,301.11 640.54,304.13 C641.48,305.98 642.72,308.08 643.29,308.80 C644.81,310.71 648.45,309.84 648.77,307.50 ZM 638.83 292.65 C639.31,290.15 634.10,284.84 631.53,285.21 C628.45,285.65 628.49,288.86 631.63,292.14 C634.74,295.38 638.26,295.63 638.83,292.65 ZM 512.69 886.59 C507.98,882.22 507.97,877.30 512.67,872.60 C516.13,869.14 520.82,869.14 524.92,872.59 C527.51,874.77 528.00,875.89 528.00,879.63 C528.00,883.03 527.42,884.67 525.55,886.55 C522.19,889.90 516.28,889.92 512.69,886.59 ZM 274.23 764.33 C272.10,763.47 270.00,758.33 270.00,753.97 C270.00,750.75 270.64,749.21 272.92,746.92 C279.08,740.77 287.00,745.09 287.00,754.60 C287.00,758.69 284.77,763.49 282.46,764.38 C280.58,765.10 276.07,765.07 274.23,764.33 ZM 335.00 748.50 L 335.00 744.00 L 339.07 744.00 C344.29,744.00 347.00,745.48 347.00,748.34 C347.00,751.76 345.09,753.00 339.80,753.00 L 335.00 753.00 L 335.00 748.50 ZM 451.28 756.75 C454.36,749.01 455.33,747.00 455.97,747.00 C456.39,747.00 457.58,749.14 458.61,751.75 C459.65,754.36 460.65,756.83 460.83,757.25 C461.02,757.66 458.83,758.00 455.98,758.00 C452.23,758.00 450.92,757.65 451.28,756.75 ZM 481.00 754.50 L 481.00 744.00 L 484.55 744.00 C493.70,744.00 498.65,751.97 494.49,760.02 C492.57,763.73 490.17,765.00 485.07,765.00 L 481.00 765.00 L 481.00 754.50 ZM 516.23 764.33 C514.10,763.47 512.00,758.33 512.00,753.97 C512.00,750.75 512.64,749.21 514.92,746.92 C521.08,740.77 529.00,745.09 529.00,754.60 C529.00,758.69 526.77,763.49 524.46,764.38 C522.58,765.10 518.07,765.07 516.23,764.33 ZM 688.52 762.75 C687.02,761.45 685.70,759.01 685.37,756.95 C683.81,747.18 693.27,740.18 699.55,746.45 C702.84,749.75 703.05,758.39 699.93,762.37 C697.25,765.77 692.19,765.94 688.52,762.75 ZM 719.22 754.75 L 719.50 744.50 L 722.65 744.19 C724.38,744.03 727.39,744.55 729.33,745.36 C733.72,747.20 735.54,752.28 733.94,758.21 C732.73,762.71 729.05,765.00 723.01,765.00 L 718.93 765.00 L 719.22 754.75 ZM 796.45 762.55 C794.43,760.52 794.00,759.10 794.00,754.50 C794.00,749.90 794.43,748.48 796.45,746.45 C802.81,740.10 812.35,746.97 810.55,756.60 C809.10,764.34 801.47,767.56 796.45,762.55 ZM 758.01 599.89 C758.01,591.98 758.31,582.41 758.66,578.63 L 759.31 571.77 L 767.48 572.19 C781.19,572.91 786.99,578.14 787.00,589.79 C787.00,602.74 777.77,611.94 763.00,613.69 L 758.00 614.28 L 758.01 599.89 ZM 586.04 651.75 C578.41,647.84 573.00,634.80 573.00,620.34 C573.00,610.72 574.56,603.75 578.30,596.66 C582.33,589.01 586.69,586.00 593.73,586.00 C598.34,586.00 599.47,586.43 602.88,589.51 C610.57,596.46 614.00,610.38 612.07,626.80 C610.39,641.03 605.95,649.34 598.28,652.62 C593.80,654.54 591.11,654.35 586.04,651.75 ZM 372.22 528.44 C367.68,525.26 370.25,518.00 375.92,518.00 C381.37,518.00 383.87,524.13 380.00,528.00 C377.60,530.40 375.21,530.54 372.22,528.44 ZM 532.12 193.14 C531.09,192.45 533.14,190.43 540.30,185.04 L 549.86 177.86 L 562.79 178.56 C572.85,179.11 575.89,178.98 576.51,177.98 C578.07,175.46 573.96,174.00 565.31,174.00 C560.74,174.00 557.00,173.57 557.00,173.05 C557.00,172.53 560.76,169.17 565.36,165.58 L 573.73 159.05 L 588.36 159.68 C602.88,160.31 603.00,160.29 603.00,158.16 C603.00,156.19 602.45,155.99 596.75,155.90 C593.31,155.85 588.05,155.51 585.06,155.15 L 579.62 154.50 L 594.36 143.14 C602.46,136.89 608.92,131.26 608.71,130.64 C607.78,127.84 604.40,129.59 591.58,139.45 C584.05,145.25 577.68,150.00 577.43,150.00 C577.17,150.00 577.21,148.99 577.50,147.75 C579.40,139.89 580.62,131.00 579.94,129.91 C578.21,127.10 576.29,131.31 573.96,142.99 L 571.57 155.03 L 561.78 162.47 C551.07,170.61 551.18,170.65 553.46,160.03 C554.92,153.22 554.77,152.00 552.48,152.00 C550.95,152.00 549.73,155.83 547.96,166.18 C547.33,169.86 546.30,173.53 545.66,174.35 C545.02,175.16 540.52,179.05 535.66,182.99 C528.71,188.62 526.96,189.66 527.48,187.83 C532.41,170.51 537.19,160.43 546.85,147.00 C561.32,126.87 582.50,114.68 600.23,116.29 C614.89,117.62 623.97,130.17 620.92,144.90 C616.20,167.75 592.96,184.89 557.86,191.43 C547.73,193.31 533.79,194.24 532.12,193.14 ZM 523.54 167.65 C521.83,166.40 521.78,165.65 522.82,157.57 L 523.95 148.83 L 531.47 140.83 C538.41,133.46 540.79,129.00 537.78,129.00 C537.11,129.00 533.96,131.57 530.78,134.72 C524.09,141.33 524.32,141.87 526.49,124.46 C528.50,108.39 528.46,107.00 526.05,107.00 C523.87,107.00 523.67,107.76 521.94,122.47 C521.36,127.41 520.73,131.60 520.54,131.79 C520.35,131.99 518.13,128.96 515.62,125.07 C513.10,121.18 510.57,118.00 509.99,118.00 C507.09,118.00 508.26,121.77 513.96,130.76 C519.76,139.92 520.10,140.77 519.53,145.00 C519.20,147.48 518.66,153.01 518.32,157.30 L 517.70 165.09 L 514.60 164.42 C505.50,162.46 504.69,161.86 502.78,155.58 C501.79,152.33 500.49,145.52 499.89,140.46 C497.44,119.62 503.91,103.73 517.20,98.01 C534.11,90.73 548.97,104.75 548.97,128.00 C548.97,134.14 548.64,134.87 541.31,144.56 C538.46,148.34 534.04,155.38 531.50,160.22 C528.95,165.05 526.53,169.00 526.12,169.00 C525.72,169.00 524.55,168.39 523.54,167.65 Z" fill="rgb(248,249,239)"/>
</g>
</svg>