<svg version="1.2" xmlns="http://www.w3.org/2000/svg" viewBox="0 0 878 878" width="878" height="878"><style>.a{fill:#14456d}.b{fill:#2f2f2b}.c{fill:#e6992d}</style><path class="a" d="m750.3 614.1c-11 4.1-27.9-6.7-41.3-26.5-1.8-2.6-5.7-9.6-8.7-15.5-3.1-5.8-5.7-10.9-5.9-11.2-0.2-0.4-2.6-0.2-5.5 0.4l-5.1 1 0.7 8.1c0.3 4.5 1 12.2 1.6 17.2 1.1 10.4 0.5 12.8-4.1 16.7-5.3 4.5-14.2 3-16.8-2.7-3.2-7.2-4.3-101.7-1.2-112 2.7-8.9 13.1-13 31.3-12.5 10.5 0.4 11.7 0.7 18.9 4.1 9.1 4.3 14.5 9.4 18.4 17.4 2.7 5.4 2.9 6.8 2.9 16.9 0 10.2-0.2 11.5-3.1 17.6-3 6.3-8.6 13-14.7 17.7l-2.9 2.2 4.7 8.7c6.1 11.2 13.8 22.5 18.1 26.3 1.8 1.5 6.1 3.9 9.4 5.1 7.4 2.7 10 5.6 10 11.4 0 4.5-2.4 7.9-6.7 9.6zm-215.1-16.3c-8.4 3.9-21.4 4.2-29.5 0.8-8.2-3.4-13.4-7.2-17.8-13.1-8.2-10.9-11.4-21.9-11.4-39.5 0-10.3 0.4-13.8 2.3-20 5-15.9 13.5-27.1 24.7-32.6 5.4-2.6 7-2.9 15.5-2.9 8.7 0 10.1 0.3 16.1 3.2 13 6.4 19.5 14.7 24.1 30.8 3 10.8 3.1 29.4 0 40.6-4.3 16.1-12.7 27.5-24 32.7zm90.6 0.2c-7.3 3.2-20.3 3.8-27.5 1.2-16.1-5.8-24.9-22.2-27.2-51.3-0.8-10.3-0.1-29.9 1.4-40.4 1.7-10.8 4.8-14.5 12.2-14.5 5.5 0 7.8 1.2 9.9 5.2 1.4 2.6 1.4 4.5 0.5 14.2-1.5 15.7-1.4 38.7 0.3 46.7 2.7 12.4 8.4 19.9 15.2 19.9 7.4 0 11.7-4.4 15-15.5 1.4-4.8 1.8-9.8 1.8-25.5 0.1-10.7-0.3-25.2-0.8-32.2l-0.9-12.7 3.1-3c2.6-2.7 3.8-3.1 8.2-3.1 9 0 10.7 3.3 13 26.5 1.5 14.6 0.8 40.1-1.5 50.4-3.8 17.4-11.8 29.4-22.7 34.1zm-167.6 10.1c-5.5 6.2-16.4 4.4-19.1-3.3-3.1-8.8-4.5-29-4.4-64.8 0-19.5 0.5-39.5 1-44.4l0.9-8.9-15.2 0.8c-12.9 0.6-15.6 0.4-18.3-0.9-7.4-3.9-8-14.5-0.9-18.2 2-1 10.4-1.9 27.6-2.9 13.6-0.9 29.7-2 35.7-2.5 25.2-2.3 25.9-2.4 29.3-0.6 3.4 1.7 6.2 6.1 6.2 9.6 0 3.6-3 8.1-6.3 9.5-1.8 0.7-10.5 1.9-19.4 2.6l-16.1 1.2-0.8 9.6c-1.5 17.7-0.9 70.2 0.9 87.1 2.3 21.2 2.3 22.3-1.1 26.1zm53.8-30.4c5.1 2.6 7.8 2.8 12.3 0.9 7.7-3.3 12.1-11.6 13.8-25.8 1.9-16.4-1.5-30.3-9.2-37.3-3.4-3.1-4.6-3.5-9.2-3.5-7 0-11.4 3-15.4 10.7-3.7 7-5.3 14-5.3 23.6 0 14.5 5.4 27.5 13 31.4zm172-51.8v14.4l5-0.6c14.8-1.8 24-11 24-23.9 0-11.7-5.8-16.9-19.5-17.6l-8.2-0.4-0.6 6.8c-0.4 3.8-0.7 13.4-0.7 21.3zm-57.5 168.7c-4.6 1.9-9.3 1.8-13.4-0.4-5-2.5-7.4-6.3-7.8-12.4-0.9-12.2 8.9-19.7 20.3-15.3 6.1 2.3 8.4 6.1 8.4 14 0 7.3-2.5 12-7.5 14.1zm33.2-1c-1.8 1-6.5 1.9-10.8 2.2-6.8 0.4-7.8 0.2-8.7-1.5-1-1.9-1.5-23.2-0.5-26.6 0.4-1.4 1.7-1.7 8.4-1.7 13 0 17.9 3.9 17.9 14.2 0 7.1-1.9 11.2-6.3 13.4zm-448.1 0.8c-3.6 1.7-9.8 2-13.2 0.6-5.6-2.2-9.2-10.4-8-17.8 2.2-13.6 20.6-16.5 26.9-4.1 3.8 7.4 0.9 18.1-5.6 21.3zm209.4-1c-3.5 2-17.9 3.6-19.3 2-0.5-0.4-0.8-6.9-0.8-14.5v-0.9c0-8.5 0-12.3 1.8-13.7 1.5-1.2 4.1-1 8.8-0.5l0.6 0.1c8.7 0.8 12.3 2.7 14.4 7.6 3.1 7.5 0.7 16.3-5.5 19.9zm314.7 0.6c-3.9 2.4-11.1 2.6-15 0.4-6-3.2-8.7-14.7-5.1-22.1 3.2-6.8 14.2-9.2 21.1-4.7 2.9 1.9 6.2 8.8 6.2 12.9 0 4.7-3.5 11.2-7.2 13.5zm-282 0c-3.4 2.1-9.6 2.5-13.4 1-5.6-2.2-9.2-10.4-8-17.8 2.2-13.6 20.6-16.5 26.9-4.1 3.7 7.4 1.3 16.7-5.5 20.9zm-193-4.3c-0.3 5.1-0.6 5.8-2.5 6.1-3 0.4-3.4-1.7-3.1-16.8l0.3-12.5 9.3-0.3c8.7-0.3 9.4-0.1 11.7 2.2 1.4 1.4 2.5 3.7 2.5 5.1 0 3.4-2.4 8.1-4.6 8.9-1.5 0.6-1.5 0.8 0.3 2.9 4.7 5.1 5.9 11.1 2.1 10.5-1.4-0.2-3.3-2.3-5.5-6.1-3.1-5.2-3.7-5.7-6.8-5.7h-3.4zm274.2-3.8c-0.4 8-0.8 9.6-2.2 9.9-1 0.1-2-0.3-2.3-1.1-0.3-0.7-0.4-7.6-0.3-15.3 0.3-13.2 0.4-14 2.3-14 1.4 0 3.3 2.4 7 8.7 2.7 4.8 5.3 9 5.7 9.4 0.3 0.3 2.7-3.2 5.2-7.9 5.4-9.9 6.9-11.5 9.1-9.7 1.2 1 1.5 3.9 1.5 14.1 0 13.5-0.4 15.9-2.6 15.9-2.6 0-3.6-4-3-11.8 0.6-7.2 0.6-7.5-0.9-5.7-0.9 1.2-2.6 3.8-3.7 6-2.3 4.5-4.7 7.5-5.9 7.5-0.5 0-2.8-3.4-5.1-7.7l-4.3-7.8zm-161.9 6.6c-2 3.4-4.4 4.4-5.6 2.4-0.9-1.3 11.3-28.7 13.1-29.3 0.8-0.3 2-0.4 2.7-0.1 1.4 0.6 13.7 26.6 13.7 29 0 3-4 1.5-5.7-2l-1.7-3.5h-7.2c-7.2 0-7.2 0-9.3 3.5zm-54.6 2.5c-4.8 1.8-12.9 1.2-16.6-1.3-8.7-5.8-9.1-19.9-0.9-25.9 5.9-4.3 19-2.8 19 2.2 0 2-0.3 2.1-3.2 1.4-10.3-2.5-15.8 0.7-15.8 9.2 0 3.7 0.6 5.1 3 7.5 2.5 2.5 3.6 2.9 7.2 2.7 4-0.3 4.3-0.5 4.6-3.6 0.3-2.9 0-3.2-2.1-3.2-3 0-5.5-2.6-4-4.1 0.6-0.6 3.2-0.9 5.9-0.7l4.9 0.3 0.3 7.2c0.3 7 0.2 7.3-2.3 8.3zm388.3-0.6c-2.8 2-12.1 2-16.5 0.1-4.6-2-7.3-6.9-7.3-13.4 0-6.5 2.3-11.7 6-13.7 7.1-3.6 18.2-2.2 18.8 2.3 0.4 2.6-0.5 2.7-5.8 1.1-4.5-1.3-8.3-0.6-11 2.2-3.1 3.1-2.8 12.2 0.5 15.6 2.1 2.1 3.3 2.4 7.3 2.2 4.5-0.3 4.7-0.5 5-3.6 0.3-2.8 0-3.2-2-3.3-3.2 0-5.2-1.5-4.5-3.3 0.8-2 8.7-2.3 10.5-0.4 0.7 0.6 1.2 3.7 1.2 6.9 0 4.8-0.4 6-2.2 7.3zm-360.7 0c-1.6 0.9-5.1 1.6-7.6 1.6-4 0-5.2-0.6-7.9-3.3-3-3-3.3-3.9-3.8-11.2-0.8-10.9 0.1-16 2.7-16 1.8 0 2 0.8 2.5 10.6 0.6 11.9 2 14.9 7.2 14.9 5.4 0 6.8-2.8 6.8-13.9 0-7.6 0.4-10.2 1.5-11.1 1.2-1 1.8-1 3 0 1.1 0.9 1.5 3.5 1.5 10.6 0 11-1.5 15.5-5.9 17.8zm151.6-1.8c-2 2.3-3.3 2.8-8.3 3.1-6.9 0.4-12.4-1.6-12.4-4.5 0-2.9 1-3.3 4.1-1.7 2.9 1.5 8.5 1.9 11.3 0.8 0.9-0.3 1.6-1.6 1.6-2.9 0-2.1-0.9-2.6-7-4.4-7.4-2.2-10-4.6-10-9 0-5.9 6.5-9.8 14.4-8.6 5.5 0.8 8.2 2.7 7.3 5-0.5 1.3-1.3 1.6-3 1-4.4-1.5-10.9-1.1-12.1 0.8-1.5 2.4 0.2 5 4 5.9 1.6 0.3 4.2 0.9 5.7 1.3 6.5 1.5 8.7 8.1 4.4 13.2zm-253.8 1.9c-1.5 0.8-4.7 1.4-7.1 1.4-10.1-0.2-12.8-4-12.8-18.6 0-7.7 0.4-10.4 1.5-11.3 1.2-1 1.8-1 3 0 1.2 0.9 1.5 3.5 1.5 11.1 0 11.1 1.4 13.9 6.9 13.9 5.1 0 6.5-3 7.1-14.9 0.5-9.8 0.7-10.6 2.5-10.6 1.9 0 2 0.7 2.3 10.9 0.3 12.4-0.6 15.9-4.9 18.1zm354.6 0.5c-6.7 2.5-15.4 0.1-18.9-5.2-3.9-6.1-2.7-16.9 2.4-21.2 5.6-4.7 18.9-4.2 19.8 0.8 0.6 3.1-1.3 3.9-4.8 2.1-3.9-2.1-8.9-1.4-11.6 1.6-1.4 1.5-1.9 3.6-1.9 7.6 0 4.7 0.4 5.7 2.8 7.9 3.3 2.7 7.5 3.1 11.8 0.8 2.6-1.3 3-1.3 3.5 0 0.9 2.4-0.3 4.5-3.1 5.6zm-73.7-1.8c-0.3 2.1-0.8 2.3-8.8 2.5-4.7 0.2-9.1-0.1-9.8-0.6-0.9-0.6-1.2-4.3-1-14.7l0.3-13.9h9.5c7.8 0 9.5 0.2 9.5 1.5 0 1.1-1.6 1.5-7.2 1.7l-7.3 0.4v7.9h6.5c5.1 0 6.7 0.3 7.2 1.6 0.9 2.3-1.5 3.3-7.9 3.3l-5.8 0.1v8h7.6c7.3 0 7.5 0.1 7.2 2.2zm-82.6-2.9c1.9 0.7 6.4 0.8 8.3 0 2.3-0.9 4.5-5.6 4.5-9.7 0-9.5-7.9-13.9-14.1-7.7-2.3 2.3-2.9 3.8-2.9 7 0 4.4 2.1 9.5 4.2 10.4zm-242 0c1.9 0.7 6.4 0.8 8.3 0 2.3-0.9 4.5-5.6 4.5-9.7 0-9.5-7.9-13.9-14.1-7.7-2.3 2.3-2.9 3.8-2.9 7 0 4.4 2.1 9.5 4.2 10.4zm414.3-1.6c3.7 3.2 8.8 3 11.4-0.4 3.1-4 2.9-12.6-0.4-15.9-6.2-6.3-15.7 0.7-14.1 10.5 0.3 2.1 1.6 4.5 3.1 5.8zm108-0.2c5 5 12.6 1.8 14-5.9 1.9-9.7-7.7-16.5-14-10.2-2.1 2-2.5 3.5-2.5 8.1 0 4.6 0.4 6 2.5 8zm-77-18l-0.6 20.5h4.1c6 0 9.7-2.3 10.9-6.8 1.6-6-0.2-11-4.6-12.9-1.9-0.8-4.9-1.3-6.6-1.1zm-238.5-0.5v21h4c5.1 0 7.5-1.3 9.4-5 4.2-8.1-0.7-16-9.9-16zm-228.2 12.7c-0.3 12-0.4 12.8-2.3 13-1.2 0.2-2.4 0-2.8-0.4-0.4-0.4-0.7-6.2-0.7-13v-12.3h-5c-4.3 0-5-0.3-5-2 0-1.9 0.7-2 13-2 12.3 0 13 0.1 13 2 0 1.7-0.7 2-5 2h-4.9zm183.7-2.3c0 13.5-0.2 15-1.8 15.3-0.9 0.2-2-0.3-2.2-1-0.3-0.8-0.4-7.7-0.3-15.3 0.3-13.2 0.4-14 2.3-14 1.9 0 2 0.7 2 15zm314 0c0 13.5-0.2 15-1.8 15.3-0.9 0.2-2-0.3-2.2-1-0.3-0.8-0.4-7.7-0.3-15.3 0.3-13.2 0.4-14 2.3-14 1.9 0 2 0.7 2 15zm-415.5-10.5v9h4.8c5.3 0 7.2-1.2 7.2-4.7 0-2.8-2.7-4.3-7.9-4.3zm116.2 12.8c-0.3 0.9 1 1.2 4.7 1.2 2.9 0 5.1-0.3 4.9-0.7-0.2-0.5-1.2-2.9-2.2-5.5-1.1-2.7-2.3-4.8-2.7-4.8-0.6 0-1.6 2-4.7 9.8zm248.8-26.5c0 0.7-1.3 2.6-2.9 4.1-3.4 3.2-4.7 1.8-2.5-2.6 1.4-2.9 5.4-3.9 5.4-1.5z"/><path class="b" d="m463.5 258.2c0 3.4-3.3 3.3-8.8-0.1-4.6-3-10.2-10.2-11.3-14.7-0.5-1.9-1.5-2.3-8.2-2.9-4.3-0.3-12.1-1.5-17.6-2.6-5.4-1.1-10.2-1.8-10.7-1.7-1.8 0.6 3.4 9.5 8.2 13.9q4.9 4.6 4.3 6.2c-2.6 7-14.7-3.9-19-17.2l-2.1-6.4-7.9-2.8c-4.3-1.6-8.5-2.9-9.1-2.9-3.7-0.1 1.2 11.1 7 16.1 3.6 3.2 4 3.8 2.8 5.3-4.7 5.7-14.1-4.7-17.5-19.5-0.8-3.3-1.6-6.2-1.8-6.4-0.2-0.1-3-1.6-6.3-3.3-9.1-4.6-23.1-14.9-29.1-21.5-10.3-11.4-17.4-29.5-17.4-44.1 0.1-23.9 12.4-45 35-59.7l2.5-1.6-3.8-5.6c-4.1-6.3-12-13-18.6-16l-4.4-1.9-2.4 3.1c-1.9 2.4-3.2 3.1-5.9 3.1-6.6 0-10.3-3.3-10.4-9.1-0.1-9.9 13-13.6 17.5-4.9 0.8 1.6 2.4 3 3.3 3 6.1 0 19.7 10.4 26.2 20.1l3.9 5.7 7.8-2.5c4.3-1.3 11.4-2.9 15.8-3.6 4.4-0.6 8.1-1.1 8.3-1.2 0.1-0.1-0.5-2.6-1.4-5.6-1.9-6.4-5.7-14.1-9.1-18.6-2.4-3.1-2.7-3.2-8.2-2.7-4.7 0.5-6 0.3-8.3-1.5-7.4-5.9-2.7-17.1 7.2-17.1 4.2 0 8 3.9 8 8.1 0 2.4 1.1 4.4 4.4 7.9 6 6.4 10.5 15.8 13 27.1 0.5 2.4 1.1 2.7 7.3 3.3 3.7 0.3 9.1 0.9 12 1.2l5.2 0.7-1.9-7.4c-5.6-22.6-1.9-42.1 10.5-53.8 18.6-17.6 45.8-4.6 47.3 22.7 0.2 3.9 0.6 7.2 0.8 7.2 0.3 0 3.7-2.2 7.7-4.9 13.9-9.4 22.7-12.5 35.5-12.4 7.1 0 9 0.4 13.9 2.9 6.6 3.4 12.5 10.3 14.3 17 0.7 2.3 1.1 7.6 0.9 11.7-0.9 16.6-14.1 33.7-33.8 43.6-5.6 2.8-12.7 5.8-15.7 6.7l-5.5 1.6 7.3 7.7c13 13.9 19.4 28.2 20.5 45.8l0.6 9.2 4.1 3.3c7.4 5.9 19.7 17.1 19.3 17.4-0.2 0.3-6.6 0.9-14.3 1.4-7.6 0.6-14.9 1.3-16.1 1.5-1.2 0.3-3.7 2.6-5.5 5.1-6.8 9.5-22 19.9-35 24-3.2 1-5.8 2.2-5.8 2.7 0 1.9 7.4 7.9 12.9 10.5 4.6 2.2 5.6 3.2 5.6 5.2 0 3.5-2.4 3.6-9 0.4-6.7-3.1-11.6-7.2-14.6-12l-2.2-3.6-5.9 0.7c-3.3 0.4-7.1 1-8.4 1.4l-2.5 0.6 2.3 3.5c1.3 1.9 4.6 5.1 7.3 7.2 3.4 2.6 5 4.5 5 6zm-102-47.7c5.8 3.5 6.3 3.6 13 3.1 21.8-1.5 42.4-15.9 53.2-37.1 7.2-14.1 8.8-21.1 8.7-37-0.1-9.7-0.6-14.7-2.1-19.6-2.5-8.6-8.2-18.6-14.1-24.9-4.7-5-4.7-5-12.3-5.7l-7.6-0.6-0.7 4.9c-1 7.2-1.5 8.4-3.6 8.4-2.4 0-3.1-2.3-2.4-8.1l0.7-4.9h-4.5c-7.1 0-19.5 3.6-29.7 8.6-25.5 12.6-39.6 41-33.7 67.8 4.1 18.1 15.9 33.3 35.1 45.1zm96.6-91.4c1.7 1.1 15.6 0.2 25.8-1.7 35.1-6.5 58.3-23.6 63-46.5 3.1-14.7-6-27.3-20.7-28.6-17.7-1.6-38.9 10.6-53.3 30.7-9.7 13.4-14.5 23.5-19.4 40.8-0.5 1.9 1.2 0.8 8.2-4.8 4.8-3.9 9.3-7.8 10-8.6 0.6-0.9 1.6-4.5 2.3-8.2 1.7-10.4 3-14.2 4.5-14.2 2.3 0 2.4 1.2 1 8l-0.1 0.4c-1 4.8-1.6 7.3-0.8 7.8 0.9 0.6 3.4-1.3 8.8-5.4l0.4-0.3 9.8-7.5 2.4-12c2.3-11.7 4.2-15.9 5.9-13.1 0.7 1.1-0.5 10-2.4 17.9-0.3 1.2-0.3 2.2-0.1 2.2 0.3 0 6.6-4.7 14.2-10.5 12.8-9.9 16.2-11.7 17.1-8.9 0.2 0.7-6.2 6.3-14.3 12.5l-14.8 11.4 5.5 0.7c2.9 0.3 8.2 0.7 11.7 0.7 5.7 0.1 6.2 0.3 6.2 2.3 0 2.1-0.1 2.1-14.6 1.5l-14.7-0.6-8.3 6.5c-4.6 3.6-8.4 6.9-8.4 7.5 0 0.5 3.7 0.9 8.3 0.9 8.7 0 12.8 1.5 11.2 4-0.6 1-3.6 1.1-13.7 0.6l-12.9-0.7-9.6 7.1c-7.2 5.4-9.2 7.5-8.2 8.1zm-33.1 114.2c7.8 1.3 11.6 0.7 16.5-2.4 13.9-8.8 25.3-21.7 33.1-37.4 7-14.1 9.4-23.6 10-39.5 0.4-9.7 0.1-14.4-1.3-21l-1.8-8.5-9.5 0.4c-5.2 0.2-9.8 0.5-10.1 0.7-0.4 0.2-0.3 2.3 0.2 4.6 1.4 7.5 1 22.9-1 32.3-5.8 28.3-24 51.4-49.8 63.2-3.8 1.8-5.1 2.8-4.2 3.3 1.4 0.7 13.2 3.6 17.9 4.3zm24.5-139.6c1 0.7 2.2 1.3 2.6 1.3 0.4 0 2.9-3.9 5.4-8.8 2.5-4.8 7-11.9 9.8-15.6 7.3-9.7 7.7-10.5 7.7-16.6 0-23.2-14.9-37.3-31.8-30-13.3 5.7-19.8 21.6-17.3 42.5 0.6 5 1.9 11.8 2.9 15.1 1.9 6.3 2.7 6.9 11.8 8.8l3.1 0.7 0.6-7.8c0.4-4.3 0.9-9.8 1.2-12.3 0.6-4.2 0.3-5.1-5.5-14.2-5.7-9-6.9-12.8-4-12.8 0.6 0 3.1 3.2 5.6 7.1 2.5 3.9 4.8 6.9 4.9 6.7 0.2-0.2 0.9-4.4 1.4-9.3 1.8-14.7 2-15.5 4.1-15.5 2.5 0 2.5 1.4 0.5 17.5q-0.2 1.2-0.3 2.3c-1 8.3-1.5 11.8-0.6 12.2 0.6 0.2 2-1.1 4.3-3.4q0.4-0.4 0.9-0.9c3.2-3.1 6.3-5.7 7-5.7 3 0 0.6 4.5-6.3 11.8l-7.5 8-1.2 8.8c-1 8.1-1 8.8 0.7 10.1zm33.3 128.9c-3.9 4.1-6.7 7.4-6.2 7.4 0.4 0 5.1-2.1 10.4-4.6 32.4-15.8 42.5-51.9 23-82-2.4-3.5-4.4-6.4-4.5-6.4-0.2 0-0.1 1.2 0.1 2.8 0.3 1.5 0.8 8.6 1.1 15.8 0.6 15.4-0.8 24.2-6.1 37.7-5.1 12.9-10.1 21.1-17.8 29.3zm-104.9-53.1c-4 2.1-13.7 1.9-17.4-0.4-4-2.4-8.5-7.8-8.5-10.1 0-3.6 2.9-3 7.4 1.5 4.1 4.3 4.7 4.5 10 4.5 4.7 0 6-0.4 9-3 3.7-3.3 6.1-3.8 7-1.5 0.7 1.8-3.7 7.1-7.5 9zm24.2-22.4c-1.6 1.6-3.8 2.9-4.8 2.8-4.9-0.1-9.3-4.2-9.3-8.7 0-3.2 5.2-8.2 8.5-8.2 3.5 0 8.5 5 8.5 8.5 0 1.6-1.2 3.8-2.9 5.6zm-46.6-5.3c-4.1 4.9-10.3 4.2-13.3-1.5-3-5.5 0.9-11.3 7.6-11.3 7.2 0 10.4 7.2 5.7 12.8z"/><path class="c" d="m361.5 210.5c-19.2-11.8-31-27-35.1-45.1-5.9-26.8 8.2-55.2 33.7-67.8 10.2-5 22.6-8.6 29.7-8.6h4.5l-0.7 4.9c-0.7 5.8 0 8.1 2.4 8.1 2.1 0 2.6-1.2 3.6-8.4l0.7-4.9 7.6 0.6c7.6 0.6 7.6 0.7 12.3 5.7 5.9 6.3 11.6 16.3 14.1 24.9 1.5 4.9 2 9.9 2.1 19.6 0.1 15.9-1.5 22.9-8.7 37-10.8 21.2-31.4 35.6-53.2 37.1-6.7 0.5-7.2 0.4-13-3.1zm-155.6 423.5c-19.1 3-45.5-1.4-53.1-9.1-3.2-3.1-3.6-7.4-1.3-11.9 3.3-6.5 7.7-7.3 17.7-3.6 19.6 7.4 41.9 4.7 54.2-6.5 7.9-7.2 10.6-13.2 10.6-23.5 0-7.6-0.2-8.5-3.3-12.9-6.4-9.6-18.4-13.3-32.7-10.3l-6.5 1.4 0.3 9c0.1 4.9 0.9 13.2 1.7 18.4 1.7 11.4 1.1 14.7-3.5 17.8-4.1 2.7-8.5 2.8-12.7 0.2-5.5-3.3-7.9-15.2-8.9-44-0.7-19.8 1.5-48 4.1-53 2.2-4.1 5.3-6 10.3-6 3.7 0 5 0.6 7.9 3.5 3.5 3.5 3.6 3.6 2.9 9.8-0.4 3.4-0.9 9.7-1.3 14.1l-0.6 7.8 3.4-0.7c8.6-1.9 20-9.9 23.4-16.6 6.6-12.7 1.6-25.4-11.5-29.3-6.6-2-11.5-2-20.2-0.1-9.5 2-12.3 3.7-21.4 13.1-7.9 8.2-8.2 8.4-12.8 8.4-3.9 0-5.3-0.5-7.7-2.9-2.3-2.4-2.9-3.8-2.9-7.4 0-3.7 0.7-5.5 4.4-10.5 11-14.8 29.4-23.1 51.6-23.2 16.1 0 27.1 4.1 36.7 13.7 8.8 8.9 11.9 21.1 8.8 34.8-1.3 6.1-2.8 9.3-7.1 15.7-3 4.4-5.4 8.2-5.2 8.3 0.2 0.1 2.1 1.2 4.3 2.3 6.4 3.2 12.9 9.6 16.3 16 17.7 33.3-4.3 70.4-45.9 77.2zm103.4-30.6c-14.6 3.3-27.8 1.3-34.6-5.1-8.9-8.5-11.8-25.8-9.8-57.7 2.1-31.8 5.3-40.3 16.8-44.6 9.7-3.6 38-1.9 44.2 2.8 1.5 1 3.2 3.2 4 4.7 2 4.1-0.2 10.2-4.6 12.8-3.1 1.8-3.7 1.8-13.1 0.3-12-1.9-18.6-2-20-0.3-1.4 1.6-3.2 11.9-3.2 18 0 4.9 0 4.9 2.7 4.3 7-1.5 19.3-1.8 22.3-0.6 5.4 2.3 7.5 9.2 4.5 15-2.1 4.1-3.8 4.8-16.1 6-9.1 0.9-12.7 1-13.9 2.8-0.7 1-0.5 2.7-0.3 5.6q0.1 0.8 0.2 1.7c0.8 9.6 2 12.4 5.8 14 4.3 1.8 10.8 0.4 20.5-4.1 10.2-4.7 13.2-5 17.3-1.2 4.6 4 5.1 9.7 1.4 14.2-3.5 4.1-14.2 9.2-24.1 11.4zm68.3 1.5c-4.2 0.6-8.1 1.1-8.4 1-24-2.9-30.3-15.5-28.8-57.9 1.1-35.4 4.1-45.5 15-51.3 3.7-2 5.5-2.2 19.1-2.2 16.7 0.1 24.8 1.7 29.1 6 4.7 4.7 2.2 14.1-4.3 16.6-1.7 0.6-5.3 0.4-11.2-0.6-12-2.1-19.8-2-20.9 0.3-1.2 2.3-3.2 13.9-3.2 18.7 0 3.6 0.1 3.7 3 3.1 7.8-1.5 19-1.8 22-0.6 5.7 2.4 7.8 10.4 3.9 15.4-3 3.9-4.8 4.5-16.1 5.7-5.7 0.6-11 1.5-11.9 2-1.4 0.7-1.6 2-1.2 7.6 0.7 9.8 1.8 12.9 5.4 14.3 4.5 1.9 11.4 0.5 20.4-4 10.1-5 13.5-5.2 18.1-0.6 5.6 5.6 4 13.1-3.7 17.8-5.6 3.5-18 7.6-26.3 8.7zm47.4-371.6c-4.7-0.7-16.5-3.6-17.9-4.3-0.9-0.5 0.4-1.5 4.2-3.3 25.8-11.8 44-34.9 49.8-63.2 2-9.4 2.4-24.8 1-32.3-0.5-2.3-0.6-4.4-0.2-4.6 0.3-0.2 4.9-0.5 10.1-0.7l9.5-0.4 1.8 8.5c1.4 6.6 1.7 11.3 1.3 21-0.6 15.9-3 25.4-10 39.5-7.8 15.7-19.2 28.6-33.1 37.4-4.9 3.1-8.7 3.7-16.5 2.4zm23.8 608.2c-1.6 1.9-3.4 3.5-3.8 3.5-2.6 0-15.6-18.4-19-27-2.9-7.2-3-16.2-0.2-21.5 10.7-21 40.3-13.8 40.2 9.7-0.1 9.6-6.9 23.6-17.2 35.3zm-159.5-368.8c-7.9 3.4-14.7 6.3-15.3 6.3-0.5 0-0.2-1.9 0.8-4.3 0.9-2.4 4.6-11.6 8-20.3l6.4-16 12.6-5.8c20.4-9.4 28.2-12.6 28.2-11.5 0 0.6-2.4 6.7-5.4 13.7-3 7-6.8 16.1-8.5 20.3-3 7.3-3.4 7.7-7.9 9.4-2.6 1-11.1 4.7-18.9 8.2zm193.5-250.1c7.7-8.2 12.7-16.4 17.8-29.3 5.3-13.5 6.7-22.3 6.1-37.7-0.3-7.2-0.8-14.3-1.1-15.8-0.2-1.6-0.3-2.8-0.1-2.8 0.1 0 2.1 2.9 4.5 6.4 19.5 30.1 9.4 66.2-23 82-5.3 2.5-10 4.6-10.4 4.6-0.5 0 2.3-3.3 6.2-7.4zm-44.1 590c3.6 3.3 9.5 3.3 12.8 0 1.9-1.9 2.5-3.6 2.5-7 0-3.7-0.5-4.8-3.1-7-4.1-3.5-8.8-3.5-12.2 0-4.7 4.7-4.7 9.6 0 14zm-60.8-643.1c3.8-1.9 8.1-7.2 7.5-9-0.9-2.3-3.3-1.8-7 1.5-3 2.6-4.3 3-9 3-5.3 0-5.9-0.2-10-4.5-4.5-4.5-7.4-5.1-7.4-1.5 0 2.3 4.5 7.7 8.5 10.1 3.7 2.3 13.4 2.5 17.4 0.4zm24.2-22.4c1.7-1.8 2.9-4 2.9-5.6 0-3.5-5-8.5-8.5-8.5-3.3 0-8.5 5-8.5 8.2 0 4.5 4.4 8.6 9.3 8.7 1 0.1 3.2-1.2 4.8-2.8zm-46.6-5.3c4.7-5.6 1.5-12.8-5.7-12.8-6.7 0-10.6 5.8-7.6 11.3 3 5.7 9.2 6.4 13.3 1.5zm10.3 645.2c-0.3 4.7-0.6 5.5-2.3 5.8-1.2 0.2-2.4 0-2.8-0.4-1.3-1.3-0.8-10.1 0.7-11.3 0.7-0.6 1.1-2.2 0.9-3.4-0.3-1.3 0.2-4 1.1-6.1 1.2-3 2-3.7 3.8-3.4 1.9 0.2 2.3 0.9 2.2 3.4-0.1 1.7-0.9 4.6-1.8 6.5-0.8 1.9-1.7 5.9-1.8 8.9zm203.8-469.1c-2.3 4.3-3.9 5.3-6.2 3.7-1.7-1.3-1.8-1.8-0.7-4.6 1.1-2.9 1-3.3-2.5-6.4-3.1-2.9-3.5-3.6-2.3-5 1.8-2.2 2.7-2 8.3 1.5 5.3 3.4 6 5.7 3.4 10.8zm-271.4 136.5c3 2.1 5.4 2 7.8-0.4 3.9-3.9 1.4-10-4.1-10-5.7 0-8.2 7.3-3.7 10.4zm-30.1-29.6c-0.5 1-0.8 1.6-1.3 1.8-0.8 0.5-2.2 0-6.1-1.5l-0.4-0.2c-5.6-2.1-7.2-4.4-4.9-6.7 1.3-1.3 2.2-1.3 5.5-0.4 2.1 0.7 4.9 2 6.1 3 1.9 1.6 2.1 2.2 1.1 4zm279 198.7c-5.7 3.6-9.1 3.3-9.1-0.6 0-2.7 8.8-8.5 10.9-7.2 3.2 2 2.5 5-1.8 7.8zm-33.8 18.8c-4.7 2.4-8 2.8-9.3 1.2-2.1-2.6-0.7-4.7 4.8-6.8 4.8-1.8 5.5-1.9 6.9-0.4 2 2 1.1 4.2-2.4 6zm-17.1 6.1c-5.7 1.6-9.9 1.6-11.1 0.2-0.8-0.9-1.1-2.2-0.8-3 0.6-1.5 6.6-3.6 10.3-3.6 4.3 0 5.5 5.3 1.6 6.4zm-143.5-278.5c-1.2 0.5-4.1 1.2-6.5 1.6-3.5 0.6-4.3 0.4-4.9-1-1-2.8 1.1-4.9 6.2-6.2 3.5-0.9 5.2-0.9 6.2-0.1 2 1.7 1.5 4.8-1 5.7zm251.8 43.8c-1.8 2.7-3.7 2.9-5.5 0.8-1-1.2-0.9-2.4 0.7-6.2 2.3-5.8 4.6-7.4 6.9-5.1 1.4 1.4 1.5 2.2 0.5 4.9-0.6 1.8-1.8 4.3-2.6 5.6zm-214.2 332.6c-7.8 5.9-12.1 0.9-4.4-5.2 4.2-3.4 7.5-4 8.5-1.6 0.8 2.2-0.1 3.7-4.1 6.8zm-165.2-324.4c-7.5 2.2-11.7 0.6-8.8-3.3 2.6-3.4 12-4.9 13.1-2.1 0.9 2.6-0.4 4.2-4.3 5.4zm-33.7 20.1c-3.9 4.3-5.5 4.8-7.4 2.5-1-1.2-0.8-2.1 1-5 3-4.9 6.5-7.1 8.5-5.5 2.3 1.9 1.8 3.6-2.1 8zm358-96.3c-3 4-7.7 6.6-9.2 5.1-2.1-2.1-1.3-4.5 2.9-8.2 4.2-3.9 5.5-4.1 7.3-1.3 0.8 1.2 0.5 2.3-1 4.4zm-48.1 24.4c-0.5 0.5-3.2 1.2-5.9 1.5-6 0.8-9.2-1.3-7.4-4.7 0.9-1.5 2.2-1.9 7-1.9 5.1 0 5.9 0.3 6.5 2.1 0.4 1.2 0.3 2.5-0.2 3zm34.5-75.4c-0.4 2.3-3.3 2.6-8.6 0.6q-7.4-2.6-3.9-6c1.4-1.4 2.2-1.4 6.1-0.3 5.1 1.4 6.9 3 6.4 5.7zm-96 351.6c-0.2 1.7-1 2.2-3.8 2.4-6.9 0.3-11.1-2.4-9.6-6.2 0.5-1.4 1.4-1.6 4.6-1.1 6.8 1.1 9.2 2.4 8.8 4.9zm38.2 4.1c-2.5 2.3-10.5 3-12.4 1.1-3.3-3.3-1.2-5.2 6.3-5.7 4.2-0.2 5.6 0.1 6.4 1.4 0.9 1.4 0.8 2.1-0.3 3.2zm-57-9.4c-0.6 1.1-2.1 2-3.3 2-3.5 0-10.2-4.3-10.2-6.5 0-3.5 5.2-3.3 11.3 0.5 2.8 1.7 3.1 2.3 2.2 4zm-10.7-268.2c-1.3 2.2-2.9 2.3-7.7 0.9-4.9-1.5-6.7-4-4.5-6.2 1.3-1.4 2.3-1.4 6.2-0.4 5.5 1.3 7.6 3.3 6 5.7zm55.1-12.4c-1 2.6-4 1.9-7.9-1.8-6.3-6-3.1-11.5 3.4-6 3.8 3.2 5.3 5.7 4.5 7.8zm132-19c-2.1 2.1-2.1 2.1-5.5-1.5-4.6-4.9-5.1-9.9-1-9.9 2.1 0 4.2 2.2 6.5 6.7 1.4 2.9 1.4 3.3 0 4.7zm-224.3 26c-0.9 1.1-3 1.6-6.6 1.6-5.6 0-6.5-0.4-6.5-3.1 0-2.6 3.4-4.1 8.2-3.7 4.8 0.4 7 2.7 4.9 5.2zm-83.7 47.5c-5.6 6.7-9 1.4-3.9-6.2 3.7-5.3 8.5-4.8 7.1 0.8-0.3 1.3-1.8 3.7-3.2 5.4zm193.1-47.9c0 3-3.1 3.6-8.4 1.7-4.6-1.6-6.1-4.1-3.9-6.3 1.6-1.6 2-1.6 7 0.2 4.5 1.6 5.3 2.3 5.3 4.4zm-3.4 38.4c-1.8 2.1-2.8 2-7.9-1.1-3.6-2.1-4.3-3-4-5.2 0.5-4.1 3.7-3.8 8.8 0.7 3.9 3.5 4.3 4.1 3.1 5.6zm-19.7 244.9c-0.5 1.3-1.9 1.7-6.4 1.7-6.1 0-8.5-1.4-7.8-4.7 0.3-1.5 1.3-1.8 6.2-1.7 6.2 0.2 9.1 1.9 8 4.7zm35.6-235.3c-1.6 3-4.7 2.3-9.8-2.3-4.5-4.1-1.6-8 3.9-5.1 5.1 2.6 7.1 5.1 5.9 7.4zm83.4 23.8c-5.3 2.6-5.8 2.7-7.5 0.6-1.9-2.3-0.1-4.4 5.6-6.8 4.5-1.9 4.8-1.9 6.1-0.2 1.8 2.6 0.9 3.9-4.2 6.4zm-186.9-71.3c0 3.4-0.8 3.6-7.3 2.6-5.9-1-7.8-4.1-4-6.5 1.1-0.6 3.3-0.6 6.5 0 4.5 0.8 4.8 1.1 4.8 3.9zm-78.7 20.1l-0.3 0.1c-1.7 0.9-2.4 1.3-3 1.2-0.4-0.1-0.7-0.5-1.3-1.1-2-2-1.4-3.5 2.5-6.7 4.2-3.4 6.4-3.9 8.3-1.6 1.1 1.3 0.9 2-1.1 4.1-1.3 1.4-3.6 3.2-5.1 4zm162.2-89.1q-0.4 0.2-0.8 0.4c-3.2 1.6-4.2 2.2-4.9 1.9-0.4-0.2-0.7-0.6-1.2-1.2-1.6-1.9-0.4-4.2 3.4-6.6 3.8-2.4 6.8-2.6 8.5-0.5 1.6 2 0.7 3.1-5 6zm87 313.3c-7.5 5-10.8 1-4.1-5 4.8-4.2 6.2-4.6 8.2-2.2 1.6 2 0.4 4.1-4.1 7.1zm-168.6 227.6c-1 2.8-3.2 2.7-7.4-0.4-4.9-3.5-5.8-5.5-3.7-7.6 1.4-1.4 1.9-1.4 4.9 0.5 4.7 2.9 7 5.6 6.2 7.5zm69.4-445c-0.4 3.1-3.6 3.2-8.6 0.1-4.3-2.6-5.1-4.1-3-6.2 1.8-1.8 3.9-1.5 8.1 1.4 2.8 1.8 3.7 3.2 3.5 4.7zm131.9 33.2c-4.7 4.7-7.7 4.7-7.7 0 0-2.8 6.2-8.8 8.6-8.3 3.3 0.6 2.9 4.5-0.9 8.3zm-35.3-93.7c-3.9 4.6-4.4 4.8-6.2 3-2-2-1.4-4.3 2.2-8.4 2.9-3.3 3.7-3.7 5.3-2.8 2.9 1.8 2.6 3.7-1.3 8.2zm-156 298.5c-1 2.7-3.1 2.6-7.8-0.3-7.3-4.6-5.4-10.5 2-6.5 4.4 2.4 6.6 4.9 5.8 6.8zm21.1 94.5c-5.6 2.7-7.1 2.7-8.5 0.3-1.3-2.5 0.7-4.6 6-6.2 7.9-2.4 9.9 2.3 2.5 5.9zm-14 120.7c0 1.4-0.8 2.1-2.5 2.3-2.8 0.2-11-3.2-11-4.7 0-2.4 1.4-4.1 3.4-4.1 3.4 0 10.1 4.3 10.1 6.5zm85.4-555.6c-3.5 1.2-9.2 1.5-10.2 0.4-0.4-0.3-0.7-1.5-0.7-2.5 0-4.2 13.2-5.3 13.8-1.2 0.2 1.7-0.5 2.4-2.9 3.3zm34.9 68.7c-3.5 1.8-5.7 1.8-6.4-0.1-1-2.5 0.3-4.3 4.5-6.4 4.9-2.5 6.7-2.6 7.5-0.5 0.7 2-1.7 5-5.6 7zm-102 492.7c-0.4 2.6-3.3 3.1-9.1 1.5-4.3-1.1-5.6-3-3.6-5.4 0.9-1.1 2.2-1.4 5.3-0.8 5.8 0.9 7.8 2.2 7.4 4.7zm33.2-544.3c-3.8 4.8-8 5.6-8 1.5 0-3.4 5.7-9.7 8.4-9.3 3.2 0.5 3.1 3.4-0.4 7.8zm144.3 48.9c-1.9 3-3.8 2.3-6.1-2.4-2.6-5.3-2.8-8.1-0.7-8.9 2.6-1 4.4 0.5 6.1 5.1 1.3 3.3 1.5 5 0.7 6.2zm-357.5 59.9c-0.3 2.2-0.8 2.7-3.3 2.8-1.7 0.1-4.6-0.1-6.5-0.5-2.9-0.5-3.5-1-3.5-3.1 0-2.2 0.5-2.5 4.4-2.8 7-0.5 9.3 0.4 8.9 3.6zm281.5 215.7c-4.2 2.8-8.1 3.3-9 1-0.7-2 1.5-4.4 6.1-6.9 6.9-3.7 9.4 1.4 2.9 5.9zm-123.7 101.9c-5.1 3-5.7 3.1-7.4 1.4-2.1-2.1-1.3-3.7 2.9-6.3 4.7-3 8.3-3 8.7 0.1 0.2 1.6-0.8 2.8-4.2 4.8zm-74.5-359.4c-6 3-9.1 2.6-9.1-1.2 0-2.1 7.2-6.1 10.3-5.6 1.4 0.2 2.3 1.1 2.5 2.5 0.2 1.7-0.6 2.7-3.7 4.2zm-30.2 22.6c-1.7 1.9-4 3.5-5 3.5-4.5 0-3-6.4 2.3-10.2 5.9-4.2 7.9 0.8 2.7 6.7zm215.8-108.1c-0.5 1.2-2 1.6-5.9 1.6-6.4 0-8.1-1-7.6-4.1 0.3-2.2 0.8-2.4 5.6-2.4 5.6 0.1 8.9 2.1 7.9 4.9zm-311.2 138.8c-4.5 3.1-7.3 3.5-8.1 1.3-0.9-2.3 0.2-4.3 3.8-6.5 7.6-4.7 11.5 0.2 4.3 5.2zm310-62.1c-4.8 2.8-8 3.3-9.5 1.4-1-1.2-1.1-2.1-0.4-3.3 1.2-1.8 8.1-4.4 10.9-4 3 0.4 2.5 3.9-1 5.9zm70.3-42.4c-0.7 4-8.1 1.4-10.8-3.7-1.3-2.5-0.2-5 2.2-5 2.7 0 9 6.5 8.6 8.7zm-33.4-22c-1.5 2.5-2.4 2.4-7.7-0.3q-4.7-2.4-4.7-4.4c0-2.8 1.8-3.4 6.1-2 5 1.7 7.7 4.5 6.3 6.7zm-166.6 319.1c-1.7 1.7-2 1.6-6.8-3.3-3.7-3.7-4.1-4.6-3-6 1.8-2.2 3.5-1.9 7.5 1.6 3.6 3.2 4.4 5.6 2.3 7.7zm223.7-227.2c-0.5 2.3-2.2 3.4-4.3 2.7-1.9-0.7-1.6-11.7 0.4-13.4 3.8-3.1 5.8 2.3 3.9 10.7zm-99.2 31c-1.3 3.5-11.5-1-12.1-5.4-0.5-3.1 2.2-3.8 6.4-1.6 4.2 2.2 6.5 5 5.7 7zm-134.3 334.2c-3.2 4.5-5.3 5.2-6.9 2.5-1.1-2.1 0.5-5.7 4.3-9.2 2.1-2 2.8-2.2 4.1-1.1 2.1 1.8 1.9 3.1-1.5 7.8zm1.3 67c-1.5 2.5-2.7 2.4-5.5-0.5-5.3-5.7-6.1-10.8-1.6-10.1 3.1 0.4 8.5 8.5 7.1 10.6zm199.1-526.1c-1.4 3.4-2.6 4.9-4.2 5.1-3 0.5-3.9-2.2-2.1-7.1 1.8-5.2 4.2-6.8 6.6-4.5 1.6 1.7 1.6 2-0.3 6.5zm-132.7 419.1c-4.8 2.3-9.6 2.7-10.3 0.8-0.3-0.9-0.4-2.2-0.1-2.9 0.6-1.6 8.6-4.1 11.3-3.5 2.9 0.5 2.3 4.1-0.9 5.6zm119.7-277.4c-2.1 2.1-11.2 2.2-12 0.1-1.2-2.9 0.4-4.2 5.7-4.8 7-0.9 9.8 1.2 6.3 4.7zm-196.5 368.7c-2.1 1.3-2.7 1.1-4.4-1.4-2.3-3.6-2.4-9.7-0.2-11.1 1.5-0.9 2.1-0.7 3.2 0.8 2.2 2.9 3.1 10.6 1.4 11.7zm177.9-370.8c-0.7 4.8-12.3 1.7-12.3-3.3 0-2.2 0.4-2.5 3.3-2.2 5.3 0.4 9.4 2.9 9 5.5zm-100-55c-0.4 2.7-3.2 3.2-7.3 1.3-4.4-1.9-6.1-4.2-4.5-6.1 1.7-2 3.3-1.9 8.1 0.5 3.1 1.6 3.9 2.6 3.7 4.3zm165-12.1c-0.2 3.5-0.7 4.4-2.5 4.6-2.7 0.4-3-0.2-3.9-6.5-0.6-4.5-0.4-5.2 1.4-6.2 3-1.6 5.4 2.3 5 8.1zm-182.3 4.8c0 3.3-2.7 3.6-8.3 1-3.5-1.6-4.3-2.4-4-4.2 0.2-1.9 0.9-2.3 3.4-2.2 5.1 0.2 8.9 2.6 8.9 5.4zm152.3-128.2c-0.4 3.8-4.4 4.3-5.8 0.7-2.6-6.8-2-10.5 1.7-10.5 1.8 0 4.5 6.4 4.1 9.8zm0.2 37.2c-1 1.9-4 2.7-5.3 1.3-1.1-1-0.8-5.6 0.4-9.2 0.9-2.5 1.6-3.1 3.3-2.9 1.7 0.2 2.2 1.1 2.4 4.5 0.2 2.3-0.2 5.1-0.8 6.3zm-53.2 146.5c-0.4 2.6-4.2 3-8.5 0.8-3.5-1.8-4.6-3.5-3.7-5.8 0.8-2.1 2.5-1.9 7.9 0.7 3.5 1.7 4.5 2.7 4.3 4.3zm47-200c-0.4 2.3-4 3.2-5.5 1.3-0.6-0.7-1.8-2.8-2.8-4.7-1.5-3-1.5-3.5-0.2-4.9 0.9-0.8 2.2-1.2 3.1-0.9 2.2 0.9 5.7 6.8 5.4 9.2zm-120.6 108.6c0.3 3.8 0 4.4-1.8 4.7-3 0.4-4.8-2.3-4.8-7.6-0.1-4.1 0.2-4.7 2.1-5 2.7-0.4 4.1 2.1 4.5 7.9zm-7.4 514.2c-0.3 1.8-1.1 2.2-4.8 2.5-5.6 0.4-9.1-1.7-7.4-4.5 1.3-2.2 7.4-2.9 10.4-1.3 1.4 0.7 2 1.9 1.8 3.3zm6.2-529.4c-1.3 2.5-4.8 2.8-5.7 0.5-0.3-0.9 0.1-3.7 0.8-6.3 1.3-3.8 1.9-4.6 3.9-4.6 2.3 0 2.5 0.4 2.3 4.2-0.1 2.3-0.7 5.1-1.3 6.2zm-171.6 103.9c-1.9 2.7-3.5 2.8-6.4 0.4-1.8-1.5-2.1-2.2-1.2-3.8 1.4-2.6 5.6-4.8 7.6-4.1 2 0.8 2 4.6 0 7.5zm299.3 167c-2.3 2.5-7 5-8.5 4.5-3.5-1.3 2.4-9.3 6.9-9.3 2.6 0 3.5 2.7 1.6 4.8zm1.8-333.3c0 5.5-0.2 6-2.3 6.3-2.8 0.4-3.4-1.2-3-7.4 0.3-4.5 0.5-4.9 2.8-4.9 2.4 0 2.5 0.3 2.5 6zm-17.7-45.9c-0.5 3-4.1 2.8-7.2-0.5-3.1-3.2-3.2-6.5-0.1-6.9 2.6-0.4 7.8 4.9 7.3 7.4zm-382.8 236.6c-1.1 3.1-2.1 4.4-3.8 4.6-3.2 0.5-3.9-2.4-1.6-6.7 2.1-3.9 3.2-4.5 5.4-3.1 1.3 0.8 1.3 1.4 0 5.2zm280.3 258.9c-0.5 0.5-2.4 1.3-4.1 1.8-2.5 0.8-3.6 0.6-4.8-0.7-1.5-1.5-1.5-1.7 0.6-3.4 2.8-2.2 7.8-2.4 8.7-0.2 0.3 0.8 0.1 2-0.4 2.5z"/></svg>