<svg version="1.2" xmlns="http://www.w3.org/2000/svg" viewBox="0 0 920 399" width="920" height="399">
	<style>
		.s0 { fill: #d0962b } 
		.s1 { fill: #ffffff } 
	</style>
	<g>
		<path class="s0" d="m874.99 307.51c-3.4 1.75-4.94 1.77-11.06 0.12-6.84-1.84-12.74-5.71-19.55-12.81-6.94-7.23-10.57-12.66-18.86-28.19l-5.8-10.86-4.53 0.62c-2.49 0.34-4.75 0.83-5.01 1.09-0.26 0.26 0.05 6.97 0.68 14.9 1.6 20.18 1.55 20.98-1.42 24.51-4.69 5.57-13.89 4.93-17.94-1.25-3.66-5.59-4.63-100.6-1.11-109.03 3.55-8.49 13.11-12.05 30.64-11.43 10.74 0.39 12.26 0.69 18.26 3.64 8.31 4.09 15.75 12.01 18.73 19.93 1.81 4.8 2.11 7.34 1.8 15.33-0.5 12.64-3.95 20.12-13.25 28.63l-6.35 5.82 2.73 5.99c4.11 9 13.18 22.45 18.33 27.18q4.57 4.2 10.12 5.81c6.62 1.93 9.6 5.16 9.6 10.4 0 4.31-2.02 7.53-6.01 9.6zm-212.78-14.51c-3.65 1.38-7.67 1.99-13 1.98-17.46-0.06-31.01-10.78-37.96-30.04-2.44-6.76-2.69-8.76-2.72-21.94-0.03-12.72 0.26-15.36 2.36-21.5 3.58-10.5 6.79-16.28 12.2-22 12.03-12.72 28.69-15.53 43.93-7.41 7.72 4.11 13.3 10.24 17.51 19.22 14.58 31.12 3.42 71.97-22.32 81.69zm92.1-1.36c-7.47 3.65-20.14 4.36-27.98 1.57q-19.63-7-24.81-36.78c-2.75-15.74-1.41-53.82 2.14-60.72 3.18-6.19 12.85-7.29 18.08-2.06 2.38 2.38 2.48 2.92 1.89 10.18-3.76 46.11 0.24 67.37 13.11 69.78 8.02 1.51 14-5.15 16.89-18.8 1.23-5.84 1.43-11.43 0.97-27.81-0.32-11.27-0.86-23.93-1.19-28.12-0.59-7.36-0.52-7.73 2.24-10.81 5.79-6.49 16.11-4.43 18.26 3.63 3.98 14.96 4.68 50.59 1.3 66.6-3.68 17.41-10.46 28.23-20.9 33.34zm-165.57 11.79c-5.65 3.71-13.32 2.23-16.07-3.1-2.35-4.55-3.68-16.32-4.56-40.34-0.74-20.46 0.21-70.59 1.4-73.83 0.4-1.07-2.07-1.3-12.76-1.15l-0.98 0.02c-14.6 0.2-17.77 0.24-19.92-1.21-0.64-0.44-1.19-1-1.93-1.74-5.19-5.2-3.35-13.44 3.58-16.08 1.27-0.48 10.56-1.37 20.65-1.98 10.09-0.6 26.9-1.75 37.35-2.55 26.65-2.04 29.81-1.97 33.01 0.78 3.59 3.1 4.31 9.12 1.59 13.45-2.52 4.02-5.43 4.79-23.6 6.3-7.7 0.64-14.37 1.51-14.82 1.95-1.2 1.15-2.28 46.81-1.57 66.55 0.33 9.35 1.2 23.61 1.93 31.69 1.45 15.98 1.07 18.38-3.3 21.24zm54.26-30.69c16.57 8.84 30.44-16.11 24.51-44.1-2.74-12.94-8.71-19.63-17.51-19.63-5.28 0-9.66 2.37-13.36 7.22-4.02 5.27-5.76 11.37-6.35 22.27-0.92 16.99 3.7 29.44 12.71 34.24zm167-36.47l4.53-0.62c10.59-1.45 19.8-8.07 22.46-16.13 1.67-5.06 0.83-13.93-1.64-17.31-2.85-3.9-8.55-6.38-16.09-6.98l-0.3-0.03c-3.21-0.25-5.27-0.42-6.59 0.49-2.37 1.63-2.37 6.7-2.37 20.89zm-246.32 149.79c-4.79 2.17-15.59 2.63-17.48 0.74-0.81-0.81-1.2-5.35-1.2-13.88 0-15.29 0.07-15.4 9.77-14.7 11.77 0.84 16.23 4.9 16.23 14.78 0 6.84-2.18 10.72-7.32 13.06zm203.02-0.02c-12.25 7.47-26.55-6.88-19.95-20.02 3.7-7.37 13.11-10.23 19.95-6.06 4.99 3.04 6.79 6.57 6.7 13.16-0.09 6.55-1.87 9.97-6.7 12.92zm106 0c-1.77 1.08-5 1.95-7.2 1.95-8.38 0-13.97-6-13.97-14.99 0-8.99 5.59-14.99 13.97-14.99 8.38 0 13.97 6 13.97 14.99 0 6.46-1.87 10.05-6.77 13.04zm-275.17-0.06c-6.65 4.11-16.59 1.68-19.98-4.89-2.24-4.32-2-12.85 0.48-16.9 5.21-8.55 19.47-8.01 24.02 0.91 3.67 7.2 1.52 17.15-4.52 20.88zm-234.93-2.25c-2.83 3.1-4 3.63-8.69 3.98-9.5 0.7-14.91-4.71-14.91-14.91 0.01-9.87 5.9-15.45 15.35-14.54 4.16 0.4 5.58 1.09 8.28 4.03 5.72 6.24 5.71 15.19-0.03 21.44zm432.46 3.27c-5.27 1.46-15.02 1.28-15.62-0.3-0.28-0.72-0.37-7.35-0.22-14.75l0.28-13.45 8.09 0.03c9.08 0.04 12.11 1.36 15.51 6.77 3.06 4.87 2.26 13.67-1.61 17.71-1.58 1.65-4.48 3.45-6.43 3.99zm-387.26-5.25c-0.26 4.98-0.58 5.79-2.42 6.05-1.25 0.18-2.38-0.36-2.75-1.33-1.19-3.08-0.7-26 0.57-27.27 1.42-1.42 12.58-1.61 16.08-0.28 4.03 1.53 5.72 3.95 5.72 8.2 0 2.87-0.67 4.64-2.44 6.41-1.33 1.34-2 2.7-1.48 3.02 1.68 1.03 5.08 8.6 4.52 10.05-1.12 2.93-4.51 1.49-6.7-2.85-3.02-6.02-4.81-7.75-8.01-7.75-2.7 0-2.8 0.19-3.09 5.75zm268.77 3.84c-0.58 2.29-3.36 3.28-4.9 1.74-0.37-0.36-0.67-6.61-0.67-13.87 0-10.48 0.31-13.47 1.49-14.45 2.5-2.08 4.03-0.54 8.97 9.02l4.76 9.21 5.22-9.31c2.87-5.12 5.76-9.5 6.42-9.72 0.66-0.22 1.87 0.15 2.67 0.82 1.15 0.95 1.47 3.93 1.47 13.51 0 13.65-0.36 15.46-3.09 15.46-2.24 0-2.81-2.06-3.16-11.34l-0.25-6.84-3.82 7.09c-2.1 3.9-4.43 7.09-5.18 7.09-0.75 0-3.22-3.38-5.5-7.5-2.28-4.12-4.22-7.5-4.32-7.5-0.1 0-0.03 3.19 0.16 7.09 0.18 3.9 0.06 8.18-0.27 9.5zm-158.64-1.34c-1.44 3.27-4.2 4.73-5.38 2.84-0.75-1.21 10.11-26.56 12.07-28.19 0.75-0.62 2.05-0.86 2.91-0.53 1.75 0.68 13.47 24.8 13.47 27.74 0 3.4-3.81 2.28-5.44-1.61l-1.46-3.5h-7.37c-7.35 0-7.37 0.01-8.8 3.25zm326.85 2.19c-2.97 2.08-12.31 1.99-16.66-0.15-9.24-4.55-9.26-21.63-0.03-26.33 4.61-2.36 10.91-2.53 15.02-0.4 3.41 1.76 3.67 5.19 0.35 4.58-12.36-2.24-15.5-0.67-16.23 8.12-0.42 5.03-0.2 5.86 2.16 8.22 2.22 2.22 3.36 2.58 7.37 2.32 4.52-0.29 4.75-0.45 5.05-3.48 0.28-2.95 0.06-3.21-3-3.5-2.13-0.21-3.31-0.85-3.31-1.82 0-1.1 1.37-1.58 5.12-1.8 5.78-0.33 6.34 0.41 6.37 8.49 0.01 3.21-0.51 4.56-2.21 5.75zm-380.3 0.57c-7.46 2.83-17.3 0.25-21.09-5.54-2.5-3.82-2.35-13.69 0.26-17.26 4.04-5.5 13.46-7.9 19.35-4.92 3.09 1.57 3.48 5.38 0.5 4.85-8.72-1.54-10.98-1.32-13.5 1.36-1.98 2.11-2.5 3.7-2.5 7.67q-0.01 9.84 10.06 9.83c4.39 0 4.44-0.04 4.44-3.43 0-3-0.35-3.48-2.74-3.75-1.69-0.2-2.87-1.01-3.09-2.13-0.3-1.58 0.31-1.76 5-1.5l5.33 0.31 0.3 6.76c0.28 6.48 0.19 6.8-2.32 7.75zm28.75-1.93c-2.66 2.39-4.13 2.91-8 2.86-10.66-0.15-12.73-3.14-12.73-18.39v-11.05h2.5c2.49 0 2.5 0.05 2.79 10.46 0.32 11.88 1.37 14.04 6.79 14.04 5.5 0 6.42-1.86 6.42-12.95 0-10.27 1.07-13 4.57-11.66 1.37 0.52 1.55 2.3 1.27 12.2l-0.34 11.58zm144.8 1.23c-2.63 1.8-10.91 2.22-14.56 0.74-5.62-2.28-5.07-7.15 0.57-5.19 7.12 2.49 13.89 0.74 12.38-3.2-0.65-1.7-1.79-2.18-7.68-3.22-5.81-1.03-8.74-3.85-8.74-8.42 0-5.35 4.33-9.02 10.63-9.02 4.98 0 10.37 2.31 10.37 4.44 0 1.85-2.07 2.51-4.29 1.37-0.98-0.51-3.64-0.78-5.9-0.62-8.63 0.65-6.87 6.74 2.37 8.22 5.45 0.87 8.82 3.95 8.8 8.01-0.01 3.58-0.59 4.59-3.95 6.89zm-247.01 0.18c-3.64 1.88-10.68 1.89-14.13 0.01-4.01-2.18-5-5.88-4.68-17.55 0.27-9.69 0.44-10.45 2.29-10.45 1.84 0 2.04 0.83 2.5 10.6 0.58 12.23 1.43 13.9 7.07 13.9 5.79 0 6.93-2.34 6.93-14.25 0-7.84 0.3-9.93 1.51-10.39 0.83-0.32 2.24 0.02 3.13 0.76 1.37 1.13 1.54 2.93 1.11 11.46-0.58 11.25-1.46 13.7-5.73 15.91zm275.48-0.99c0 1.84-0.76 2.02-9.27 2.29-7.02 0.22-9.39-0.04-9.78-1.05-0.28-0.74-0.38-7.39-0.23-14.79l0.28-13.45 8.35-0.29c8.89-0.31 12.2 0.82 10.04 3.42-0.74 0.9-3.34 1.37-7.51 1.37h-6.38v8h6.5c5.83 0 6.5 0.21 6.5 2 0 1.79-0.67 2-6.5 2h-6.5v7.91l7.25 0.3c6.49 0.26 7.25 0.5 7.25 2.29zm72.5 1.21c-3.28 1.65-9.69 1.56-13.73-0.19-9.96-4.33-9.81-22.89 0.22-27.08 6.76-2.82 16.01-1.04 16.01 3.09 0 1.42-0.56 1.87-2 1.62-8.7-1.51-10.38-1.36-12.95 1.21-3.66 3.66-3.66 11.62 0 15.29 2.64 2.63 4.94 2.77 12.79 0.8 2.56-0.65 2.8-0.49 2.5 1.64-0.19 1.3-1.46 2.93-2.84 3.62zm16.23-4.38c3.03 1.22 7.87 0.57 9.74-1.3 3.85-3.85 3.83-12.23-0.03-16.09-1.92-1.92-6.25-2.53-9.4-1.32-2.22 0.86-4.54 5.64-4.54 9.38 0 3.48 2.3 8.55 4.23 9.33zm104.83-1.27c1.92 1.92 6.25 2.53 9.4 1.32 4.05-1.56 5.77-10.1 3.08-15.31-2.09-4.04-7.19-5.4-11.53-3.08-4.35 2.33-4.96 13.06-0.95 17.07zm-512.23 0.9c1.91 1.12 6.25 1.33 8.63 0.42 2.42-0.93 4.54-5.76 4.54-10.38 0-11.18-14.39-12.3-16.59-1.29-0.75 3.76 1.11 9.91 3.42 11.25zm436.17-19.21v20.25h4.05c4.57 0 9.4-2.12 10.33-4.54 0.34-0.9 0.62-3.56 0.62-5.93 0-6.39-2.35-8.73-9.33-9.31zm-199.93 17.62c2.79 3.53 8.03 3.62 11.48 0.18 1.94-1.94 2.45-3.49 2.45-7.37 0-6.73-2.71-10.18-8-10.18-5.23 0-8 3.46-8 10 0 3.27 0.64 5.54 2.07 7.37zm-33.07-17.37v20h4.44c6.79 0 10.06-3.26 10.06-10 0-6.74-3.27-10-10.06-10zm-223.22 12.3c-0.26 11.41-0.41 12.22-2.32 12.49-1.12 0.16-2.36-0.02-2.75-0.41-0.39-0.39-0.71-6.01-0.71-12.49v-11.78l-4.75-0.31c-3.98-0.25-4.75-0.62-4.75-2.3 0-1.89 0.67-2 12.5-2 11.83 0 12.5 0.11 12.5 2 0 1.67-0.77 2.05-4.72 2.3l-4.72 0.31zm488.01-0.3c-0.28 12.11-0.36 12.51-2.54 12.82-1.24 0.18-2.5-0.3-2.78-1.05-0.29-0.75-0.4-7.42-0.25-14.82 0.27-13.02 0.35-13.46 2.49-13.76 3.03-0.44 3.43 1.73 3.08 16.81zm-308.29-2.01c0 13.01-0.18 14.52-1.75 14.82-2.59 0.5-2.84-1.08-2.53-15.86 0.26-12.69 0.39-13.45 2.28-13.45 1.91 0 2 0.67 2 14.49zm-99.5-9.99v9h4.43c4.69 0 7.57-1.85 7.57-4.87 0-2.89-2.16-4.13-7.2-4.13zm116.75 13.21c4.24 0.53 6.27 0.37 6.37-0.5 0.05-0.44-0.93-3.14-2.17-6l-2.27-5.21-2.28 5-0.09 0.2c-1.71 3.74-2.37 5.19-1.9 5.84 0.3 0.43 1.07 0.51 2.34 0.67zm238.67-23.13c-2.62 2.74-5.42 3.86-5.42 2.17 0.01-1.79 4.1-7.25 5.43-7.25 2.78 0 2.77 2.18-0.01 5.08z"/>
		<path class="s0" d="m159.39 254.68c-1.69 2.77-3.48 2.65-8.61-0.6-5.16-3.28-10.05-9.35-11.81-14.66-1.1-3.36-1.23-3.42-6.8-3.43-3.12-0.01-11.05-1.11-17.64-2.45-6.58-1.34-12.16-2.24-12.4-2-1.11 1.1 3.78 9.25 8.1 13.5 5.06 4.98 5.85 7.26 3.05 8.82-4.85 2.72-16.15-10.92-17.85-21.54-0.61-3.86-0.64-3.88-9.77-7.1-5.04-1.78-9.45-3.23-9.8-3.23-0.87 0.01 0.51 5.95 2.1 9.03 0.7 1.37 3.06 4.34 5.25 6.62 4.5 4.67 4.76 7.69 0.69 8.16-5.26 0.62-13.12-11.14-14.64-21.92l-0.76-5.38-7-3.5c-35.16-17.59-51.85-47.7-45-81.18 3.22-15.77 14.98-32.75 29.09-42.03 3.53-2.32 6.41-4.5 6.41-4.84 0-0.34-1.85-3.21-4.12-6.38-4.46-6.23-13.8-13.73-19.39-15.57-3.3-1.09-3.63-0.98-6.08 1.92-6.67 7.94-19.39-0.31-15.39-9.98 1.68-4.04 4.63-5.94 9.25-5.94 2.72 0 4.53 0.7 6.28 2.45 1.35 1.35 2.45 2.87 2.45 3.37 0 0.5 2.72 1.9 6.05 3.12 7.75 2.82 15.06 8.78 21.75 17.7l5.31 7.07 6.41-2.33c3.53-1.28 10.48-2.85 15.45-3.48 6-0.77 9.03-1.59 9.03-2.43 0-5.61-9.12-24.57-12.96-26.95-0.64-0.39-2.46-0.18-4.04 0.48-3.61 1.5-9.28-0.13-11.5-3.3-2.43-3.47-1.91-9.02 1.14-12.06 5.67-5.67 16.36-2.14 16.36 5.41 0 2.27 1.15 4.44 4.13 7.8 5.11 5.74 10.13 15.93 11.85 24.04 1.29 6.1 1.3 6.11 4.91 6.16 1.98 0.03 7.36 0.62 11.94 1.31l8.33 1.26-0.6-2.56c-4.01-17.14-4.46-28.21-1.62-39.34 2.41-9.4 4.09-12.7 9.39-18.49 13.9-15.13 37.56-11.29 45.85 7.44 1.04 2.35 2.41 7.99 3.04 12.55 0.63 4.55 1.27 8.45 1.42 8.65 0.15 0.2 2.14-1.24 4.44-3.21 5.58-4.77 17.98-11.12 25.56-13.07 23.46-6.06 42.01 6.58 41.71 28.41-0.3 22.32-19.02 42.39-48.58 52.07l-6.73 2.2 7.73 8.22c13.63 14.49 19.19 26.75 20.01 44.17l0.47 10.16 11.88 10.21c6.53 5.61 11.87 10.55 11.87 10.97 0 0.42-5.74 1.05-12.75 1.42-18.86 0.97-19.85 1.19-22.24 5.06-5.86 9.48-22.85 21.52-36.74 26.04-4.58 1.49-5.1 1.92-4.23 3.55 1.32 2.47 6.3 6.12 12.76 9.36 5.96 2.99 7.24 4.96 4.8 7.39-1.55 1.56-2.15 1.42-9.08-2.15-6.71-3.45-12.29-8.32-15.04-13.11-0.91-1.58-1.97-1.7-9.72-1.05l-8.69 0.72 1.4 2.71c1.29 2.49 5.15 6.19 12.24 11.74 2.31 1.81 2.6 2.5 1.68 4zm-102.39-48.61c7.21 4.35 9.17 4.59 19.5 2.43 20.15-4.22 39.18-19.76 48.46-39.61 7.18-15.33 9.52-36.19 5.71-50.89-2.49-9.63-8.86-21.84-14.39-27.62-5.1-5.31-7.86-6.35-17.03-6.37l-4.25-0.01v4.57c0 5.51-1.39 8.43-4.04 8.43-1.75 0-1.96-0.71-1.96-6.64v-6.65l-6.96 0.65c-16.15 1.5-30.93 8.58-43.12 20.66q-12.22 12.11-16.43 27.98c-1.74 6.51-1.94 21.74-0.39 29.2 3.32 16.07 16.73 32.91 34.9 43.87zm95.04-91.67c-0.06 1.38 17.54-0.07 28.84-2.38 21.2-4.32 35.92-11.09 47.19-21.72 15.33-14.47 19.2-33.62 9.16-45.35-4.93-5.75-10.03-7.9-18.82-7.93-13.66-0.04-26.76 6.34-39.98 19.47-9.86 9.79-15.28 17.41-21.63 30.39-3.87 7.92-9.02 22.21-8.28 22.97 0.19 0.19 4.58-2.91 9.75-6.88l9.41-7.24 1.79-9.61c1.99-10.72 2.92-13.12 5.07-13.12 1.85 0 1.85 3.59 0 11.33l-0.03 0.1c-0.68 2.87-1.09 4.56-0.55 4.95 0.78 0.57 3.49-1.53 10.1-6.62l0.15-0.12 8.44-6.52 2.31-11.31c2.56-12.53 3.42-14.81 5.58-14.81 1.91 0 1.84 1.84-0.44 12.3-1.05 4.79-1.68 8.7-1.41 8.7 0.27 0 6.58-4.73 14.02-10.5 12.87-9.99 17.29-12.3 17.29-9.04 0 0.8-6.54 6.54-14.52 12.75-11.61 9.03-14.07 11.35-12.25 11.57 1.25 0.16 6.54 0.61 11.77 1 7.46 0.57 9.5 1.04 9.5 2.22 0 1.27-2.34 1.5-15.03 1.5h-15.04l-17.93 14 5.5 0.24c12.75 0.55 16 1.26 16 3.48 0 2.03-0.28 2.06-13.5 1.37l-13.5-0.7-9.46 7.31c-5.2 4.01-9.48 7.71-9.5 8.2zm-37.54 113.52c13.77 2.96 15.96 2.76 23.51-2.1 14.7-9.45 28.74-26.72 35.66-43.87 6.59-16.3 8.68-39.47 4.99-55.26l-1.82-7.81-5.67 0.59c-3.12 0.33-7.58 0.84-9.92 1.13l-4.25 0.52 0.75 4.19c0.41 2.31 0.7 9.14 0.64 15.19-0.35 34.71-19.27 65.35-49.29 79.84q-0.58 0.28-1.12 0.54c-3.66 1.76-5.67 2.72-5.6 3.51 0.09 1.03 3.8 1.74 12.12 3.53zm31.12-138.63c1.03 0.26 2.14 0.53 2.46 0.59 0.32 0.07 1.67-2.24 3-5.12 2.83-6.13 14.82-24.64 17.25-26.63 1.3-1.07 1.67-3.1 1.67-9.2 0-10.5-1.53-17.01-5.34-22.67-4.36-6.51-9.49-9.22-17.45-9.24-16.22-0.05-26.21 14.07-26.21 37 0 8.57 3.3 25.58 5.36 27.61 1.36 1.36 11.57 4.77 12.24 4.1 0.26-0.25 1.09-5.81 1.86-12.35l1.38-11.88-6.56-10.31c-4.69-7.36-6.26-10.61-5.49-11.38 1.84-1.84 3.73-0.24 7.79 6.58 2.16 3.62 4.18 6.58 4.49 6.59 0.32 0.01 1.17-5.64 1.9-12.57 0.95-9.03 1.72-12.74 2.74-13.13 3.08-1.18 3.29 1.4 1.42 17.28-1.04 8.77-1.73 16.11-1.55 16.32 0.19 0.2 2.65-2.16 5.48-5.25 5.27-5.77 7.54-6.84 8.61-4.04 0.42 1.09-1.91 4.13-7.47 9.75l-8.08 8.16-0.69 9.65c-0.64 8.93-0.55 9.69 1.19 10.14zm29.38 134.13c0 2.73 14.71-5.51 22.36-12.52 19.51-17.87 23.5-42.21 10.94-66.81-4.54-8.9-7.21-11.7-6.47-6.8 0.19 1.22 0.4 8.29 0.49 15.71 0.27 24.36-6.73 44.83-21.42 62.67-3.24 3.94-5.9 7.43-5.9 7.75zm-104.55-57.53c-5.06 1.41-7.04 1.34-11.95-0.39-4.88-1.73-10.5-7.57-10.5-10.93 0-4.18 2.08-4.1 5.67 0.22 5.92 7.12 14.15 7.94 20.85 2.05 3.58-3.13 6.48-3.25 6.48-0.27 0 2.61-6.24 8.13-10.55 9.32zm27.1-23.34c-1.55 1.54-3.6 2.45-5.55 2.45-5.77 0-9.65-6.55-7.38-12.46 0.76-1.96 5.5-4.54 8.38-4.54 3.39 0 7 4.38 7 8.5 0 2.48-0.76 4.35-2.45 6.05zm-47-5c-3.45 3.44-8.69 3.35-11.48-0.18-6.34-8.07 4.25-18.15 11.48-10.92 1.54 1.55 2.45 3.6 2.45 5.55 0 1.95-0.91 4-2.45 5.55z"/>
		<path class="s1" d="m57 206.07c-18.17-10.96-31.58-27.8-34.9-43.87-1.55-7.46-1.35-22.69 0.39-29.2q4.21-15.87 16.43-27.98c12.19-12.08 26.97-19.16 43.12-20.66l6.96-0.65v6.65c0 5.93 0.21 6.64 1.96 6.64 2.65 0 4.04-2.92 4.04-8.43v-4.57l4.25 0.01c9.17 0.02 11.93 1.06 17.03 6.37 5.53 5.78 11.9 17.99 14.39 27.62 3.81 14.7 1.47 35.56-5.71 50.89-9.28 19.85-28.31 35.39-48.46 39.61-10.33 2.16-12.29 1.92-19.5-2.43zm291.79 120.4c-19.99 3.97-47.37-0.21-55.24-8.42-2.51-2.62-2.76-3.47-2.29-7.71 0.37-3.27 1.24-5.32 2.77-6.56 4.04-3.27 6.73-3.23 16.85 0.25 8.38 2.88 10.97 3.31 20.12 3.38 9.11 0.07 11.5-0.28 18-2.67 15.62-5.75 24.02-16.11 23.98-29.58-0.04-11-5.5-19.32-14.86-22.62-4.43-1.56-17.65-1.93-23.62-0.67-2.78 0.59-3.02 1-3.31 5.52-0.17 2.68 0.2 8.75 0.82 13.49 2.25 17.31 2.36 20.9 0.7 23.44-3.69 5.63-12.64 5.93-17.15 0.57-2.65-3.16-2.76-3.46-4.65-13.39-2.79-14.69-2.07-63.66 1.12-75.57 1.91-7.16 9.5-10.78 15.79-7.53 5.03 2.61 5.45 4.34 4.66 19.21q-0.06 1.08-0.12 2.06c-0.39 7.07-0.56 10.16 0.74 11 1.01 0.66 2.91-0.06 6.3-1.34q0.6-0.23 1.26-0.48c10.57-3.95 20.31-15.87 20.33-24.89 0.02-5.74-3.81-12.02-9.41-15.45-4.66-2.85-5.49-3.01-15.55-3.01-10.27 0-10.9 0.13-18.19 3.74-6.26 3.09-8.5 4.91-12.98 10.5-5.2 6.49-5.61 6.77-10.23 7.07-8.45 0.54-13.08-5.04-10.72-12.92 1.9-6.32 13.51-17.87 22.37-22.24 28.93-14.29 62.87-7.06 73.34 15.62 2.5 5.4 2.88 7.42 2.88 15.23 0 11.03-1.97 16.92-8.59 25.72l-4.7 6.25 5.14 2.81c10.19 5.56 17.06 14.54 20.12 26.25 7.31 28.08-13.34 56.53-45.68 62.94zm171.47-29.41c-11.03 2.82-21.32 2.59-28.26-0.64-3.02-1.41-6.33-3.31-7.35-4.24-3.57-3.22-6.52-10.78-7.73-19.79-1.52-11.38-0.62-44.46 1.55-57.34 2.18-12.86 4.46-16.77 12.03-20.55 5.62-2.81 6.7-3 17-2.93 6.05 0.04 14.37 0.66 18.48 1.38 6.19 1.08 8.04 1.87 10.75 4.58 3.83 3.83 4.21 7.41 1.3 12.19-2.6 4.26-5.56 4.86-17.02 3.44-12.21-1.51-17.5-1.48-18.83 0.12-1.23 1.48-3.16 12.44-3.17 17.97q0 0.33-0.01 0.61c-0.01 1.19-0.02 1.97 0.36 2.43 0.73 0.88 2.86 0.61 9.08-0.2q0.79-0.1 1.68-0.21c9.99-1.28 13.05-0.8 16.47 2.62 2.89 2.89 3.26 8.84 0.78 12.38-2.03 2.9-7.18 5.12-11.9 5.12-1.97 0-6.76 0.52-10.64 1.17l-7.06 1.16 0.7 7.96c1.13 13.07 2.39 14.32 13.56 13.51 4.34-0.31 7.86-1.42 13.01-4.11 7.83-4.09 9.71-4.39 13.98-2.18 3.61 1.87 4.98 4.31 4.98 8.89 0 7.17-7.65 12.55-23.74 16.66zm-75.23 0.52c-20.1 4.26-33.48-0.9-39.14-15.08-2.32-5.83-2.39-6.76-2.33-33.5 0.06-28.89 1.14-38.66 5.16-46.85 4.27-8.68 15.77-12.1 34.29-10.2 18.35 1.89 22.99 4.32 22.99 12.07 0 5.16-1.26 7.55-5 9.48-2.62 1.36-3.93 1.36-12.22 0.01-10.86-1.76-19.39-1.95-20.32-0.45-0.95 1.55-2.96 20.77-2.24 21.49 0.33 0.34 4.88 0.05 10.1-0.63 10.68-1.4 14.19-0.63 17.71 3.85 5.61 7.12-0.88 16.23-11.56 16.23-1.97 0-6.77 0.53-10.66 1.17l-7.07 1.17 0.53 7.73c0.29 4.25 1.15 9.02 1.9 10.58 1.34 2.78 1.56 2.85 9.42 2.85 7.36 0 8.66-0.32 15.2-3.75 7.91-4.15 9.93-4.46 14.23-2.24 3.68 1.9 4.98 4.32 4.98 9.23 0 3.06-0.69 4.53-3.28 7.04-3.8 3.69-13.38 7.83-22.69 9.8zm-330.53-69.66c-8.32-1.79-12.03-2.5-12.12-3.53-0.07-0.79 1.94-1.75 5.6-3.51q0.54-0.26 1.12-0.54c30.02-14.49 48.94-45.13 49.29-79.84 0.06-6.05-0.23-12.88-0.64-15.19l-0.75-4.19 4.25-0.52c2.34-0.29 6.8-0.8 9.92-1.13l5.67-0.59 1.82 7.81c3.69 15.79 1.6 38.96-4.99 55.26-6.92 17.15-20.96 34.42-35.66 43.87-7.55 4.86-9.74 5.06-23.51 2.1zm786.29 55.57c-2.91 3.84-6.02 7.13-6.92 7.3-3.47 0.66-17.51-20.33-20.53-30.71-2.96-10.15 1.43-20.37 10.78-25.14 7.59-3.87 18.94-1.92 24.51 4.21 9.21 10.14 6.52 25.36-7.84 44.34zm-469.79-114.8c-18.53 8.26-20 8.82-20 7.71 0-0.32 3.48-8.94 7.74-19.13 5.21-12.47 8.49-19.03 10-20.02 4.43-2.9 36.77-17.23 37.04-16.41 0.15 0.46-3.45 9.56-8 20.22l-8.28 19.38zm-256 54.73c0-0.32 2.66-3.81 5.9-7.75 14.69-17.84 21.69-38.31 21.42-62.67-0.09-7.42-0.3-14.49-0.49-15.71-0.74-4.9 1.93-2.1 6.47 6.8 12.56 24.6 8.57 48.94-10.94 66.81-7.65 7.01-22.36 15.25-22.36 12.52zm713.78 38.02c3.46 1.88 5.63 1.92 9.07 0.13 5.45-2.81 6.65-9.63 2.56-14.49-2.15-2.57-3.31-3.08-6.91-3.08-3.6 0-4.76 0.51-6.91 3.08-4.21 5-3.24 11.42 2.19 14.36zm-818.33-95.55c4.31-1.19 10.55-6.71 10.55-9.32 0-2.98-2.9-2.86-6.48 0.27-6.7 5.89-14.93 5.07-20.85-2.05-3.59-4.32-5.67-4.4-5.67-0.22 0 3.36 5.62 9.2 10.5 10.93 4.91 1.73 6.89 1.8 11.95 0.39zm27.1-23.34c1.69-1.7 2.45-3.57 2.45-6.05 0-4.12-3.61-8.5-7-8.5-2.88 0-7.62 2.58-8.38 4.54-2.27 5.91 1.61 12.46 7.38 12.46 1.95 0 4-0.91 5.55-2.45zm-47-5c1.54-1.55 2.45-3.6 2.45-5.55 0-1.95-0.91-4-2.45-5.55-7.23-7.23-17.82 2.85-11.48 10.92 2.79 3.53 8.03 3.62 11.48 0.18zm214.46 177.2c-3.86 6.33-8.95 3.02-5.43-3.53 1.84-3.42 1.85-3.55 0.04-4.62-4.38-2.6-5.94-4.33-5.32-5.94 0.85-2.22 3.93-2.09 8.74 0.36 3.67 1.87 3.96 2.33 3.96 6.25-0.01 2.45-0.84 5.6-1.99 7.48zm169.64-161.58c3.62 3.99 9.35 1.2 9.35-4.54 0-4.05-1.54-5.63-5.5-5.63-1.71 0-3.64 0.54-4.3 1.2-1.73 1.73-1.47 6.84 0.45 8.97zm208.25 182.25q-7.43 2.97-8.54 0.08c-1.04-2.72 0.43-4.27 5.73-6.03 4.97-1.65 5.3-1.65 6.51-0.01 1.82 2.5 0.79 4.17-3.7 5.96zm-358.88-21.94c-1.57 1.89-3.53 1.87-7.99-0.06-4.68-2.03-5.77-3.71-4.11-6.33 0.75-1.18 1.62-1.2 5.44-0.13 5.69 1.59 8.48 4.33 6.66 6.52zm602.37 3.47c-3.73 4.43-5.9 5.4-7.82 3.48-1.9-1.91-1.14-3.58 3.81-8.34 2.98-2.86 3.78-3.2 5.08-2.12 2.17 1.8 1.93 3.42-1.07 6.98zm-101.39-1.26c0 1.15-0.65 2.34-1.43 2.65-1.47 0.56-8.4-4.33-9.9-6.98-1.01-1.79 0.9-4.36 3.26-4.36 2.35 0 8.07 6.16 8.07 8.69zm-574.1 48.73q-7.43 2.97-8.54 0.08c-1.03-2.68 0.31-4.01 5.75-5.75 4.4-1.41 5.59-1.48 6.66-0.41 1.99 1.99 0.5 4.33-3.87 6.08zm626.41-29.53c-1.57 2.51-10.09 2.29-12.25-0.32-2.39-2.87-0.13-4.57 6.08-4.57 6.31 0 8.26 1.54 6.17 4.89zm-666.21-40.44q-0.56 0.28-1.04 0.53c-3.1 1.57-4.04 2.05-4.71 1.8-0.37-0.13-0.65-0.48-1.15-0.98-2.05-2.05-1.35-3.67 2.72-6.37 4.63-3.06 8.44-2.95 8.89 0.27 0.25 1.77-0.68 2.71-4.71 4.75zm-13.65 11.03c-3.16 4.13-4.94 4.88-6.92 2.91-2.14-2.14-2-2.6 2.22-7.34 2.73-3.05 4.23-4.01 5.5-3.52 2.48 0.97 2.17 4.05-0.8 7.95zm698.53 27.92c-2.12 2.06-10.15 3.07-11.73 1.47-3.06-3.11-0.47-5.46 6.63-6.03 3.3-0.26 4.63 0.08 5.47 1.39 0.86 1.33 0.77 2.07-0.37 3.17zm-506.59-207.63c-0.59 0.95-2.87 2.73-5.06 3.96-3.53 1.98-4.22 2.07-5.91 0.81-2.56-1.9-1.12-4.27 4.51-7.41 3.94-2.21 4.37-2.26 5.89-0.74 1.26 1.26 1.39 2.06 0.57 3.38zm342.46 179.22c-4.65 3.37-7.33 3.81-8.27 1.35-1.28-3.33 7.44-10.02 10.7-8.2 2.76 1.54 2.02 3.63-2.43 6.85zm-514.35 59.02c0 2.98-2.34 3.48-7.43 1.62-4-1.47-5.67-3.63-4.71-6.12 0.52-1.36 1.37-1.61 3.76-1.14 5.64 1.13 8.38 2.97 8.38 5.64zm692.37-34.44c-2.95 1.52-6.11 1.86-7.2 0.76-1.78-1.77-0.39-4.43 3.29-6.31q7.19-3.66 8.45-0.39c0.75 1.96-0.81 4.01-4.54 5.94zm-657.06-44.26c-0.27 1.92-1.02 2.23-6 2.49-4.93 0.26-5.84 0.02-6.82-1.82-0.85-1.58-0.83-2.46 0.06-3.54 1.42-1.71 4.07-1.81 9.26-0.37 3.1 0.86 3.75 1.46 3.5 3.24zm378.04 57.26c-0.53 2.78-9.72 3.33-12.08 0.72-2.63-2.9-0.55-5.29 4.59-5.29 4.99 0 8.01 1.84 7.49 4.57zm-440.5-0.04c-0.7 1.81-3.73 1.92-5.18 0.18-0.58-0.71-1.49-3.2-2.02-5.53-1.04-4.62 0.51-7.63 3.37-6.53 1.72 0.66 4.65 9.75 3.83 11.88zm421.54-1.9c-1.35 1.63-3.02 1.63-8.39 0.01-3.26-0.98-4-1.66-4-3.67 0-2.18 0.41-2.46 3.58-2.37 7.76 0.21 11.51 2.78 8.81 6.03zm-205.7-219.73c-1.07 0.57-3.79 1.33-6.05 1.69-4.31 0.69-6.05-0.77-4.8-4.04 0.61-1.57 7.78-3.86 10.49-3.35 2.44 0.47 2.69 4.45 0.36 5.7zm39.63 2.33c-0.68 4.82-12.32 1.78-12.32-3.23 0-3.3 2.32-3.62 8.03-1.09 3.78 1.67 4.56 2.45 4.29 4.32zm219.93 217.6c-6.27 1.89-7.79 1.99-9.23 0.55-2.2-2.2-0.75-4.25 3.83-5.42 2.28-0.58 4.66-1.23 5.28-1.43 1.52-0.5 3.37 1.47 3.37 3.59 0 1.08-1.22 2.09-3.25 2.71zm34.03-13.84c-3.95 2.41-7.35 2.59-8.18 0.42-0.83-2.18-0.3-2.81 5.01-5.92 4.13-2.42 4.76-2.54 6.14-1.17q3.04 3.02-2.97 6.67zm-432.28 29.18c-2.2 1.52-4.23 2.74-4.5 2.72-1.89-0.18-3-1.36-3-3.22 0-2.59 8.17-8.2 10.59-7.28 2.66 1.03 1.14 4.87-3.09 7.78zm573.31-30.87c-0.42 2.94-4.42 3.33-8.23 0.78-4.05-2.7-4.93-4.59-3.03-6.49 1.42-1.42 2.03-1.33 6.57 0.97 4.01 2.03 4.94 2.98 4.69 4.74zm-191.85 18.25c-1.67 2.01-10.31 1.94-12-0.1-2.13-2.57 0.94-4.63 7.15-4.8 4.39-0.12 5.39 0.16 5.69 1.65 0.2 0.99-0.18 2.45-0.84 3.25zm-277.52-202.62c-3.53 3.91-5.35 4.83-6.77 3.4-2.82-2.81 4.7-12.85 8.05-10.73 2.79 1.75 2.55 3.09-1.28 7.33zm55.37-23.15c-0.27 2.34-0.8 2.74-3.81 2.89-5.74 0.29-8.5-0.92-8.5-3.72 0-2.13 0.51-2.49 3.9-2.77 6.48-0.53 8.78 0.45 8.41 3.6zm431.69 213.25c0 2.11-0.52 2.51-3.5 2.73-4.48 0.33-8.41-1.69-8.82-4.54-0.44-3.05 1.74-3.64 7.5-2.02 4.09 1.16 4.82 1.74 4.82 3.83zm-657.67 24.61c-0.57 3.02-4.2 2.75-7.75-0.56-3.66-3.43-3.95-7.38-0.56-7.87 2.61-0.37 8.8 5.9 8.31 8.43zm69.67-65.61c0 2.95-2.35 3.46-7.43 1.6-4.52-1.66-6.07-4.06-3.97-6.16 1.42-1.41 2.02-1.39 6.48 0.27 4.07 1.51 4.92 2.25 4.92 4.29zm476.22 4.39l-0.44 0.26c-2.98 1.75-3.93 2.3-4.74 2.15-0.41-0.07-0.79-0.34-1.39-0.72-2.15-1.36-0.92-4.35 2.82-6.87 4.13-2.78 7.41-2.6 7.84 0.43 0.24 1.66-0.73 2.78-4.09 4.75zm65.08 7.46c-0.39 3.38-2.84 3.78-5.47 0.9-4.56-5-5.2-9.78-1.31-9.78 2.72 0 7.14 5.79 6.78 8.88zm-580.8-13.77c-4.77 1.32-10.03 0.98-10.67-0.69-1.04-2.72 2.07-4.62 7.81-4.77 5.06-0.14 5.36-0.01 5.36 2.3 0 1.77-0.7 2.65-2.5 3.16zm345.8 36.3c-0.43 3.03-3.71 3.05-8.11 0.04-2.76-1.88-3.72-3.2-3.5-4.77 0.45-3.15 3.11-3.17 7.79-0.08 2.97 1.97 4.03 3.31 3.82 4.81zm-281.85 5.99c-3.05 3.48-4.88 4.33-6.28 2.93-2.3-2.3 3.35-11.61 6.75-11.13 3.31 0.48 3.1 4.14-0.47 8.2zm21.01-46.85c-3.12 3.76-6.08 0.57-4.99-5.38 0.92-5.02 2.08-6.51 4.67-5.98 1.53 0.31 1.83 1.23 1.69 5.14-0.09 2.62-0.7 5.42-1.37 6.22zm-79.46 81.45c0 2.37-0.33 2.52-6.26 2.8-6.54 0.31-8.24-0.76-6.86-4.35 0.47-1.21 1.94-1.48 6.86-1.25 5.93 0.28 6.26 0.43 6.26 2.8zm357.31-31.7c-0.43 3.03-3.48 3.18-8.31 0.42-7.84-4.48-3.66-8.88 4.49-4.73 3.21 1.64 4.07 2.6 3.82 4.31zm-293.42-117.87c-0.97 2.52-3.75 1.83-7.29-1.82-3.51-3.63-3.83-6.84-0.75-7.44 3.26-0.63 9.2 6.22 8.04 9.26zm-11.89 81.58c0 3.36-2.91 3.62-8 0.71-7.56-4.32-3.87-8.79 4.15-5.02 2.95 1.39 3.85 2.4 3.85 4.31zm427.6 19.71c-3.92 2.64-6.91 2.93-7.74 0.77-0.72-1.88 0.85-3.84 5.28-6.58 6.62-4.09 8.97 1.43 2.46 5.81zm-398.22-51.97c-0.96 2.59-4.37 3.02-5.27 0.67-2.04-5.3 0.37-12.41 3.76-11.11 1.69 0.65 2.65 7.33 1.51 10.44zm243.91 48.72c-0.45 3.15-3.27 2.93-7.24-0.56-3.94-3.46-4.5-7.11-1.19-7.74 2.53-0.49 8.8 5.7 8.43 8.3zm-279.58 30.83c-2.09 2.03-4 3.66-4.25 3.62-1.89-0.32-2.96-1.34-2.96-2.8 0-2.52 7.51-9.52 9.43-8.79 2.62 1.01 1.77 4.07-2.22 7.97zm-92.58-24.3c-0.98 3.3-1.91 4.59-3.49 4.82-2.62 0.39-3.6-1.75-2.75-6.01 0.78-3.93 2.32-5.81 4.76-5.81 2.67 0 3.04 1.78 1.48 7zm126.17-75.59c-0.2 2.77-0.81 4.17-1.89 4.37-2.34 0.45-3.83-1.88-4.54-7.11-0.53-3.88-0.35-4.74 1.15-5.32 2.86-1.09 5.64 3.15 5.28 8.06zm-6.03-15.42c-0.44 4.09-3.36 3.63-6.28-1q-4.5-7.13 0.24-7.81c2.72-0.38 6.45 5.05 6.04 8.81zm1.81 70.53c-3.53 5.39-6.82 1.79-4.5-4.92 1.15-3.33 1.89-4.1 3.92-4.1 2.19 0 2.48 0.41 2.35 3.27-0.08 1.8-0.88 4.39-1.77 5.75zm49.95-143.59c-1.74 3.38-5.18 4.15-6.23 1.41-0.95-2.47 2.8-8.84 5.2-8.84 2.63 0 3.1 3.43 1.03 7.43zm95.54-24.51c-1.64 1.97-3.46 2.02-5.03 0.13-1.88-2.27-0.86-5.05 1.86-5.05 3.16 0 4.95 2.78 3.17 4.92zm476.82 172.21c-1.5 1.81-3.81 1.75-4.53-0.13-0.88-2.29 0.35-4.5 2.5-4.5 2.37 0 3.58 2.76 2.03 4.63z"/>
	</g>
</svg>